<?xml version="1.0" standalone="no"?>
<!DOCTYPE svg PUBLIC "-//W3C//DTD SVG 1.1//EN" "http://www.w3.org/Graphics/SVG/1.1/DTD/svg11.dtd" >
<svg xmlns="http://www.w3.org/2000/svg" xmlns:xlink="http://www.w3.org/1999/xlink" version="1.1">
<metadata>
Created by FontForge 20170731 at Fri Nov 18 00:56:56 2022
 By Aleksey,,,
Copyright 2019 The Sofia Sans Project Authors (https://github.com/lettersoup/Sofia-Sans)
</metadata>
<defs>
<font id="SofiaSansCondensed-Bold" horiz-adv-x="0" >
  <font-face 
    font-family="Sofia Sans Condensed"
    font-weight="700"
    font-stretch="normal"
    units-per-em="1000"
    panose-1="0 0 0 0 0 0 0 0 0 0"
    ascent="800"
    descent="-200"
    x-height="492"
    cap-height="655"
    bbox="-110.333 -248 1149.5 917"
    underline-thickness="50"
    underline-position="-175"
    unicode-range="U+000D-FB02"
  />
<missing-glyph horiz-adv-x="434" 
d="M79 0q-4 0 -7 3t-3 8v650q0 5 3 8.5t7 3.5h276q4 0 7 -3.5t3 -8.5v-650q0 -5 -3 -8t-7 -3h-276zM152 81h131v511h-131v-511z" />
    <glyph glyph-name="f_f" unicode="ff" horiz-adv-x="629" 
d="M92 0q-5 0 -7.5 3t-2.5 8v385h-56q-10 0 -10 11v74q0 11 10 11h56v48q0 75 34 113t102 38q29 0 53.5 -4t38.5 -9q10 -5 10 -14v-68q0 -14 -15 -8q-13 4 -28 8t-32 4q-27 0 -40 -15.5t-13 -48.5v-44h90q11 0 11 -11v-74q0 -11 -11 -11h-90v-385q0 -5 -3 -8t-8 -3h-89z
M409 0q-5 0 -7.5 3t-2.5 8v385h-56q-10 0 -10 11v74q0 11 10 11h56v48q0 75 34 113t102 38q29 0 53.5 -4t38.5 -9q10 -5 10 -14v-68q0 -14 -15 -8q-13 4 -28 8t-32 4q-27 0 -40 -15.5t-13 -48.5v-44h90q11 0 11 -11v-74q0 -11 -11 -11h-90v-385q0 -5 -3 -8t-8 -3h-89z" />
    <glyph glyph-name="f_i" unicode="fi" horiz-adv-x="467" 
d="M91 0q-4 0 -6.5 3t-2.5 8v385h-56q-10 0 -10 11v74q0 11 10 11h56v46q0 77 34 115t108 38q31 0 58 -3.5t41 -8.5q9 -3 9 -12v-68q0 -13 -12 -10q-15 5 -34 8.5t-37 3.5q-30 0 -43.5 -15t-13.5 -48v-46h219q10 0 10 -11v-470q0 -11 -10 -11h-91q-9 0 -9 11v385h-119v-385
q0 -5 -3 -8t-8 -3h-90z" />
    <glyph glyph-name="f_l" unicode="fl" horiz-adv-x="468" 
d="M91 0q-4 0 -6.5 3t-2.5 8v385h-56q-10 0 -10 11v74q0 11 10 11h56v47q0 77 35 114.5t106 37.5q30 0 55 -3.5t44 -7.5l89 3q10 0 10 -11v-661q0 -11 -10 -11h-89q-11 0 -11 11v582q-14 3 -30 5.5t-34 2.5q-27 0 -41 -15t-14 -47v-47h56q10 0 10 -11v-74q0 -11 -10 -11h-56
v-385q0 -5 -3 -8t-8 -3h-90z" />
    <glyph glyph-name=".notdef" horiz-adv-x="434" 
d="M79 0q-4 0 -7 3t-3 8v650q0 5 3 8.5t7 3.5h276q4 0 7 -3.5t3 -8.5v-650q0 -5 -3 -8t-7 -3h-276zM152 81h131v511h-131v-511z" />
    <glyph glyph-name=".null" 
 />
    <glyph glyph-name="nonmarkingreturn" horiz-adv-x="333" 
 />
    <glyph glyph-name="CR" unicode="&#xd;" horiz-adv-x="4" 
 />
    <glyph glyph-name="space" unicode=" " horiz-adv-x="156" 
 />
    <glyph glyph-name="exclam" unicode="!" horiz-adv-x="224" 
d="M68 212q-10 0 -10 11l-8 421q0 11 10 11h107q10 0 10 -11l-9 -421q0 -11 -9 -11h-91zM113 -8q-32 0 -50 16t-18 46v16q0 32 18 47.5t50 15.5q34 0 51 -15.5t17 -47.5v-16q0 -30 -17 -46t-51 -16z" />
    <glyph glyph-name="quotedbl" unicode="&#x22;" horiz-adv-x="344" 
d="M212 400q-11 0 -11 11v261q0 11 11 11h84q12 0 12 -11v-261q0 -11 -12 -11h-84zM48 400q-11 0 -11 11v261q0 11 11 11h84q12 0 12 -11v-261q0 -11 -12 -11h-84z" />
    <glyph glyph-name="numbersign" unicode="#" horiz-adv-x="486" 
d="M100 0q-11 0 -11 11v108h-56q-11 0 -11 11v64q0 12 11 12h56v201h-56q-11 0 -11 12v64q0 11 11 11h56v108q0 11 11 11h67q12 0 12 -11v-108h127v108q0 11 12 11h67q12 0 12 -11v-108h56q11 0 11 -11v-64q0 -12 -11 -12h-56v-201h56q11 0 11 -12v-64q0 -11 -11 -11h-56
v-108q0 -11 -12 -11h-67q-12 0 -12 11v108h-127v-108q0 -11 -12 -11h-67zM179 206h127v201h-127v-201z" />
    <glyph glyph-name="dollar" unicode="$" horiz-adv-x="511" 
d="M250 -8q-97 0 -141.5 51.5t-37.5 143.5q0 13 10 13h89q10 0 10 -13q-4 -47 14 -72.5t59 -25.5q38 0 56.5 18.5t18.5 58.5q0 21 -5 37.5t-16.5 30t-31.5 26.5l-104 64q-50 33 -74 74t-23 102q1 80 46.5 121.5t128.5 41.5q93 0 140.5 -49t40.5 -142q-1 -13 -11 -13h-89
q-11 0 -10 13q3 44 -14 69t-55 25q-30 0 -47.5 -16.5t-18.5 -51.5q0 -31 13.5 -51.5t42.5 -38.5l100 -64q35 -22 57 -46.5t32 -55.5t10 -75q-1 -85 -48.5 -130t-141.5 -45zM216 -88q-9 0 -9 9v83l95 5v-88q0 -9 -9 -9h-77zM207 647v86q0 9 9 9h77q9 0 9 -9v-88z" />
    <glyph glyph-name="percent" unicode="%" horiz-adv-x="754" 
d="M190 0q-14 0 -8 14l156 331l135 304q3 7 12 7h80q7 0 8.5 -3.5t-1.5 -9.5l-148 -312l-144 -324q-3 -7 -11 -7h-79zM180 313q-68 0 -102 38.5t-34 100.5v72q0 62 34 100.5t102 38.5q69 0 102.5 -38.5t33.5 -100.5v-72q0 -62 -34 -100.5t-102 -38.5zM180 394
q27 0 39.5 14.5t12.5 43.5v73q0 29 -12.5 44t-39.5 15t-39.5 -15t-12.5 -44v-73q0 -29 12.5 -43.5t39.5 -14.5zM574 -8q-68 0 -102 38t-34 100v72q0 62 34 101t102 39q69 0 103 -39t34 -101v-72q0 -62 -34 -100t-103 -38zM574 71q28 0 40 15t12 44v73q0 29 -12 43.5
t-40 14.5q-27 0 -39 -14.5t-12 -43.5v-73q0 -29 12 -44t39 -15z" />
    <glyph glyph-name="ampersand" unicode="&#x26;" horiz-adv-x="530" 
d="M416 0q-9 0 -13 6l-273 346q-35 41 -51.5 83t-16.5 88q0 70 36.5 105t106.5 35q63 0 97.5 -33t34.5 -94q0 -34 -11.5 -66t-34.5 -64t-59 -68l-58 61q23 25 38 45t22.5 40t7.5 43q0 26 -9.5 39t-30.5 13q-24 0 -34.5 -13.5t-10.5 -42.5q0 -27 12.5 -57t37.5 -60l313 -392
q4 -6 2.5 -10t-8.5 -4h-98zM209 -8q-86 0 -130 45t-44 121q0 45 13 82.5t42 74t75 76.5l41 -75q-26 -29 -43 -53t-24.5 -47.5t-7.5 -52.5q0 -39 22 -62t63 -23q77 0 113.5 71.5t36.5 209.5q0 12 11 12h72q12 0 12 -12q0 -115 -29 -197.5t-85.5 -126t-137.5 -43.5z" />
    <glyph glyph-name="quotesingle" unicode="'" horiz-adv-x="181" 
d="M48 400q-11 0 -11 11v261q0 11 11 11h84q12 0 12 -11v-261q0 -11 -12 -11h-84z" />
    <glyph glyph-name="parenleft" unicode="(" horiz-adv-x="230" 
d="M138 -162q-33 32 -53.5 60.5t-30.5 63.5t-10 89v453q0 53 10.5 88.5t31 64t52.5 60.5q4 4 9 5t10 -5l51 -48q4 -4 3.5 -9t-4.5 -10q-21 -24 -35 -45t-21 -45.5t-7 -63.5v-438q0 -38 7 -63t21 -45.5t35 -45.5q4 -4 4.5 -9t-3.5 -9l-51 -49q-5 -5 -9.5 -4.5t-9.5 5.5z" />
    <glyph glyph-name="parenright" unicode=")" horiz-adv-x="231" 
d="M74 -163l-51 49q-8 8 1 18q21 24 35 45t21 46t7 63v438q0 39 -7 63.5t-20.5 45.5t-35.5 45q-9 10 -1 19l51 48q5 6 9.5 5t9.5 -5q32 -32 53 -60.5t31 -64t10 -88.5v-453q0 -54 -9.5 -89t-30.5 -63.5t-54 -60.5q-5 -5 -9.5 -5.5t-9.5 4.5z" />
    <glyph glyph-name="asterisk" unicode="*" horiz-adv-x="353" 
d="M123 426l-48 38q-4 4 -4 8.5t3 6.5l54 56l-77 14q-6 1 -8 4.5t-1 8.5l20 57q2 7 6 8t9 -2l69 -35l-7 83q-2 10 8 10h58q4 0 6 -3t2 -7l-7 -84l69 36q5 3 9.5 1.5t5.5 -7.5l20 -57q2 -5 -0.5 -8.5t-7.5 -4.5l-78 -16l53 -54q4 -3 3.5 -8t-3.5 -8l-50 -36q-9 -6 -15 5
l-37 65l-36 -67q-3 -5 -6.5 -6.5t-9.5 2.5z" />
    <glyph glyph-name="plus" unicode="+" horiz-adv-x="489" 
d="M210 139q-11 0 -11 12v104h-111q-12 0 -12 11v69q0 11 12 11h111v105q0 11 11 11h70q11 0 11 -11v-105h110q12 0 12 -11v-69q0 -11 -12 -11h-110v-104q0 -12 -11 -12h-70z" />
    <glyph glyph-name="comma" unicode="," horiz-adv-x="236" 
d="M32 -140q-12 0 -9 13l47 251q2 12 11 12h108q13 0 9 -15l-77 -252q-2 -9 -11 -9h-78z" />
    <glyph glyph-name="hyphen" unicode="-" horiz-adv-x="383" 
d="M56 223q-12 0 -12 11v64q0 10 12 10h271q11 0 11 -10v-64q0 -11 -11 -11h-271z" />
    <glyph glyph-name="period" unicode="." horiz-adv-x="228" 
d="M114 -8q-34 0 -53 17.5t-19 47.5v17q0 31 19 48t53 17q72 0 72 -65v-17q0 -30 -18 -47.5t-54 -17.5z" />
    <glyph glyph-name="slash" unicode="/" horiz-adv-x="328" 
d="M17 0q-12 0 -8 12l210 635q4 8 12 8h80q12 0 8 -12l-210 -635q-3 -8 -12 -8h-80z" />
    <glyph glyph-name="zero" unicode="0" horiz-adv-x="476" 
d="M238 -8q-96 0 -146 54t-50 157v249q0 103 50 157t146 54t146 -54t50 -157v-249q0 -103 -50 -157t-146 -54zM238 90q42 0 63.5 28.5t21.5 84.5v249q0 57 -21.5 85t-63.5 28t-63.5 -28t-21.5 -85v-249q0 -56 21.5 -84.5t63.5 -28.5z" />
    <glyph glyph-name="one" unicode="1" horiz-adv-x="391" 
d="M39 0q-11 0 -11 11v75q0 13 11 13h115l1 436l-111 -38q-5 -2 -8.5 0.5t-3.5 7.5v74q0 10 9 13l179 65q4 1 7.5 1.5t7.5 0.5h19q11 0 11 -11v-549h105q11 0 11 -13v-75q0 -11 -11 -11h-331z" />
    <glyph glyph-name="two" unicode="2" horiz-adv-x="437" 
d="M49 0q-11 0 -11 11v75q0 56 18 98t46.5 73.5t60.5 57.5t61 51t47 53.5t18 65.5v15q0 36 -16.5 51.5t-51.5 15.5q-38 0 -54 -21.5t-15 -63.5q0 -11 -12 -11h-81q-11 0 -11 11q-4 88 41.5 134.5t135.5 46.5q87 0 131 -40.5t44 -124.5q0 -49 -13 -85t-34.5 -63t-47.5 -50
t-52 -43.5t-47.5 -43t-34.5 -50t-13 -64.5h228q11 0 11 -13v-75q0 -11 -11 -11h-337z" />
    <glyph glyph-name="three" unicode="3" horiz-adv-x="448" 
d="M215 -8q-96 0 -138.5 49t-38.5 134q0 10 12 10h81q11 0 11 -10q0 -46 18 -66t58 -20q39 0 60 21.5t21 66.5v23q0 45 -20.5 66.5t-67.5 21.5h-46q-12 0 -12 11v70q0 11 12 11h43q40 0 60 22.5t20 67.5v23q0 39 -17.5 56.5t-53.5 17.5q-40 0 -57 -20t-17 -63q0 -12 -11 -12
h-81q-12 0 -12 12q-2 88 44.5 133.5t138.5 45.5q89 0 133 -41.5t44 -125.5q0 -59 -21 -98t-57 -56v-2q44 -17 66.5 -55t22.5 -100q0 -95 -51 -144t-144 -49z" />
    <glyph glyph-name="four" unicode="4" horiz-adv-x="466" 
d="M290 0q-10 0 -10 11v110h-260q-12 0 -12 11v16q0 5 1 9.5t2 8.5l196 481q3 8 12 8h90q13 0 9 -13l-167 -423h129l13 205q1 11 11 11h73q11 0 11 -11v-205h47q12 0 12 -12v-75q0 -11 -12 -11h-47v-110q0 -11 -11 -11h-87z" />
    <glyph glyph-name="five" unicode="5" horiz-adv-x="439" 
d="M205 -8q-62 0 -102 22t-58 63t-15 96q1 11 12 11h81q12 0 12 -11q-1 -38 16.5 -61t57.5 -23q45 0 64.5 25.5t19.5 79.5v31q0 35 -9 58t-28.5 34t-51.5 11t-69.5 -10t-71.5 -24q-10 -4 -14.5 -1t-3.5 11l24 340q1 11 12 11h277q12 0 12 -11v-75q0 -13 -12 -13h-194
l-11 -152q25 8 48 11.5t48 3.5q77 0 116 -50.5t39 -159.5q0 -107 -49 -162t-150 -55z" />
    <glyph glyph-name="six" unicode="6" horiz-adv-x="471" 
d="M238 -8q-99 0 -147.5 51t-48.5 158v254q0 102 50 155t147 53q83 0 130 -38t47 -111q0 -12 -11 -12h-82q-11 0 -11 12q0 26 -18.5 39.5t-52.5 13.5q-45 0 -66.5 -24t-21.5 -81v-265q0 -55 20 -82t63 -27q44 0 65 29t21 92v20q0 51 -16.5 73.5t-53.5 22.5q-28 0 -56 -12.5
t-56 -35.5v85q35 27 73 41t77 14q74 0 109 -47t35 -145q0 -116 -48.5 -174.5t-147.5 -58.5z" />
    <glyph glyph-name="seven" unicode="7" horiz-adv-x="436" 
d="M109 0q-6 0 -8 4.5t0 9.5l189 544h-155v-71q0 -12 -12 -12h-82q-12 0 -12 12v157q0 11 12 11h382q11 0 11 -10v-8q0 -4 -0.5 -7t-2.5 -8l-213 -613q-3 -9 -13 -9h-96z" />
    <glyph glyph-name="eight" unicode="8" horiz-adv-x="473" 
d="M236 -8q-100 0 -151.5 46t-51.5 138q0 65 24.5 109t69.5 65q-36 21 -54 56t-18 88q0 81 46.5 125t134.5 44t134.5 -44t46.5 -125q0 -53 -17.5 -88t-54.5 -56q46 -21 70 -65t24 -109q0 -92 -51.5 -138t-151.5 -46zM236 84q48 0 70 23.5t22 72.5v19q0 54 -23 80.5t-69 26.5
q-45 0 -68.5 -26.5t-23.5 -80.5v-19q0 -49 22.5 -72.5t69.5 -23.5zM236 388q36 0 54 21t18 62v22q0 41 -17.5 61t-54.5 20q-35 0 -53.5 -20t-18.5 -61v-22q0 -41 18.5 -62t53.5 -21z" />
    <glyph glyph-name="nine" unicode="9" horiz-adv-x="474" 
d="M235 -8q-88 0 -134.5 42t-46.5 120q0 13 12 13h81q12 0 12 -13q0 -28 18 -47t57 -19q45 0 66 25t21 82v261q0 56 -20.5 84t-64.5 28t-64.5 -27.5t-20.5 -91.5v-23q0 -50 18.5 -74.5t55.5 -24.5q27 0 55 12.5t55 36.5v-85q-35 -27 -71.5 -41t-75.5 -14q-75 0 -111.5 49.5
t-36.5 149.5q0 118 48.5 173t147.5 55q100 0 148 -52.5t48 -158.5v-249q0 -106 -49 -158.5t-148 -52.5z" />
    <glyph glyph-name="colon" unicode=":" horiz-adv-x="224" 
d="M111 334q-32 0 -50.5 17.5t-18.5 46.5v17q0 30 18.5 47t50.5 17q35 0 52.5 -17t17.5 -47v-17q0 -29 -17.5 -46.5t-52.5 -17.5zM111 -8q-32 0 -50.5 17.5t-18.5 46.5v17q0 29 18.5 46t50.5 17q35 0 52.5 -17t17.5 -46v-17q0 -29 -17.5 -46.5t-52.5 -17.5z" />
    <glyph glyph-name="semicolon" unicode=";" horiz-adv-x="236" 
d="M21 -140q-12 0 -9 13l47 252q2 11 11 11h108q6 0 9 -4t1 -11l-78 -252q-1 -9 -11 -9h-78zM121 334q-32 0 -50.5 17.5t-18.5 46.5v17q0 30 18.5 47t50.5 17q35 0 52.5 -17t17.5 -47v-17q0 -29 -17.5 -46.5t-52.5 -17.5z" />
    <glyph glyph-name="less" unicode="&#x3c;" horiz-adv-x="489" 
d="M399 108l-312 143q-8 5 -8 13v66q0 9 8 14l312 142q6 3 9 0t3 -9v-86q0 -10 -8 -14l-214 -79l214 -81q8 -4 8 -14v-86q0 -5 -3 -8.5t-9 -0.5z" />
    <glyph glyph-name="equal" unicode="=" horiz-adv-x="489" 
d="M86 339q-11 0 -11 12v68q0 11 11 11h317q11 0 11 -11v-68q0 -12 -11 -12h-317zM86 172q-11 0 -11 11v68q0 12 11 12h317q11 0 11 -12v-68q0 -11 -11 -11h-317z" />
    <glyph glyph-name="greater" unicode="&#x3e;" horiz-adv-x="489" 
d="M90 108q-5 -3 -8 0.5t-3 8.5v86q0 10 8 14l214 81l-214 79q-8 4 -8 14v86q0 6 3 9t9 0l312 -142q8 -4 8 -14v-66q0 -9 -8 -13z" />
    <glyph glyph-name="question" unicode="?" horiz-adv-x="397" 
d="M135 212q-8 0 -8 10v40q0 34 13 59.5t32 47.5t38.5 42.5t32.5 45t13 56.5q0 31 -13.5 44.5t-45.5 13.5q-37 0 -50 -24t-11 -70q0 -12 -10 -12h-82q-6 0 -8 4t-3 10q-4 93 38 138.5t129 45.5q86 0 126.5 -35.5t40.5 -104.5q0 -44 -13 -77.5t-32 -58.5t-38.5 -46t-33 -42
t-13.5 -44v-33q0 -10 -10 -10h-92zM185 -8q-33 0 -50.5 16t-17.5 46v16q0 32 17.5 47.5t50.5 15.5t50 -15.5t17 -47.5v-16q0 -30 -17 -46t-50 -16z" />
    <glyph glyph-name="at" unicode="@" horiz-adv-x="769" 
d="M382 -185q-116 0 -193 42.5t-116 126t-39 203.5v118q0 121 39.5 207.5t118 132.5t192.5 46q115 0 193 -42.5t118 -123.5t40 -196v-51q0 -121 -51 -188t-138 -67q-45 0 -74.5 19.5t-42.5 54t-8 77.5l26 214q-11 5 -26.5 6.5t-31.5 1.5q-27 0 -42 -17.5t-20 -59.5l-16 -141
q-3 -35 5 -50.5t31 -15.5q22 0 46.5 19t47.5 46l18 -72q-39 -40 -75.5 -61.5t-76.5 -21.5q-52 0 -74 39t-14 108l18 156q8 77 44 116t104 39q42 0 76 -8.5t70 -12.5q11 -1 10 -13l-29 -254q-5 -43 5.5 -62.5t36.5 -19.5q39 0 59.5 40.5t20.5 127.5v49q0 134 -61.5 204
t-188.5 70q-82 0 -137.5 -33.5t-84 -100t-28.5 -166.5v-110q0 -97 27 -160t83 -94.5t142 -31.5h110q11 0 11 -10v-69q0 -11 -11 -11h-114z" />
    <glyph glyph-name="A" unicode="A" horiz-adv-x="476" 
d="M8 0q-11 0 -8 12l165 635q3 8 12 8h121q9 0 13 -8l166 -635q2 -12 -9 -12h-101q-8 0 -12 8l-90 406q-8 34 -14.5 67.5t-12.5 66.5h-2q-7 -33 -13.5 -66.5t-13.5 -67.5l-91 -405q-1 -9 -11 -9h-99zM130 140l19 94h174l20 -94h-213z" />
    <glyph glyph-name="B" unicode="B" horiz-adv-x="475" 
d="M66 0q-11 0 -11 11v633q0 11 11 11h157q100 0 149.5 -40.5t49.5 -121.5q0 -54 -21.5 -89t-67.5 -57v-2q55 -14 83.5 -53.5t28.5 -104.5q0 -96 -52.5 -141.5t-164.5 -45.5h-162zM167 95h63q53 0 78 24t25 76q0 49 -25 73.5t-78 24.5h-63v-198zM167 380h56q45 0 66.5 23.5
t21.5 69.5t-22 66.5t-71 20.5h-51v-180z" />
    <glyph glyph-name="C" unicode="C" horiz-adv-x="513" 
d="M259 -8q-104 0 -159.5 56.5t-55.5 171.5v214q0 114 55.5 171.5t159.5 57.5q72 0 122 -28t73 -79.5t14 -121.5q0 -12 -10 -12h-92q-10 0 -10 12q5 62 -19 95t-77 33q-51 0 -77 -31.5t-26 -99.5v-206q0 -69 26.5 -100.5t76.5 -31.5q55 0 78 35t20 93q-2 12 9 12h91
q10 0 11 -12q9 -106 -46 -167.5t-164 -61.5z" />
    <glyph glyph-name="D" unicode="D" horiz-adv-x="517" 
d="M66 0q-11 0 -11 11v633q0 11 10 11h160q127 0 190.5 -69.5t63.5 -208.5v-78q0 -151 -63 -225t-188 -74h-162zM167 100h55q75 0 109.5 48.5t34.5 148.5v81q0 89 -35 133t-112 44h-52v-455z" />
    <glyph glyph-name="E" unicode="E" horiz-adv-x="434" 
d="M65 0q-10 0 -10 11v633q0 11 10 11h313q10 0 10 -11v-79q0 -11 -10 -11h-211v-174h193q10 0 10 -11v-74q0 -11 -10 -11h-193v-183h211q10 0 10 -11v-79q0 -11 -10 -11h-313z" />
    <glyph glyph-name="F" unicode="F" horiz-adv-x="419" 
d="M64 0q-9 0 -9 11v633q0 11 10 11h313q10 0 10 -11v-79q0 -11 -10 -11h-211v-184h182q10 0 10 -11v-75q0 -12 -10 -12h-182v-261q0 -11 -10 -11h-93z" />
    <glyph glyph-name="G" unicode="G" horiz-adv-x="525" 
d="M233 -8q-89 0 -139 56t-50 165v222q0 111 56 169.5t160 58.5q71 0 119 -26.5t71.5 -75t16.5 -113.5q0 -11 -10 -11h-92q-11 0 -10 12q4 53 -19.5 83t-73.5 30q-53 0 -79 -31t-26 -98v-213q0 -67 24 -97t77 -30q51 0 77 31t26 91v40h-94q-10 0 -10 11v64q0 11 10 11h193
q10 0 10 -11v-184q0 -43 1.5 -75.5t5.5 -58.5q2 -12 -10 -12h-73q-9 0 -11 10q-2 12 -3.5 28.5t-2.5 37.5h-1q-13 -26 -32.5 -45t-46.5 -29t-64 -10z" />
    <glyph glyph-name="H" unicode="H" horiz-adv-x="533" 
d="M65 0q-10 0 -10 11v633q0 11 10 11h92q10 0 10 -11v-259h198v259q0 11 11 11h91q11 0 11 -11v-633q0 -11 -11 -11h-91q-11 0 -11 11v273h-198v-273q0 -11 -10 -11h-92z" />
    <glyph glyph-name="I" unicode="I" horiz-adv-x="222" 
d="M65 0q-10 0 -10 11v633q0 11 10 11h92q10 0 10 -11v-633q0 -11 -10 -11h-92z" />
    <glyph glyph-name="J" unicode="J" horiz-adv-x="225" 
d="M28 -151q-13 -3 -16 8l-23 76q-2 6 0.5 10.5t8.5 5.5q20 6 33 20.5t20 42.5t7 71v561q0 11 10 11h93q9 0 9 -11v-556q0 -74 -15.5 -123.5t-47 -77.5t-79.5 -38z" />
    <glyph glyph-name="K" unicode="K" horiz-adv-x="493" 
d="M65 0q-10 0 -10 11v633q0 11 10 11h92q10 0 10 -11v-164q0 -20 -0.5 -43t-1.5 -47t-3 -45h3q14 30 30.5 63t35.5 67l111 175q2 5 12 5h108q6 0 7.5 -3.5t-1.5 -10.5l-162 -255l180 -372q3 -6 1 -10t-8 -4h-111q-8 0 -12 7l-128 281l-61 -89v-188q0 -11 -10 -11h-92z" />
    <glyph glyph-name="L" unicode="L" horiz-adv-x="393" 
d="M65 0q-10 0 -10 11v633q0 11 10 11h92q5 0 7.5 -3t2.5 -8v-543h201q9 0 9 -11v-79q0 -11 -9 -11h-303z" />
    <glyph glyph-name="M" unicode="M" horiz-adv-x="632" 
d="M55 0q-11 0 -11 11l11 633q0 11 10 11h119q9 0 12 -8l121 -353l119 353q4 8 12 8h119q10 0 10 -11l11 -633q0 -11 -11 -11h-90q-10 0 -10 11l-5 319q-1 43 0.5 82.5t4.5 76.5h-3q-10 -34 -22 -69t-25 -68l-98 -265q-3 -8 -11 -8h-5q-8 0 -10 8l-99 267q-13 33 -24.5 67.5
t-21.5 67.5h-2q2 -36 3.5 -75.5t0.5 -82.5l-5 -320q0 -11 -10 -11h-90z" />
    <glyph glyph-name="N" unicode="N" horiz-adv-x="534" 
d="M64 0q-9 0 -9 11v633q0 11 10 11h127q8 0 11 -7l117 -327q11 -27 21.5 -58.5t19.5 -61t16 -53.5h2q-2 27 -3.5 62t-2.5 71t-1 62v301q0 11 10 11h87q11 0 11 -11v-633q0 -11 -11 -11h-125q-8 0 -12 7l-116 318q-17 46 -31 92.5t-26 86.5h-2q2 -29 2.5 -65.5t1.5 -72.5
t1 -66v-289q0 -11 -10 -11h-88z" />
    <glyph glyph-name="O" unicode="O" horiz-adv-x="520" 
d="M259 -8q-105 0 -160 57t-55 166v224q0 110 55 167t160 57q107 0 162 -57t55 -167v-224q0 -109 -55 -166t-162 -57zM259 93q52 0 78 31t26 96v214q0 66 -26 97t-78 31q-50 0 -76 -31t-26 -97v-214q0 -65 26 -96t76 -31z" />
    <glyph glyph-name="P" unicode="P" horiz-adv-x="452" 
d="M65 0q-10 0 -10 11v633q0 11 10 11h149q107 0 158.5 -53t51.5 -159q0 -102 -52 -156.5t-156 -54.5h-49v-221q0 -11 -10 -11h-92zM167 331h46q51 0 75 27t24 83q0 61 -24 87.5t-74 26.5h-47v-224z" />
    <glyph glyph-name="Q" unicode="Q" horiz-adv-x="520" 
d="M363 -182q-61 0 -92 49.5t-30 165.5q0 11 11 11l78 1q9 0 9 -12q0 -72 10.5 -98t34.5 -26q9 0 15.5 1.5t13.5 3.5q10 2 10 -10v-62q0 -11 -8 -15q-8 -3 -21.5 -6t-30.5 -3zM259 -8q-105 0 -160 57t-55 166v224q0 110 55 167t160 57q107 0 162 -57t55 -167v-224
q0 -109 -55 -166t-162 -57zM259 93q52 0 78 31t26 96v214q0 66 -26 97t-78 31q-50 0 -76 -31t-26 -97v-214q0 -65 26 -96t76 -31z" />
    <glyph glyph-name="R" unicode="R" horiz-adv-x="491" 
d="M65 0q-10 0 -10 11v633q0 11 10 11h165q108 0 159 -47.5t51 -144.5q0 -70 -25 -115.5t-73 -64.5v-1l126 -268q6 -14 -7 -14h-103q-8 0 -12 7l-113 257h-66v-253q0 -11 -10 -11h-92zM167 358h62q52 0 75.5 24.5t23.5 75.5q0 53 -23 75t-74 22h-64v-197z" />
    <glyph glyph-name="S" unicode="S" horiz-adv-x="452" 
d="M221 -8q-107 0 -152 52t-37 142q1 14 11 14h90q10 0 9 -14q-2 -47 18.5 -71.5t63.5 -24.5t62.5 18.5t19.5 57.5q0 21 -5.5 37t-18 29.5t-33.5 25.5l-107 64q-57 34 -81.5 74.5t-23.5 101.5q1 80 47 122.5t135 42.5q99 0 148 -49t41 -139q-2 -16 -11 -16h-91q-11 0 -9 16
q3 41 -16.5 65.5t-58.5 24.5q-35 0 -53.5 -16.5t-19.5 -50.5q-1 -31 13.5 -51.5t46.5 -38.5l105 -62q38 -23 61 -48t33.5 -56.5t9.5 -75.5q0 -84 -47 -129t-150 -45z" />
    <glyph glyph-name="T" unicode="T" horiz-adv-x="435" 
d="M172 0q-11 0 -11 11v543h-131q-10 0 -10 11v79q0 11 10 11h375q10 0 10 -11v-79q0 -11 -10 -11h-131v-543q0 -11 -10 -11h-92z" />
    <glyph glyph-name="U" unicode="U" horiz-adv-x="520" 
d="M261 -8q-105 0 -158 57.5t-53 173.5v421q0 11 11 11h92q10 0 10 -11v-419q0 -68 24 -100t74 -32t73.5 31.5t23.5 100.5v419q0 11 10 11h92q10 0 10 -11v-422q0 -114 -53 -172t-156 -58z" />
    <glyph glyph-name="V" unicode="V" horiz-adv-x="490" 
d="M181 0q-7 0 -11 9l-160 633q-3 13 8 13h101q9 0 11 -8l88 -397q7 -35 13.5 -70t11.5 -72h2q6 37 13 72l14 70l88 396q2 9 11 9h100q12 0 9 -12l-161 -635q-2 -8 -11 -8h-127z" />
    <glyph glyph-name="W" unicode="W" horiz-adv-x="699" 
d="M157 0q-9 0 -11 9l-133 633q-3 13 9 13h93q9 0 11 -9l65 -319q9 -51 15 -103t9 -103h2q6 35 13.5 69.5t15.5 68.5l58 250l-28 120q-1 6 1.5 9.5t7.5 3.5h91q8 0 10 -9l75 -372q7 -35 12.5 -70t10.5 -70h1q5 51 10.5 103t14.5 106l62 316q2 9 11 9h94q11 0 8 -13
l-132 -633q-2 -9 -10 -9h-110q-9 0 -11 9l-43 218q-7 34 -13.5 66.5t-11.5 64.5h-3q-6 -32 -12.5 -64t-15.5 -66l-49 -219q-2 -9 -11 -9h-106z" />
    <glyph glyph-name="X" unicode="X" horiz-adv-x="466" 
d="M10 0q-13 0 -6 14l163 323l-154 304q-2 7 -0.5 10.5t7.5 3.5h109q8 0 10 -6l60 -132q9 -23 18 -46.5t17 -46.5h2q8 23 17.5 47.5t18.5 47.5l57 129q3 7 11 7h107q13 0 6 -14l-153 -305l162 -322q3 -6 1.5 -10t-8.5 -4h-110q-7 0 -11 7l-63 143q-10 24 -19.5 49t-18.5 49
h-2q-8 -24 -18 -49t-19 -48l-65 -143q-3 -8 -12 -8h-107z" />
    <glyph glyph-name="Y" unicode="Y" horiz-adv-x="461" 
d="M184 0q-10 0 -10 11v214l-167 416q-2 7 0 10.5t7 3.5h104q10 0 11 -8l65 -192q10 -30 19 -59.5t18 -58.5h1q8 30 17.5 59.5t19.5 58.5l64 193q2 7 11 7h102q6 0 8 -3.5t0 -10.5l-167 -415v-215q0 -11 -10 -11h-93z" />
    <glyph glyph-name="Z" unicode="Z" horiz-adv-x="442" 
d="M21 0q-9 0 -9 10v5q0 7 3 14l204 420q12 27 25.5 53.5t26.5 50.5v2q-22 -1 -45.5 -1h-46.5h-134q-10 0 -10 11v79q0 11 10 11h373q10 0 10 -10v-5q0 -3 -0.5 -6.5t-2.5 -7.5l-207 -425q-13 -25 -26 -50.5t-26 -49.5v-1q25 1 48 1h47h138q10 0 10 -11v-79q0 -11 -10 -11
h-378z" />
    <glyph glyph-name="bracketleft" unicode="[" horiz-adv-x="225" 
d="M56 -162q-12 0 -12 12v855q0 12 12 12h161q12 0 12 -12v-64q0 -11 -12 -11h-73v-705h73q12 0 12 -11v-64q0 -12 -12 -12h-161z" />
    <glyph glyph-name="backslash" unicode="\" horiz-adv-x="328" 
d="M231 0q-8 0 -12 8l-210 634q-4 13 9 13h79q9 0 12 -8l210 -634q4 -13 -8 -13h-80z" />
    <glyph glyph-name="bracketright" unicode="]" horiz-adv-x="225" 
d="M7 -162q-12 0 -12 12v64q0 11 12 11h74v705h-74q-12 0 -12 11v64q0 12 12 12h162q11 0 11 -12v-855q0 -12 -11 -12h-162z" />
    <glyph glyph-name="asciicircum" unicode="^" horiz-adv-x="418" 
d="M39 350q-13 0 -7 13l131 313q3 7 12 7h69q8 0 12 -7l131 -312q2 -6 0 -10t-7 -4h-83q-9 0 -12 7l-75 221l-78 -221q-1 -7 -11 -7h-82z" />
    <glyph glyph-name="underscore" unicode="_" horiz-adv-x="423" 
d="M21 -145q-11 0 -11 12v63q0 12 11 12h381q12 0 12 -12v-63q0 -12 -12 -12h-381z" />
    <glyph glyph-name="grave" unicode="`" horiz-adv-x="230" 
d="M129 557q-9 0 -15 8l-82 124q-3 5 -1.5 9t7.5 4h81q8 0 13 -9l66 -124q6 -12 -6 -12h-63z" />
    <glyph glyph-name="a" unicode="a" horiz-adv-x="409" 
d="M280 0q-8 0 -11 11q-2 14 -4.5 39.5t-3.5 46.5l-8 22v229q0 37 -11 50.5t-41 13.5q-54 0 -50 -57q1 -11 -11 -11h-80q-11 0 -12 15q-6 68 35 105t122 37q83 0 120.5 -36.5t37.5 -117.5v-222q0 -40 1 -67t3 -46q2 -12 -10 -12h-77zM133 -8q-49 0 -76 35t-27 99
q0 72 37 111t125 48l72 8l-1 -68l-54 -6q-39 -5 -55.5 -23.5t-16.5 -55.5q0 -30 9 -45t28 -15q21 0 42.5 15t51.5 53l7 -71q-38 -43 -70 -64t-72 -21z" />
    <glyph glyph-name="b" unicode="b" horiz-adv-x="434" 
d="M225 -8q-49 0 -89.5 8t-88.5 12v660q0 11 10 11h89q11 0 11 -11v-579q13 -4 28 -6t30 -2q35 0 51.5 21.5t16.5 68.5v165q0 33 -11 48t-35 15q-21 0 -44 -14.5t-50 -42.5l-2 82q37 38 71.5 55.5t69.5 17.5q57 0 84 -35t27 -108v-188q0 -92 -41 -135t-127 -43z" />
    <glyph glyph-name="c" unicode="c" horiz-adv-x="422" 
d="M218 -8q-89 0 -134.5 46.5t-45.5 138.5v140q0 90 46 137t133 47q55 0 93.5 -20.5t57.5 -58t15 -86.5q-1 -17 -11 -17h-81q-10 0 -10 13q2 36 -14.5 53.5t-47.5 17.5q-36 0 -53.5 -20.5t-17.5 -70.5v-130q0 -50 17 -71.5t53 -21.5q32 0 47.5 18t14.5 53q0 14 10 14h82
q11 0 11 -12q1 -83 -40.5 -126.5t-124.5 -43.5z" />
    <glyph glyph-name="d" unicode="d" horiz-adv-x="436" 
d="M152 -8q-56 0 -84 36t-28 111v195q0 84 35.5 125.5t100.5 41.5q30 0 61.5 -8.5t53.5 -21.5l1 -86q-21 11 -42 16.5t-38 5.5q-31 0 -46.5 -20.5t-15.5 -62.5v-173q0 -32 11.5 -47t35.5 -15t46 15t48 46l10 -71q-32 -40 -68 -63.5t-81 -23.5zM307 0q-10 0 -11 11
q-3 17 -5 42t-2 42l-10 28v549q0 11 11 11h89q10 0 10 -11v-548q0 -34 1 -63t3 -48q2 -13 -9 -13h-77z" />
    <glyph glyph-name="e" unicode="e" horiz-adv-x="427" 
d="M216 -8q-89 0 -133.5 44t-44.5 135v147q0 91 44.5 137t131.5 46q88 0 131.5 -46t43.5 -137v-87q0 -11 -10 -11h-232v-49q0 -47 16.5 -68t53.5 -21q30 0 45 13t14 41q0 11 10 11h86q8 0 10 -11q1 -71 -40.5 -107.5t-125.5 -36.5zM147 295h134v31q0 44 -16 64.5t-49 20.5
q-36 0 -52.5 -20.5t-16.5 -64.5v-31z" />
    <glyph glyph-name="f" unicode="f" horiz-adv-x="312" 
d="M92 0q-5 0 -7.5 3t-2.5 8v385h-56q-10 0 -10 11v74q0 11 10 11h56v48q0 75 34 113t102 38q29 0 53.5 -4t38.5 -9q10 -5 10 -14v-68q0 -14 -15 -8q-13 4 -28 8t-32 4q-27 0 -40 -15.5t-13 -48.5v-44h90q11 0 11 -11v-74q0 -11 -11 -11h-90v-385q0 -5 -3 -8t-8 -3h-89z" />
    <glyph glyph-name="g" unicode="g" horiz-adv-x="421" 
d="M205 -193q-98 0 -143 29.5t-45 89.5q0 40 19 69.5t57 48.5l79 -26q-22 -10 -33.5 -28t-11.5 -40q0 -29 19 -41.5t64 -13.5q51 0 69.5 13.5t18.5 44.5q0 26 -11 38.5t-38 13.5l-118 9q-41 4 -64 27.5t-23 63.5q0 36 19.5 59.5t49.5 40.5l63 -32q-19 -6 -28 -17t-9 -23
t8.5 -20t28.5 -10l108 -9q63 -5 91.5 -39t28.5 -103q0 -76 -47 -110.5t-152 -34.5zM213 159q-83 0 -121.5 41t-38.5 130q0 88 38 129.5t123 41.5q84 0 121 -41.5t37 -129.5q0 -90 -37.5 -130.5t-121.5 -40.5zM213 246q32 0 44 18t12 64q0 48 -12 66.5t-44 18.5t-43.5 -18.5
t-11.5 -66.5q0 -46 11.5 -64t43.5 -18zM324 450l-76 31q1 41 4 73t7 55q2 11 10 11h70q12 0 9 -11q-8 -37 -14 -73.5t-10 -85.5z" />
    <glyph glyph-name="h" unicode="h" horiz-adv-x="445" 
d="M298 0q-10 0 -10 11v332q0 32 -11 46t-35 14q-23 0 -46 -15t-49 -43l-10 68q32 40 69.5 64t81.5 24q55 0 82.5 -34.5t27.5 -107.5v-348q0 -11 -10 -11h-90zM57 0q-10 0 -10 11v661q0 11 10 11h89q11 0 11 -11v-661q0 -11 -11 -11h-89z" />
    <glyph glyph-name="i" unicode="i" horiz-adv-x="203" 
d="M57 0q-10 0 -10 11v470q0 11 10 11h89q11 0 11 -11v-470q0 -11 -11 -11h-89zM102 564q-31 0 -48 16t-17 44v14q0 28 17 44.5t48 16.5q32 0 48.5 -16.5t16.5 -44.5v-14q0 -28 -16.5 -44t-48.5 -16z" />
    <glyph glyph-name="j" unicode="j" horiz-adv-x="200" 
d="M53 -189q-8 -5 -14 3l-51 63q-9 9 0 16q20 17 32.5 41t18.5 57.5t6 80.5v409q0 11 10 11h89q11 0 11 -11v-412q0 -64 -9.5 -112.5t-31.5 -83.5t-61 -62zM101 564q-31 0 -48 16t-17 44v14q0 28 17 44.5t48 16.5q32 0 48.5 -16.5t16.5 -44.5v-14q0 -28 -16.5 -44t-48.5 -16
z" />
    <glyph glyph-name="k" unicode="k" horiz-adv-x="422" 
d="M57 0q-10 0 -10 11v661q0 11 10 11h89q11 0 11 -11v-250q0 -32 -1 -66.5t-3 -67.5h2q13 24 26 47.5t28 46.5l70 104q4 6 11 6h105q7 0 8 -4t-2 -9l-128 -187l139 -278q3 -6 1 -10t-8 -4h-103q-8 0 -12 7l-93 198l-40 -54v-140q0 -11 -10 -11h-90z" />
    <glyph glyph-name="l" unicode="l" horiz-adv-x="203" 
d="M57 0q-10 0 -10 11v661q0 11 10 11h89q11 0 11 -11v-661q0 -11 -11 -11h-89z" />
    <glyph glyph-name="m" unicode="m" horiz-adv-x="663" 
d="M57 0q-10 0 -10 11v356q0 35 -1 63.5t-3 48.5q-1 13 10 13h78q8 0 10 -9q2 -13 3.5 -27.5t2.5 -30.5q30 35 62 55.5t74 20.5q37 0 60.5 -18t34.5 -55q31 34 63 53.5t70 19.5q52 0 79 -34.5t27 -103.5v-352q0 -11 -10 -11h-90q-10 0 -10 11v336q0 29 -10 42.5t-31 13.5
q-19 0 -38 -12t-41 -35v-345q0 -11 -10 -11h-90q-10 0 -10 11v336q0 29 -10 42.5t-31 13.5q-19 0 -38 -12t-41 -35v-345q0 -11 -11 -11h-89z" />
    <glyph glyph-name="n" unicode="n" horiz-adv-x="445" 
d="M299 0q-11 0 -11 11v332q0 32 -11 46t-36 14q-22 0 -44.5 -14.5t-49.5 -43.5l-11 68q33 40 70 64t82 24q55 0 82.5 -34.5t27.5 -107.5v-348q0 -11 -10 -11h-89zM57 0q-10 0 -10 11v356q0 35 -1 63.5t-3 48.5q-1 13 9 13h78q9 0 11 -10q2 -16 4.5 -43t3.5 -45l8 -28v-355
q0 -11 -11 -11h-89z" />
    <glyph glyph-name="o" unicode="o" horiz-adv-x="436" 
d="M218 -8q-87 0 -133.5 46t-46.5 136v144q0 90 46.5 136.5t133.5 46.5q86 0 132.5 -46.5t46.5 -136.5v-144q0 -90 -46 -136t-133 -46zM218 89q36 0 52.5 21.5t16.5 68.5v134q0 48 -16.5 69t-52.5 21t-53 -21t-17 -69v-134q0 -47 17 -68.5t53 -21.5z" />
    <glyph glyph-name="p" unicode="p" horiz-adv-x="433" 
d="M260 -8q-29 0 -61 8t-55 22l-1 87q18 -10 39.5 -17t40.5 -7q30 0 44.5 21.5t14.5 66.5v165q0 34 -10 49.5t-35 15.5q-22 0 -45 -15t-49 -44l-11 73q35 38 70.5 61t80.5 23q55 0 82 -35.5t27 -110.5v-188q0 -89 -33.5 -132t-98.5 -43zM57 -185q-10 0 -10 11v546
q0 32 -1 59t-3 48q-2 13 9 13h78q9 0 11 -10q2 -12 4 -33t3 -38l9 -41v-544q0 -11 -11 -11h-89z" />
    <glyph glyph-name="q" unicode="q" horiz-adv-x="435" 
d="M288 -185q-9 0 -9 11v573q-15 4 -31 6t-30 2q-36 0 -52 -20.5t-16 -65.5v-169q0 -34 11.5 -48.5t35.5 -14.5q22 0 45 14.5t49 44.5l1 -86q-32 -34 -67 -52t-73 -18q-57 0 -84.5 35t-27.5 108v192q0 89 42 131.5t125 42.5q51 0 93 -9t89 -12v-654q0 -11 -11 -11h-90z" />
    <glyph glyph-name="r" unicode="r" horiz-adv-x="309" 
d="M57 0q-10 0 -10 11v356q0 36 -1 63.5t-3 48.5q-2 13 9 13h79q8 0 10 -10q3 -18 5 -43t2 -43l9 -34v-351q0 -11 -11 -11h-89zM147 318l-6 96q16 23 36 42.5t42 32t45 12.5q7 0 12 -0.5t10 -2.5t6.5 -5t1.5 -9q0 -22 -0.5 -47t-2.5 -48q-1 -10 -11 -9q-6 1 -13 2t-15 1
q-17 0 -35.5 -8t-36.5 -22t-33 -35z" />
    <glyph glyph-name="s" unicode="s" horiz-adv-x="384" 
d="M190 -8q-84 0 -122 38.5t-33 116.5q1 12 11 12h83q9 0 9 -12q0 -36 11.5 -53t41.5 -17q27 0 40.5 13t13.5 39q0 21 -10.5 35.5t-33.5 28.5l-89 51q-38 23 -56.5 53t-18.5 75q0 63 38.5 96t114.5 33q81 0 119.5 -36t36.5 -102q-1 -11 -10 -11h-83q-5 0 -8 3t-2 10
q1 24 -11 37t-38 13q-24 0 -36 -10.5t-12 -30.5t9.5 -32.5t33.5 -26.5l85 -51q42 -25 61 -54.5t19 -76.5q0 -70 -41 -105.5t-123 -35.5z" />
    <glyph glyph-name="t" unicode="t" horiz-adv-x="330" 
d="M215 -8q-73 0 -103.5 37.5t-30.5 124.5v242h-56q-10 0 -10 11v74q0 11 10 11h59l11 119q2 11 11 11h75q9 0 9 -11l1 -119h106q11 0 11 -11v-74q0 -11 -11 -11h-106v-236q0 -38 11 -55t39 -17q14 0 28 3.5t28 8.5q12 5 12 -8v-74q0 -10 -9 -12q-16 -7 -38 -10.5t-47 -3.5z
" />
    <glyph glyph-name="u" unicode="u" horiz-adv-x="437" 
d="M154 -8q-56 0 -81.5 34.5t-25.5 107.5v347q0 11 10 11h89q11 0 11 -11v-331q0 -33 10 -47t30 -14q25 0 48 16.5t49 47.5l10 -71q-31 -40 -69 -65t-81 -25zM309 0q-10 0 -12 10q-3 18 -5 42.5t-2 42.5l-10 31v355q0 11 11 11h88q11 0 11 -11v-356q0 -34 1 -62.5t3 -50.5
q2 -12 -10 -12h-75z" />
    <glyph glyph-name="v" unicode="v" horiz-adv-x="418" 
d="M152 0q-9 0 -12 8l-123 472q-2 12 8 12h98q9 0 11 -10l51 -248q7 -32 12.5 -63.5t9.5 -64.5h2q5 33 11.5 64.5t12.5 64.5l52 247q3 10 11 10h97q11 0 8 -13l-123 -470q-3 -9 -12 -9h-114z" />
    <glyph glyph-name="w" unicode="w" horiz-adv-x="602" 
d="M142 0q-9 0 -12 9l-110 471q-3 12 8 12h94q10 0 11 -11l45 -239q7 -33 11.5 -66t8.5 -66h3q6 32 12.5 64.5t12.5 64.5l29 131l-18 99q-3 13 8 13h83q8 0 11 -10l42 -232q5 -33 10.5 -65.5t9.5 -64.5h3q4 33 9 66.5t11 65.5l45 239q2 11 11 11h95q11 0 8 -12l-111 -471
q-3 -9 -12 -9h-104q-9 0 -12 9l-19 92q-6 31 -11 64.5t-11 79.5h-3q-6 -46 -11.5 -79.5t-11.5 -64.5l-19 -92q-3 -9 -12 -9h-104z" />
    <glyph glyph-name="x" unicode="x" horiz-adv-x="417" 
d="M18 0q-6 0 -7.5 4t1.5 10l130 239l-121 226q-4 6 -1.5 9.5t7.5 3.5h101q10 0 12 -7l38 -83q7 -19 15 -39.5t15 -45.5h1q8 25 15.5 46.5t15.5 39.5l36 81q3 8 12 8h100q6 0 8 -3.5t-1 -9.5l-121 -225l131 -240q3 -6 1 -10t-8 -4h-102q-9 0 -12 7l-39 88q-9 21 -18 43
t-18 49h-2q-8 -27 -17 -49.5t-19 -43.5l-40 -87q-2 -7 -12 -7h-101z" />
    <glyph glyph-name="y" unicode="y" horiz-adv-x="416" 
d="M113 -185q-5 0 -7 4t0 9l51 175l-141 476q-4 13 8 13h98q8 0 11 -10l48 -200q8 -32 14.5 -68t11.5 -69h3q6 33 13 69t13 68l49 200q2 10 11 10h96q12 0 8 -13l-188 -656q-1 -8 -11 -8h-88z" />
    <glyph glyph-name="z" unicode="z" horiz-adv-x="385" 
d="M28 0q-10 0 -10 10v3q0 8 3 16l148 281q12 22 23.5 43t22.5 42v2q-20 -1 -38 -1h-37h-93q-9 0 -9 11v74q0 11 9 11h309q11 0 11 -9v-3q0 -9 -6 -21l-144 -273q-12 -22 -24 -44.5t-24 -44.5v-2q21 1 37 1h36h101q10 0 10 -11v-74q0 -11 -10 -11h-315z" />
    <glyph glyph-name="braceleft" unicode="{" horiz-adv-x="241" 
d="M230 -163q-58 0 -93 15.5t-50.5 53.5t-15.5 109v160q0 30 -7.5 43.5t-27.5 13.5h-16q-11 0 -11 11v68q0 11 11 11h16q20 0 27.5 14t7.5 43v161q0 71 15.5 109.5t50.5 53.5t93 15q12 0 12 -11v-64q0 -11 -12 -11q-24 0 -36.5 -7t-17 -24t-4.5 -47v-166q0 -43 -13.5 -72
t-43.5 -39q30 -9 43.5 -38t13.5 -73v-165q0 -30 4.5 -47t17 -24t36.5 -7q12 0 12 -11v-64q0 -11 -12 -11z" />
    <glyph glyph-name="bar" unicode="|" horiz-adv-x="219" 
d="M70 -185q-11 0 -11 11v993q0 11 11 11h79q11 0 11 -11v-993q0 -11 -11 -11h-79z" />
    <glyph glyph-name="braceright" unicode="}" horiz-adv-x="241" 
d="M10 -163q-12 0 -12 11v64q0 11 12 11q24 0 36.5 7t17.5 24t5 47v165q0 44 13.5 73t42.5 38q-29 10 -42.5 39t-13.5 72v166q0 30 -5 47t-17 24t-37 7q-12 0 -12 11v64q0 11 12 11q59 0 93.5 -15t50.5 -53.5t16 -109.5v-161q0 -29 7.5 -43t27.5 -14h16q11 0 11 -11v-68
q0 -11 -11 -11h-16q-20 0 -27.5 -13.5t-7.5 -43.5v-160q0 -71 -16 -109t-50 -53.5t-94 -15.5z" />
    <glyph glyph-name="asciitilde" unicode="~" horiz-adv-x="489" 
d="M314 239q-32 0 -51.5 8t-39 15t-50.5 7q-26 0 -51 -8t-37 -13q-9 -4 -9 7v71q0 8 5 10q11 6 35 15.5t58 9.5q33 0 53 -7t39.5 -14.5t49.5 -7.5q26 0 50.5 8.5t38.5 13.5q9 4 9 -7v-71q0 -7 -6 -12q-10 -6 -34 -15.5t-60 -9.5z" />
    <glyph glyph-name="uni00A0" unicode="&#xa0;" horiz-adv-x="156" 
 />
    <glyph glyph-name="exclamdown" unicode="&#xa1;" horiz-adv-x="222" 
d="M68 280h91q9 0 9 -11l9 -421q0 -11 -10 -11h-107q-10 0 -10 11l8 421q0 11 10 11zM113 500q34 0 51 -15.5t17 -46.5v-16q0 -31 -17 -47t-51 -16q-32 0 -50 16t-18 47v16q0 31 18 46.5t50 15.5z" />
    <glyph glyph-name="cent" unicode="&#xa2;" horiz-adv-x="511" 
d="M210 534v86q0 9 9 9h77q10 0 10 -9v-86h-96zM219 -38q-9 0 -9 10v86l96 -2v-84q0 -10 -10 -10h-77zM259 42q-88 0 -133.5 46.5t-45.5 138.5v140q0 90 46 137t133 47q55 0 93.5 -20.5t57.5 -58t15 -86.5q-1 -17 -11 -17h-81q-10 0 -10 13q1 36 -15 53.5t-48 17.5
q-36 0 -53 -20.5t-17 -70.5v-130q0 -50 17 -71.5t53 -21.5q32 0 47.5 18t14.5 53q0 14 10 14h82q11 0 11 -12q1 -83 -40.5 -126.5t-125.5 -43.5z" />
    <glyph glyph-name="sterling" unicode="&#xa3;" horiz-adv-x="511" 
d="M94 0q-12 0 -12 11v60q0 4 1 7.5t3 7.5q15 23 23 50t8 56v291q0 85 39 132.5t123 47.5q55 0 91 -18.5t53.5 -58t15.5 -102.5q-1 -12 -12 -12h-77q-12 0 -12 12q1 25 -3 43.5t-16 29.5t-34 11q-31 0 -44.5 -19.5t-13.5 -71.5v-270q0 -40 -7.5 -65t-22.5 -43h242
q12 0 12 -13v-75q0 -11 -12 -11h-345zM71 289q-12 0 -12 11v66q0 12 12 12h263q12 0 12 -12v-66q0 -11 -12 -11h-263z" />
    <glyph glyph-name="currency" unicode="&#xa4;" horiz-adv-x="513" 
d="M121 104q-7 -5 -13 1l-49 54q-6 7 1 13l53 53q-6 19 -10 41t-4 48t4 48.5t10 40.5l-53 53q-7 6 -1 13l49 54q6 6 13 1l48 -48q18 13 40 19.5t47 6.5q50 0 86 -26l50 48q5 6 12 -1l49 -54q6 -7 -1 -13l-54 -53q7 -18 11 -40.5t4 -48.5t-4 -48t-11 -41l54 -53q7 -6 1 -13
l-49 -54q-5 -6 -13 -1l-49 48q-36 -26 -86 -26q-25 0 -47 6.5t-40 19.5zM256 214q36 0 51 25t15 75q0 51 -15 75.5t-51 24.5t-51 -24.5t-15 -75.5q0 -50 15 -75t51 -25z" />
    <glyph glyph-name="yen" unicode="&#xa5;" horiz-adv-x="513" 
d="M210 0q-10 0 -10 11v214l-157 416q-2 7 0.5 10.5t7.5 3.5h104q7 0 10 -8l61 -199q8 -27 15.5 -55t14.5 -56h1q8 28 15 56t14 55l63 199q1 8 11 8h102q6 0 8 -3.5t0 -10.5l-158 -415v-215q0 -11 -10 -11h-92zM117 97q-12 0 -12 11v51q0 12 12 12h279q11 0 11 -12v-51
q0 -11 -11 -11h-279zM117 226q-12 0 -12 11v51q0 12 12 12h279q11 0 11 -12v-51q0 -11 -11 -11h-279z" />
    <glyph glyph-name="brokenbar" unicode="&#xa6;" horiz-adv-x="219" 
d="M70 318q-11 0 -11 11v416q0 11 11 11h79q11 0 11 -11v-416q0 -11 -11 -11h-79zM70 -111q-11 0 -11 11v416q0 11 11 11h79q11 0 11 -11v-416q0 -11 -11 -11h-79z" />
    <glyph glyph-name="section" unicode="&#xa7;" horiz-adv-x="394" 
d="M230 117l-25 67q30 8 46 26.5t16 47.5t-14 49t-42 42l-96 81q-31 24 -49.5 53.5t-18.5 75.5q0 64 39.5 97t116.5 33q79 0 118 -35t39 -103q0 -11 -11 -11h-80q-10 0 -10 11q1 25 -11 39.5t-42 14.5q-51 0 -51 -47q0 -21 9.5 -34.5t30.5 -30.5l113 -98q29 -25 46.5 -57.5
t17.5 -78.5q0 -60 -36.5 -97t-105.5 -45zM191 -118q-79 0 -117.5 36t-38.5 103q0 11 10 11h80q10 0 10 -11q0 -25 12.5 -39t41.5 -14q50 0 50 45q0 21 -9 35t-30 31l-113 97q-29 26 -47 58t-18 78q0 61 37 97.5t106 45.5l25 -67q-30 -8 -46 -27t-16 -47q0 -29 14 -49t42 -42
l95 -82q31 -24 49.5 -52t18.5 -76q0 -65 -39.5 -98t-116.5 -33z" />
    <glyph glyph-name="dieresis" unicode="&#xa8;" horiz-adv-x="335" 
d="M89 567q-28 0 -43.5 14.5t-15.5 40.5v14q0 27 15.5 41t43.5 14t43 -14t15 -41v-14q0 -26 -15 -40.5t-43 -14.5zM248 567q-29 0 -44 14.5t-15 40.5v14q0 27 15 41t44 14t43 -14t14 -41v-14q0 -26 -14 -40.5t-43 -14.5z" />
    <glyph glyph-name="copyright" unicode="&#xa9;" horiz-adv-x="547" 
d="M274 -8q-81 0 -132.5 27.5t-75 80t-23.5 127.5v150q0 75 23.5 127.5t75 80t132.5 27.5q82 0 133 -27.5t74.5 -80t23.5 -127.5v-150q0 -75 -23.5 -127.5t-74.5 -80t-133 -27.5zM274 55q83 0 123.5 41.5t40.5 127.5v156q0 86 -40.5 127.5t-123.5 41.5t-123.5 -41.5
t-40.5 -127.5v-156q0 -86 40.5 -127.5t123.5 -41.5zM275 129q-53 0 -80.5 30.5t-27.5 87.5v107q0 57 28 87.5t81 30.5q55 0 80.5 -31t25.5 -89q0 -9 -9 -9h-50q-8 0 -8 9q3 58 -39 58t-42 -58v-103q0 -57 42 -57q22 0 30.5 14.5t8.5 42.5q0 11 8 11h50q9 0 9 -10
q0 -57 -25.5 -89t-81.5 -32z" />
    <glyph glyph-name="ordfeminine" unicode="&#xaa;" horiz-adv-x="317" 
d="M110 314q-31 0 -51.5 23.5t-20.5 71.5q0 55 29.5 78.5t83.5 30.5l43 6v33q0 20 -7.5 30t-26.5 10q-37 0 -34 -34q1 -10 -8 -10h-57q-10 0 -10 12q-3 45 26 71.5t84 26.5q42 0 66 -12.5t35 -36t11 -56.5v-148q0 -24 1 -43.5t2 -35.5q0 -10 -8 -10h-56q-7 0 -8 9
q-2 5 -3 13.5t-3 17.5q-19 -20 -40 -33.5t-48 -13.5zM54 184q-10 0 -10 12v57q0 12 10 12h216q10 0 10 -12v-57q0 -12 -10 -12h-216zM141 379q12 0 25.5 8.5t27.5 22.5v63l-31 -5q-48 -5 -48 -50q0 -21 6.5 -30t19.5 -9z" />
    <glyph glyph-name="guillemotleft" unicode="&#xab;" horiz-adv-x="438" 
d="M303 89q-7 0 -12 7l-84 160q-1 3 -1 7.5t1 7.5l84 159q5 8 12 8h85q6 0 8.5 -3.5t-0.5 -9.5l-81 -162l80 -160q3 -6 1 -10t-8 -4h-85zM136 89q-7 0 -12 7l-84 160q-1 3 -1 7.5t1 7.5l84 159q5 8 12 8h86q6 0 7.5 -3.5t-0.5 -9.5l-80 -162l79 -160q3 -6 1 -10t-7 -4h-86z
" />
    <glyph glyph-name="logicalnot" unicode="&#xac;" horiz-adv-x="489" 
d="M331 126q-10 0 -10 11v118h-233q-12 0 -12 11v68q0 11 12 11h314q12 0 12 -11v-197q0 -11 -12 -11h-71z" />
    <glyph glyph-name="uni00AD" unicode="&#xad;" horiz-adv-x="383" 
d="M56 223q-12 0 -12 11v64q0 10 12 10h271q11 0 11 -10v-64q0 -11 -11 -11h-271z" />
    <glyph glyph-name="registered" unicode="&#xae;" horiz-adv-x="446" 
d="M223 303q-86 0 -131.5 47t-45.5 133v39q0 86 45.5 132.5t131.5 46.5q87 0 132.5 -47t45.5 -132v-39q0 -85 -45.5 -132.5t-132.5 -47.5zM223 355q60 0 92 30t32 96v42q0 67 -32 97t-92 30q-59 0 -90.5 -29t-31.5 -97v-43q0 -66 31.5 -96t90.5 -30zM166 396q-6 0 -6 7v202
q0 7 8 7h51q38 0 56.5 -16t18.5 -51q0 -23 -7.5 -37.5t-24.5 -23.5l34 -80q5 -8 -3 -8h-35q-5 0 -7 5l-30 74h-18v-72q0 -7 -6 -7h-31zM203 511h19q29 0 29 26v12q0 26 -30 26h-18v-64z" />
    <glyph glyph-name="macron" unicode="&#xaf;" horiz-adv-x="253" 
d="M41 571q-11 0 -11 10v64q0 11 11 11h171q11 0 11 -11v-64q0 -10 -11 -10h-171z" />
    <glyph glyph-name="degree" unicode="&#xb0;" horiz-adv-x="313" 
d="M157 393q-63 0 -94.5 34.5t-31.5 92.5v43q0 60 31.5 94t94.5 34q62 0 93.5 -34t31.5 -94v-43q0 -58 -31.5 -92.5t-93.5 -34.5zM157 467q46 0 46 56v38q0 28 -11 42t-35 14q-47 0 -47 -56v-38q0 -56 47 -56z" />
    <glyph glyph-name="plusminus" unicode="&#xb1;" horiz-adv-x="489" 
d="M210 182q-11 0 -11 11v102h-111q-12 0 -12 12v67q0 12 12 12h111v103q0 11 11 11h70q11 0 11 -11v-103h110q12 0 12 -12v-67q0 -12 -12 -12h-110v-102q0 -11 -11 -11h-70zM89 42q-11 0 -11 12v68q0 11 11 11h311q11 0 11 -11v-68q0 -12 -11 -12h-311z" />
    <glyph glyph-name="uni00B2" unicode="&#xb2;" horiz-adv-x="360" 
d="M61 348q-12 0 -12 11v57q0 42 17 71t41.5 49t50 37t42 35.5t16.5 44.5v9q0 17 -8 25.5t-28 8.5q-21 0 -30 -10.5t-8 -34.5q0 -12 -12 -12h-61q-12 0 -12 12q-3 61 31 92.5t95 31.5q62 0 93.5 -27.5t31.5 -85.5q0 -36 -11 -61t-28.5 -43t-37.5 -32.5t-38 -28.5t-29.5 -30
t-11.5 -37h144q12 0 12 -12v-59q0 -11 -12 -11h-235z" />
    <glyph glyph-name="uni00B3" unicode="&#xb3;" horiz-adv-x="360" 
d="M175 342q-50 1 -78.5 15.5t-39.5 43.5t-9 68q1 11 11 11h62q12 0 12 -11q0 -25 10 -35.5t32 -10.5q23 0 34.5 12t11.5 35v12q0 22 -11 32.5t-35 10.5h-30q-12 0 -12 13v50q0 11 12 11h26q23 0 33 12t10 35v11q0 18 -10 28t-32 10q-24 0 -32.5 -12t-7.5 -32q0 -12 -11 -12
h-60q-11 0 -12 12q-3 59 28 91.5t100 32.5q66 0 97 -27.5t31 -83.5q0 -36 -12 -59t-33 -38v-1q26 -12 39 -36t13 -60q0 -62 -35 -95t-102 -33z" />
    <glyph glyph-name="acute" unicode="&#xb4;" horiz-adv-x="230" 
d="M38 557q-12 0 -7 12l66 124q5 9 14 9h80q6 0 7.5 -4t-1.5 -9l-82 -124q-4 -8 -15 -8h-62z" />
    <glyph glyph-name="uni00B5" unicode="&#xb5;" horiz-adv-x="441" 
d="M57 -185q-10 0 -10 11v655q0 11 10 11h89q11 0 11 -11v-323q0 -35 11.5 -52t34.5 -17q20 0 40.5 12.5t36.5 34.5v345q0 11 11 11h88q11 0 11 -11v-360q0 -21 4.5 -28.5t17.5 -7.5q6 0 10.5 0.5t9.5 1.5q8 2 8 -8v-69q0 -9 -10 -13q-13 -2 -27 -3.5t-27 -1.5
q-35 0 -56 14.5t-27 46.5v1q-20 -27 -43 -43t-50 -16q-14 0 -26 5.5t-19 12.5v-187q0 -11 -11 -11h-87z" />
    <glyph glyph-name="paragraph" unicode="&#xb6;" horiz-adv-x="484" 
d="M162 -185q-12 0 -12 11v479h-24q-56 0 -83.5 35t-27.5 98v111q0 65 27.5 99.5t83.5 34.5h303q9 0 9 -11v-846q0 -11 -11 -11h-77q-11 0 -11 11v758h-89v-758q0 -11 -12 -11h-76z" />
    <glyph glyph-name="periodcentered" unicode="&#xb7;" horiz-adv-x="238" 
d="M121 190q-34 0 -53 17.5t-19 47.5v17q0 31 19 48t53 17q72 0 72 -65v-17q0 -30 -18 -47.5t-54 -17.5z" />
    <glyph glyph-name="cedilla" unicode="&#xb8;" horiz-adv-x="206" 
d="M87 -193q-14 0 -26.5 1t-22.5 3q-5 2 -6.5 3.5t-1.5 5.5v45q0 8 8 7q5 -1 11.5 -1.5t13.5 -0.5q16 0 23.5 6.5t7.5 18.5v10q0 14 -8 19t-22 5h-14q-7 0 -7 6q0 5 0.5 11t1.5 10l23 77q3 8 10 8h53q11 0 7 -12l-21 -62h6q25 0 39 -16t14 -45v-19q0 -39 -21.5 -59.5
t-67.5 -20.5z" />
    <glyph glyph-name="uni00B9" unicode="&#xb9;" horiz-adv-x="360" 
d="M66 348q-12 0 -12 11v59q0 12 12 12h71v241l-69 -23q-11 -4 -11 7v60q0 11 8 14l123 40q4 1 7.5 1.5t8.5 0.5h13q11 0 11 -11v-330h66q12 0 12 -12v-59q0 -11 -12 -11h-228z" />
    <glyph glyph-name="ordmasculine" unicode="&#xba;" horiz-adv-x="315" 
d="M157 314q-57 0 -88 33t-31 95v93q0 62 31 95t88 33q58 0 89 -33t31 -95v-93q0 -62 -31 -95t-89 -33zM55 184q-11 0 -11 12v57q0 12 11 12h204q11 0 11 -12v-57q0 -12 -11 -12h-204zM157 388q20 0 30.5 12.5t10.5 36.5v102q0 25 -10.5 37.5t-30.5 12.5q-19 0 -30 -12.5
t-11 -37.5v-102q0 -24 11 -36.5t30 -12.5z" />
    <glyph glyph-name="guillemotright" unicode="&#xbb;" horiz-adv-x="438" 
d="M216 89q-5 0 -7 4t0 10l80 160l-80 162q-3 6 -0.5 9.5t8.5 3.5h85q7 0 11 -8l84 -159q5 -8 0 -15l-84 -160q-6 -7 -11 -7h-86zM49 89q-5 0 -7 4t0 10l80 160l-80 162q-3 6 -0.5 9.5t7.5 3.5h86q7 0 12 -8l83 -159q5 -8 0 -15l-83 -160q-6 -7 -12 -7h-86z" />
    <glyph glyph-name="onequarter" unicode="&#xbc;" horiz-adv-x="851" 
d="M66 235q-12 0 -12 11v59q0 12 12 12h71v241l-69 -23q-11 -4 -11 7v60q0 11 8 14l123 40q4 1 7.5 1.5t8.5 0.5h13q11 0 11 -11v-330h66q12 0 12 -12v-59q0 -11 -12 -11h-228zM267 -33q-4 0 -6 3.5t-1 8.5l146 368l131 334q3 7 10 7h82q5 0 7 -3t0 -8l-144 -354l-134 -349
q-1 -7 -10 -7h-81zM714 0q-11 0 -11 11v61h-176q-12 0 -12 11v8q0 5 1.5 9.5t2.5 8.5l130 300q4 11 13 11h67q6 0 8.5 -3.5t-0.5 -10.5l-105 -255h73l7 123q0 12 11 12h55q12 0 12 -12v-122h25q10 0 10 -12v-57q0 -11 -10 -11h-25v-61q0 -11 -12 -11h-64z" />
    <glyph glyph-name="onehalf" unicode="&#xbd;" horiz-adv-x="883" 
d="M66 235q-12 0 -12 11v59q0 12 12 12h71v241l-69 -23q-11 -4 -11 7v60q0 11 8 14l123 40q4 1 7.5 1.5t8.5 0.5h13q11 0 11 -11v-330h66q12 0 12 -12v-59q0 -11 -12 -11h-228zM267 -33q-4 0 -6 3.5t-1 8.5l146 368l131 334q3 7 10 7h82q5 0 7 -3t0 -8l-144 -354l-134 -349
q-1 -7 -10 -7h-81zM584 0q-12 0 -12 11v57q0 42 17 71t41.5 49t50 37t42 35.5t16.5 44.5v9q0 17 -8 25.5t-28 8.5q-21 0 -30 -10.5t-8 -34.5q0 -12 -12 -12h-61q-12 0 -12 12q-3 61 31 92.5t95 31.5q62 0 93.5 -27.5t31.5 -85.5q0 -36 -11 -61t-28.5 -43t-37.5 -32.5
t-38 -28.5t-29.5 -30t-11.5 -37h144q12 0 12 -12v-59q0 -11 -12 -11h-235z" />
    <glyph glyph-name="threequarters" unicode="&#xbe;" horiz-adv-x="841" 
d="M175 229q-50 1 -78.5 15.5t-39.5 43.5t-9 68q1 11 11 11h62q12 0 12 -11q0 -25 10 -35.5t32 -10.5q23 0 34.5 12t11.5 35v12q0 22 -11 32.5t-35 10.5h-30q-12 0 -12 13v50q0 11 12 11h26q23 0 33 12t10 35v11q0 18 -10 28t-32 10q-24 0 -32.5 -12t-7.5 -32q0 -12 -11 -12
h-60q-11 0 -12 12q-3 59 28 91.5t100 32.5q66 0 97 -27.5t31 -83.5q0 -36 -12 -59t-33 -38v-1q26 -12 39 -36t13 -60q0 -62 -35 -95t-102 -33zM257 -33q-4 0 -6 3.5t-1 8.5l146 368l131 334q3 7 10 7h82q5 0 7 -3t0 -8l-144 -354l-134 -349q-1 -7 -10 -7h-81zM704 0
q-11 0 -11 11v61h-176q-12 0 -12 11v8q0 5 1.5 9.5t2.5 8.5l130 300q4 11 13 11h67q6 0 8.5 -3.5t-0.5 -10.5l-105 -255h73l7 123q0 12 11 12h55q12 0 12 -12v-122h25q10 0 10 -12v-57q0 -11 -10 -11h-25v-61q0 -11 -12 -11h-64z" />
    <glyph glyph-name="questiondown" unicode="&#xbf;" horiz-adv-x="395" 
d="M268 279q8 0 8 -10v-40q0 -34 -13 -60t-32 -47t-38.5 -42t-32.5 -45.5t-13 -56.5q0 -31 14 -44.5t44 -13.5q38 0 51 24.5t11 69.5q0 12 9 12h83q6 0 8 -4t3 -10q5 -93 -37 -138.5t-131 -45.5q-85 0 -126 35.5t-41 104.5q0 44 13 77.5t32.5 58.5t39 46t32.5 42t13 44l1 33
q0 10 9 10h93zM218 499q33 0 50.5 -15.5t17.5 -46.5v-16q0 -31 -17.5 -47t-50.5 -16t-50.5 16t-17.5 47v16q0 31 17.5 46.5t50.5 15.5z" />
    <glyph glyph-name="Agrave" unicode="&#xc0;" horiz-adv-x="476" 
d="M8 0q-11 0 -8 12l165 635q3 8 12 8h121q9 0 13 -8l166 -635q2 -12 -9 -12h-101q-8 0 -12 8l-90 406q-8 34 -14.5 67.5t-12.5 66.5h-2q-7 -33 -13.5 -66.5t-13.5 -67.5l-91 -405q-1 -9 -11 -9h-99zM130 140l19 94h174l20 -94h-213zM231 710q-9 0 -15 8l-72 106
q-3 6 -1.5 10t7.5 4h82q8 0 12 -8l57 -108q6 -12 -7 -12h-63z" />
    <glyph glyph-name="Aacute" unicode="&#xc1;" horiz-adv-x="476" 
d="M8 0q-11 0 -8 12l165 635q3 8 12 8h121q9 0 13 -8l166 -635q2 -12 -9 -12h-101q-8 0 -12 8l-90 406q-8 34 -14.5 67.5t-12.5 66.5h-2q-7 -33 -13.5 -66.5t-13.5 -67.5l-91 -405q-1 -9 -11 -9h-99zM130 140l19 94h174l20 -94h-213zM177 710q-5 0 -7 3.5t0 8.5l57 108
q5 8 14 8h81q6 0 7.5 -4t-2.5 -10l-71 -106q-5 -8 -15 -8h-64z" />
    <glyph glyph-name="Acircumflex" unicode="&#xc2;" horiz-adv-x="476" 
d="M8 0q-11 0 -8 12l165 635q3 8 12 8h121q9 0 13 -8l166 -635q2 -12 -9 -12h-101q-8 0 -12 8l-90 406q-8 34 -14.5 67.5t-12.5 66.5h-2q-7 -33 -13.5 -66.5t-13.5 -67.5l-91 -405q-1 -9 -11 -9h-99zM130 140l19 94h174l20 -94h-213zM134 715q-11 -4 -11 6v58q0 9 6 12
l103 48q6 4 13 0l102 -48q7 -3 7 -12v-58q0 -10 -12 -6l-104 42z" />
    <glyph glyph-name="Atilde" unicode="&#xc3;" horiz-adv-x="476" 
d="M8 0q-11 0 -8 12l165 635q3 8 12 8h121q9 0 13 -8l166 -635q2 -12 -9 -12h-101q-8 0 -12 8l-90 406q-8 34 -14.5 67.5t-12.5 66.5h-2q-7 -33 -13.5 -66.5t-13.5 -67.5l-91 -405q-1 -9 -11 -9h-99zM130 140l19 94h174l20 -94h-213zM282 719q-19 0 -33.5 5.5t-27.5 11
t-29 5.5t-30 -4.5t-25 -10.5q-6 -3 -9 -1t-3 8v53q0 10 5 14q10 8 27.5 15.5t38.5 7.5q22 0 36 -5.5t26.5 -11t27.5 -5.5q17 0 30.5 5t25.5 11q11 6 11 -7v-53q0 -10 -5 -15q-10 -8 -26.5 -15.5t-39.5 -7.5z" />
    <glyph glyph-name="Adieresis" unicode="&#xc4;" horiz-adv-x="476" 
d="M8 0q-11 0 -8 12l165 635q3 8 12 8h121q9 0 13 -8l166 -635q2 -12 -9 -12h-101q-8 0 -12 8l-90 406q-8 34 -14.5 67.5t-12.5 66.5h-2q-7 -33 -13.5 -66.5t-13.5 -67.5l-91 -405q-1 -9 -11 -9h-99zM130 140l19 94h174l20 -94h-213zM160 714q-28 0 -43.5 14.5t-15.5 40.5
v13q0 27 15.5 41.5t43.5 14.5t43 -14.5t15 -41.5v-13q0 -26 -15 -40.5t-43 -14.5zM318 714q-28 0 -43.5 14.5t-15.5 40.5v13q0 27 15.5 41.5t43.5 14.5q29 0 43.5 -14.5t14.5 -41.5v-13q0 -26 -14.5 -40.5t-43.5 -14.5z" />
    <glyph glyph-name="Aring" unicode="&#xc5;" horiz-adv-x="476" 
d="M477 12q2 -12 -9 -12h-101q-8 0 -12 8l-29 132h-178l-30 -131q-1 -9 -11 -9h-99q-11 0 -8 12l161 615q-12 11 -18.5 27t-6.5 37q0 47 28 72.5t74 25.5q47 0 75 -25.5t28 -72.5q0 -21 -6.5 -37.5t-19.5 -27.5zM204 690q0 -21 8.5 -32.5t25.5 -11.5q18 0 26 11.5t8 32.5
q0 22 -8 33t-26 11q-17 0 -25.5 -11t-8.5 -33zM167 234h140l-42 180q-8 34 -14.5 69t-12.5 68h-2q-7 -33 -13.5 -68t-13.5 -69z" />
    <glyph glyph-name="AE" unicode="&#xc6;" horiz-adv-x="676" 
d="M8 0q-11 0 -8 12l217 635q2 8 11 8h393q10 0 10 -11v-79q0 -11 -10 -11h-212v-174h193q10 0 10 -11v-74q0 -11 -10 -11h-193v-183h212q10 0 10 -11v-79q0 -11 -10 -11h-313q-11 0 -11 11v129h-133l-43 -132q-3 -8 -11 -8h-102zM190 234h107v232v52t1 53h-1
q-7 -27 -15 -53.5t-16 -53.5z" />
    <glyph glyph-name="Ccedilla" unicode="&#xc7;" horiz-adv-x="513" 
d="M259 -8q-104 0 -159.5 56.5t-55.5 171.5v214q0 114 55.5 171.5t159.5 57.5q72 0 122 -28t73 -79.5t14 -121.5q0 -12 -10 -12h-92q-10 0 -10 12q5 62 -19 95t-77 33q-51 0 -77 -31.5t-26 -99.5v-206q0 -69 26.5 -100.5t76.5 -31.5q55 0 78 35t20 93q-2 12 9 12h91
q10 0 11 -12q9 -106 -46 -167.5t-164 -61.5zM258 -194q-14 0 -26.5 1t-22.5 3q-5 2 -6.5 3.5t-1.5 5.5v45q0 8 8 7q5 -1 11.5 -1.5t13.5 -0.5q16 0 23.5 6.5t7.5 18.5v10q0 14 -8 19t-22 5h-14q-7 0 -7 6q0 5 0.5 11t1.5 10l23 77q3 8 10 8h53q11 0 7 -12l-21 -62h6
q25 0 39 -16t14 -45v-19q0 -39 -21.5 -59.5t-67.5 -20.5z" />
    <glyph glyph-name="Egrave" unicode="&#xc8;" horiz-adv-x="434" 
d="M65 0q-10 0 -10 11v633q0 11 10 11h313q10 0 10 -11v-79q0 -11 -10 -11h-211v-174h193q10 0 10 -11v-74q0 -11 -10 -11h-193v-183h211q10 0 10 -11v-79q0 -11 -10 -11h-313zM214 710q-9 0 -15 8l-72 106q-3 6 -1.5 10t7.5 4h82q8 0 12 -8l57 -108q6 -12 -7 -12h-63z" />
    <glyph glyph-name="Eacute" unicode="&#xc9;" horiz-adv-x="434" 
d="M65 0q-10 0 -10 11v633q0 11 10 11h313q10 0 10 -11v-79q0 -11 -10 -11h-211v-174h193q10 0 10 -11v-74q0 -11 -10 -11h-193v-183h211q10 0 10 -11v-79q0 -11 -10 -11h-313zM160 710q-5 0 -7 3.5t0 8.5l57 108q5 8 14 8h81q6 0 7.5 -4t-2.5 -10l-71 -106q-5 -8 -15 -8
h-64z" />
    <glyph glyph-name="Ecircumflex" unicode="&#xca;" horiz-adv-x="434" 
d="M65 0q-10 0 -10 11v633q0 11 10 11h313q10 0 10 -11v-79q0 -11 -10 -11h-211v-174h193q10 0 10 -11v-74q0 -11 -10 -11h-193v-183h211q10 0 10 -11v-79q0 -11 -10 -11h-313zM117 715q-11 -4 -11 6v58q0 9 6 12l103 48q6 4 13 0l102 -48q7 -3 7 -12v-58q0 -10 -12 -6
l-104 42z" />
    <glyph glyph-name="Edieresis" unicode="&#xcb;" horiz-adv-x="434" 
d="M65 0q-10 0 -10 11v633q0 11 10 11h313q10 0 10 -11v-79q0 -11 -10 -11h-211v-174h193q10 0 10 -11v-74q0 -11 -10 -11h-193v-183h211q10 0 10 -11v-79q0 -11 -10 -11h-313zM143 714q-28 0 -43.5 14.5t-15.5 40.5v13q0 27 15.5 41.5t43.5 14.5t43 -14.5t15 -41.5v-13
q0 -26 -15 -40.5t-43 -14.5zM301 714q-28 0 -43.5 14.5t-15.5 40.5v13q0 27 15.5 41.5t43.5 14.5q29 0 43.5 -14.5t14.5 -41.5v-13q0 -26 -14.5 -40.5t-43.5 -14.5z" />
    <glyph glyph-name="Igrave" unicode="&#xcc;" horiz-adv-x="222" 
d="M65 0q-10 0 -10 11v633q0 11 10 11h92q10 0 10 -11v-633q0 -11 -10 -11h-92zM105 710q-9 0 -15 8l-72 106q-3 6 -1.5 10t7.5 4h82q8 0 12 -8l57 -108q6 -12 -7 -12h-63z" />
    <glyph glyph-name="Iacute" unicode="&#xcd;" horiz-adv-x="222" 
d="M65 0q-10 0 -10 11v633q0 11 10 11h92q10 0 10 -11v-633q0 -11 -10 -11h-92zM51 710q-5 0 -7 3.5t0 8.5l57 108q5 8 14 8h81q6 0 7.5 -4t-2.5 -10l-71 -106q-5 -8 -15 -8h-64z" />
    <glyph glyph-name="Icircumflex" unicode="&#xce;" horiz-adv-x="222" 
d="M65 0q-10 0 -10 11v633q0 11 10 11h92q10 0 10 -11v-633q0 -11 -10 -11h-92zM8 715q-11 -4 -11 6v58q0 9 6 12l103 48q6 4 13 0l102 -48q7 -3 7 -12v-58q0 -10 -12 -6l-104 42z" />
    <glyph glyph-name="Idieresis" unicode="&#xcf;" horiz-adv-x="222" 
d="M65 0q-10 0 -10 11v633q0 11 10 11h92q10 0 10 -11v-633q0 -11 -10 -11h-92zM34 714q-28 0 -43.5 14.5t-15.5 40.5v13q0 27 15.5 41.5t43.5 14.5t43 -14.5t15 -41.5v-13q0 -26 -15 -40.5t-43 -14.5zM192 714q-28 0 -43.5 14.5t-15.5 40.5v13q0 27 15.5 41.5t43.5 14.5
q29 0 43.5 -14.5t14.5 -41.5v-13q0 -26 -14.5 -40.5t-43.5 -14.5z" />
    <glyph glyph-name="Eth" unicode="&#xd0;" horiz-adv-x="520" 
d="M14 288q-10 0 -10 11v65q0 11 10 11h43h195q9 0 9 -11v-65q0 -11 -9 -11h-238zM69 0q-12 0 -12 11v633q0 11 11 11h159q127 0 190.5 -69.5t63.5 -208.5v-78q0 -151 -62.5 -225t-188.5 -74h-161zM170 100h54q75 0 110 48.5t35 148.5v81q0 89 -35 133t-112 44h-52v-455z
" />
    <glyph glyph-name="Ntilde" unicode="&#xd1;" horiz-adv-x="534" 
d="M64 0q-9 0 -9 11v633q0 11 10 11h127q8 0 11 -7l117 -327q11 -27 21.5 -58.5t19.5 -61t16 -53.5h2q-2 27 -3.5 62t-2.5 71t-1 62v301q0 11 10 11h87q11 0 11 -11v-633q0 -11 -11 -11h-125q-8 0 -12 7l-116 318q-17 46 -31 92.5t-26 86.5h-2q2 -29 2.5 -65.5t1.5 -72.5
t1 -66v-289q0 -11 -10 -11h-88zM311 719q-19 0 -33.5 5.5t-27.5 11t-29 5.5t-30 -4.5t-25 -10.5q-6 -3 -9 -1t-3 8v53q0 10 5 14q10 8 27.5 15.5t38.5 7.5q22 0 36 -5.5t26.5 -11t27.5 -5.5q17 0 30.5 5t25.5 11q11 6 11 -7v-53q0 -10 -5 -15q-10 -8 -26.5 -15.5t-39.5 -7.5
z" />
    <glyph glyph-name="Ograve" unicode="&#xd2;" horiz-adv-x="520" 
d="M259 -8q-105 0 -160 57t-55 166v224q0 110 55 167t160 57q107 0 162 -57t55 -167v-224q0 -109 -55 -166t-162 -57zM259 93q52 0 78 31t26 96v214q0 66 -26 97t-78 31q-50 0 -76 -31t-26 -97v-214q0 -65 26 -96t76 -31zM252 710q-9 0 -15 8l-72 106q-3 6 -1.5 10t7.5 4h82
q8 0 12 -8l57 -108q6 -12 -7 -12h-63z" />
    <glyph glyph-name="Oacute" unicode="&#xd3;" horiz-adv-x="520" 
d="M259 -8q-105 0 -160 57t-55 166v224q0 110 55 167t160 57q107 0 162 -57t55 -167v-224q0 -109 -55 -166t-162 -57zM259 93q52 0 78 31t26 96v214q0 66 -26 97t-78 31q-50 0 -76 -31t-26 -97v-214q0 -65 26 -96t76 -31zM198 710q-5 0 -7 3.5t0 8.5l57 108q5 8 14 8h81
q6 0 7.5 -4t-2.5 -10l-71 -106q-5 -8 -15 -8h-64z" />
    <glyph glyph-name="Ocircumflex" unicode="&#xd4;" horiz-adv-x="520" 
d="M259 -8q-105 0 -160 57t-55 166v224q0 110 55 167t160 57q107 0 162 -57t55 -167v-224q0 -109 -55 -166t-162 -57zM259 93q52 0 78 31t26 96v214q0 66 -26 97t-78 31q-50 0 -76 -31t-26 -97v-214q0 -65 26 -96t76 -31zM155 715q-11 -4 -11 6v58q0 9 6 12l103 48q6 4 13 0
l102 -48q7 -3 7 -12v-58q0 -10 -12 -6l-104 42z" />
    <glyph glyph-name="Otilde" unicode="&#xd5;" horiz-adv-x="520" 
d="M259 -8q-105 0 -160 57t-55 166v224q0 110 55 167t160 57q107 0 162 -57t55 -167v-224q0 -109 -55 -166t-162 -57zM259 93q52 0 78 31t26 96v214q0 66 -26 97t-78 31q-50 0 -76 -31t-26 -97v-214q0 -65 26 -96t76 -31zM303 719q-19 0 -33.5 5.5t-27.5 11t-29 5.5
t-30 -4.5t-25 -10.5q-6 -3 -9 -1t-3 8v53q0 10 5 14q10 8 27.5 15.5t38.5 7.5q22 0 36 -5.5t26.5 -11t27.5 -5.5q17 0 30.5 5t25.5 11q11 6 11 -7v-53q0 -10 -5 -15q-10 -8 -26.5 -15.5t-39.5 -7.5z" />
    <glyph glyph-name="Odieresis" unicode="&#xd6;" horiz-adv-x="520" 
d="M259 -8q-105 0 -160 57t-55 166v224q0 110 55 167t160 57q107 0 162 -57t55 -167v-224q0 -109 -55 -166t-162 -57zM259 93q52 0 78 31t26 96v214q0 66 -26 97t-78 31q-50 0 -76 -31t-26 -97v-214q0 -65 26 -96t76 -31zM180 714q-28 0 -43.5 14.5t-15.5 40.5v13
q0 27 15.5 41.5t43.5 14.5t43 -14.5t15 -41.5v-13q0 -26 -15 -40.5t-43 -14.5zM338 714q-28 0 -43.5 14.5t-15.5 40.5v13q0 27 15.5 41.5t43.5 14.5q29 0 43.5 -14.5t14.5 -41.5v-13q0 -26 -14.5 -40.5t-43.5 -14.5z" />
    <glyph glyph-name="multiply" unicode="&#xd7;" horiz-adv-x="489" 
d="M150 158l-48 47q-8 9 0 17l79 79l-79 79q-8 7 0 17l48 46q8 10 17 0l79 -78l78 79q8 7 17 0l47 -48q9 -8 0 -17l-79 -78l79 -79q9 -8 0 -16l-47 -48q-9 -7 -17 0l-78 79l-79 -79q-9 -8 -17 0z" />
    <glyph glyph-name="Oslash" unicode="&#xd8;" horiz-adv-x="520" 
d="M54 -50q-5 0 -7 3.5t0 9.5l56 121l42 79l185 405l17 55l34 75q3 7 12 7h73q11 0 7 -13l-54 -119l-40 -75l-186 -408l-19 -57l-35 -76q-1 -4 -4 -5.5t-7 -1.5h-74zM259 -8q-105 0 -160 57t-55 166v224q0 110 55 167t160 57q107 0 162 -57t55 -167v-224q0 -109 -55 -166
t-162 -57zM259 93q52 0 78 31t26 96v214q0 66 -26 97t-78 31q-50 0 -76 -31t-26 -97v-214q0 -65 26 -96t76 -31z" />
    <glyph glyph-name="Ugrave" unicode="&#xd9;" horiz-adv-x="520" 
d="M261 -8q-105 0 -158 57.5t-53 173.5v421q0 11 11 11h92q10 0 10 -11v-419q0 -68 24 -100t74 -32t73.5 31.5t23.5 100.5v419q0 11 10 11h92q10 0 10 -11v-422q0 -114 -53 -172t-156 -58zM253 710q-9 0 -15 8l-72 106q-3 6 -1.5 10t7.5 4h82q8 0 12 -8l57 -108
q6 -12 -7 -12h-63z" />
    <glyph glyph-name="Uacute" unicode="&#xda;" horiz-adv-x="520" 
d="M261 -8q-105 0 -158 57.5t-53 173.5v421q0 11 11 11h92q10 0 10 -11v-419q0 -68 24 -100t74 -32t73.5 31.5t23.5 100.5v419q0 11 10 11h92q10 0 10 -11v-422q0 -114 -53 -172t-156 -58zM199 710q-5 0 -7 3.5t0 8.5l57 108q5 8 14 8h81q6 0 7.5 -4t-2.5 -10l-71 -106
q-5 -8 -15 -8h-64z" />
    <glyph glyph-name="Ucircumflex" unicode="&#xdb;" horiz-adv-x="520" 
d="M261 -8q-105 0 -158 57.5t-53 173.5v421q0 11 11 11h92q10 0 10 -11v-419q0 -68 24 -100t74 -32t73.5 31.5t23.5 100.5v419q0 11 10 11h92q10 0 10 -11v-422q0 -114 -53 -172t-156 -58zM156 715q-11 -4 -11 6v58q0 9 6 12l103 48q6 4 13 0l102 -48q7 -3 7 -12v-58
q0 -10 -12 -6l-104 42z" />
    <glyph glyph-name="Udieresis" unicode="&#xdc;" horiz-adv-x="520" 
d="M261 -8q-105 0 -158 57.5t-53 173.5v421q0 11 11 11h92q10 0 10 -11v-419q0 -68 24 -100t74 -32t73.5 31.5t23.5 100.5v419q0 11 10 11h92q10 0 10 -11v-422q0 -114 -53 -172t-156 -58zM182 714q-28 0 -43.5 14.5t-15.5 40.5v13q0 27 15.5 41.5t43.5 14.5t43 -14.5
t15 -41.5v-13q0 -26 -15 -40.5t-43 -14.5zM340 714q-28 0 -43.5 14.5t-15.5 40.5v13q0 27 15.5 41.5t43.5 14.5q29 0 43.5 -14.5t14.5 -41.5v-13q0 -26 -14.5 -40.5t-43.5 -14.5z" />
    <glyph glyph-name="Yacute" unicode="&#xdd;" horiz-adv-x="461" 
d="M184 0q-10 0 -10 11v214l-167 416q-2 7 0 10.5t7 3.5h104q10 0 11 -8l65 -192q10 -30 19 -59.5t18 -58.5h1q8 30 17.5 59.5t19.5 58.5l64 193q2 7 11 7h102q6 0 8 -3.5t0 -10.5l-167 -415v-215q0 -11 -10 -11h-93zM169 710q-5 0 -7 3.5t0 8.5l57 108q5 8 14 8h81
q6 0 7.5 -4t-2.5 -10l-71 -106q-5 -8 -15 -8h-64z" />
    <glyph glyph-name="Thorn" unicode="&#xde;" horiz-adv-x="452" 
d="M65 0q-10 0 -10 11v633q0 11 10 11h92q10 0 10 -11v-93h47q107 0 158.5 -53t51.5 -159q0 -103 -52 -157t-156 -54h-49v-117q0 -11 -10 -11h-92zM167 228h46q51 0 75 26.5t24 82.5q0 61 -24 87.5t-74 26.5h-47v-223z" />
    <glyph glyph-name="germandbls" unicode="&#xdf;" horiz-adv-x="460" 
d="M303 -8q-66 0 -95 30.5t-25 93.5q1 12 10 12h67q8 0 8 -11q0 -21 7.5 -30.5t23.5 -9.5q20 0 29 12t9 39q0 31 -13 53.5t-31 41t-37 38t-31.5 44t-12.5 59.5q0 25 9 46t19.5 40.5t19 40.5t8.5 47q0 31 -13 45t-40 14q-30 0 -44 -20t-14 -65v-501q0 -11 -10 -11h-90
q-10 0 -10 11v497q0 94 41 138.5t128 44.5q78 0 119.5 -35.5t41.5 -104.5q0 -35 -8.5 -59t-19.5 -43t-19.5 -35.5t-8.5 -34.5q0 -23 12 -42t30.5 -37t36 -41t29.5 -53.5t12 -73.5q0 -140 -138 -140z" />
    <glyph glyph-name="agrave" unicode="&#xe0;" horiz-adv-x="409" 
d="M280 0q-8 0 -11 11q-2 14 -4.5 39.5t-3.5 46.5l-8 22v229q0 37 -11 50.5t-41 13.5q-54 0 -50 -57q1 -11 -11 -11h-80q-11 0 -12 15q-6 68 35 105t122 37q83 0 120.5 -36.5t37.5 -117.5v-222q0 -40 1 -67t3 -46q2 -12 -10 -12h-77zM133 -8q-49 0 -76 35t-27 99
q0 72 37 111t125 48l72 8l-1 -68l-54 -6q-39 -5 -55.5 -23.5t-16.5 -55.5q0 -30 9 -45t28 -15q21 0 42.5 15t51.5 53l7 -71q-38 -43 -70 -64t-72 -21zM201 557q-9 0 -15 8l-82 124q-3 5 -1.5 9t7.5 4h81q8 0 13 -9l66 -124q6 -12 -6 -12h-63z" />
    <glyph glyph-name="aacute" unicode="&#xe1;" horiz-adv-x="409" 
d="M280 0q-8 0 -11 11q-2 14 -4.5 39.5t-3.5 46.5l-8 22v229q0 37 -11 50.5t-41 13.5q-54 0 -50 -57q1 -11 -11 -11h-80q-11 0 -12 15q-6 68 35 105t122 37q83 0 120.5 -36.5t37.5 -117.5v-222q0 -40 1 -67t3 -46q2 -12 -10 -12h-77zM133 -8q-49 0 -76 35t-27 99
q0 72 37 111t125 48l72 8l-1 -68l-54 -6q-39 -5 -55.5 -23.5t-16.5 -55.5q0 -30 9 -45t28 -15q21 0 42.5 15t51.5 53l7 -71q-38 -43 -70 -64t-72 -21zM146 557q-12 0 -7 12l66 124q5 9 14 9h80q6 0 7.5 -4t-1.5 -9l-82 -124q-4 -8 -15 -8h-62z" />
    <glyph glyph-name="acircumflex" unicode="&#xe2;" horiz-adv-x="409" 
d="M280 0q-8 0 -11 11q-2 14 -4.5 39.5t-3.5 46.5l-8 22v229q0 37 -11 50.5t-41 13.5q-54 0 -50 -57q1 -11 -11 -11h-80q-11 0 -12 15q-6 68 35 105t122 37q83 0 120.5 -36.5t37.5 -117.5v-222q0 -40 1 -67t3 -46q2 -12 -10 -12h-77zM133 -8q-49 0 -76 35t-27 99
q0 72 37 111t125 48l72 8l-1 -68l-54 -6q-39 -5 -55.5 -23.5t-16.5 -55.5q0 -30 9 -45t28 -15q21 0 42.5 15t51.5 53l7 -71q-38 -43 -70 -64t-72 -21zM109 552q-11 -6 -11 5v60q0 9 6 12l95 55q6 4 13 0l94 -55q6 -3 6 -12v-60q0 -11 -12 -5l-95 48z" />
    <glyph glyph-name="atilde" unicode="&#xe3;" horiz-adv-x="409" 
d="M280 0q-8 0 -11 11q-2 14 -4.5 39.5t-3.5 46.5l-8 22v229q0 37 -11 50.5t-41 13.5q-54 0 -50 -57q1 -11 -11 -11h-80q-11 0 -12 15q-6 68 35 105t122 37q83 0 120.5 -36.5t37.5 -117.5v-222q0 -40 1 -67t3 -46q2 -12 -10 -12h-77zM133 -8q-49 0 -76 35t-27 99
q0 72 37 111t125 48l72 8l-1 -68l-54 -6q-39 -5 -55.5 -23.5t-16.5 -55.5q0 -30 9 -45t28 -15q21 0 42.5 15t51.5 53l7 -71q-38 -43 -70 -64t-72 -21zM245 566q-18 0 -31.5 5.5t-25.5 11t-27 5.5q-14 0 -27 -5t-24 -11q-12 -6 -12 7v54q0 10 5 14q10 8 26.5 15.5t35.5 7.5
q21 0 34.5 -5.5t25 -11t24.5 -5.5q14 0 27 5t23 10q13 7 13 -7v-53q0 -5 -1.5 -8.5t-4.5 -6.5q-11 -8 -26 -15t-35 -7z" />
    <glyph glyph-name="adieresis" unicode="&#xe4;" horiz-adv-x="409" 
d="M280 0q-8 0 -11 11q-2 14 -4.5 39.5t-3.5 46.5l-8 22v229q0 37 -11 50.5t-41 13.5q-54 0 -50 -57q1 -11 -11 -11h-80q-11 0 -12 15q-6 68 35 105t122 37q83 0 120.5 -36.5t37.5 -117.5v-222q0 -40 1 -67t3 -46q2 -12 -10 -12h-77zM133 -8q-49 0 -76 35t-27 99
q0 72 37 111t125 48l72 8l-1 -68l-54 -6q-39 -5 -55.5 -23.5t-16.5 -55.5q0 -30 9 -45t28 -15q21 0 42.5 15t51.5 53l7 -71q-38 -43 -70 -64t-72 -21zM126 567q-28 0 -43.5 14.5t-15.5 40.5v14q0 27 15.5 41t43.5 14t43 -14t15 -41v-14q0 -26 -15 -40.5t-43 -14.5zM285 567
q-29 0 -44 14.5t-15 40.5v14q0 27 15 41t44 14t43 -14t14 -41v-14q0 -26 -14 -40.5t-43 -14.5z" />
    <glyph glyph-name="aring" unicode="&#xe5;" horiz-adv-x="409" 
d="M280 0q-8 0 -11 11q-2 14 -4.5 39.5t-3.5 46.5l-8 22v229q0 37 -11 50.5t-41 13.5q-54 0 -50 -57q1 -11 -11 -11h-80q-11 0 -12 15q-6 68 35 105t122 37q83 0 120.5 -36.5t37.5 -117.5v-222q0 -40 1 -67t3 -46q2 -12 -10 -12h-77zM133 -8q-49 0 -76 35t-27 99
q0 72 37 111t125 48l72 8l-1 -68l-54 -6q-39 -5 -55.5 -23.5t-16.5 -55.5q0 -30 9 -45t28 -15q21 0 42.5 15t51.5 53l7 -71q-38 -43 -70 -64t-72 -21zM205 551q-46 0 -73.5 26t-27.5 73t27.5 72.5t73.5 25.5q47 0 74 -25.5t27 -72.5t-27 -73t-74 -26zM205 609
q17 0 24.5 10.5t7.5 31.5q0 19 -7.5 29.5t-24.5 10.5q-16 0 -23.5 -10.5t-7.5 -29.5q0 -21 7.5 -31.5t23.5 -10.5z" />
    <glyph glyph-name="ae" unicode="&#xe6;" horiz-adv-x="634" 
d="M132 -8q-49 0 -75.5 35t-26.5 99q0 74 37 112.5t125 48.5l62 7v54q0 36 -11.5 50t-41.5 14q-27 0 -39.5 -14t-10.5 -43q1 -11 -11 -11h-80q-11 0 -12 15q-6 67 34 104.5t118 37.5q43 0 71 -12.5t45 -38.5q21 25 51.5 38t67.5 13q76 0 118.5 -47.5t42.5 -135.5v-85
q0 -11 -10 -11h-224v-51q0 -47 14.5 -68t48.5 -21q58 0 58 52q0 13 10 13h85q11 0 11 -14q0 -70 -42 -105.5t-123 -35.5q-114 0 -152 80q-35 -40 -68 -60t-72 -20zM175 80q18 0 36.5 12.5t44.5 40.5q-1 11 -1.5 21.5t-0.5 21.5v48l-44 -5q-40 -5 -56.5 -23t-16.5 -56
q0 -30 9 -45t29 -15zM362 296h126v30q0 45 -15 65t-47 20q-33 0 -48.5 -21t-15.5 -65v-29z" />
    <glyph glyph-name="ccedilla" unicode="&#xe7;" horiz-adv-x="422" 
d="M218 -8q-89 0 -134.5 46.5t-45.5 138.5v140q0 90 46 137t133 47q55 0 93.5 -20.5t57.5 -58t15 -86.5q-1 -17 -11 -17h-81q-10 0 -10 13q2 36 -14.5 53.5t-47.5 17.5q-36 0 -53.5 -20.5t-17.5 -70.5v-130q0 -50 17 -71.5t53 -21.5q32 0 47.5 18t14.5 53q0 14 10 14h82
q11 0 11 -12q1 -83 -40.5 -126.5t-124.5 -43.5zM208 -194q-14 0 -26.5 1t-22.5 3q-5 2 -6.5 3.5t-1.5 5.5v45q0 8 8 7q5 -1 11.5 -1.5t13.5 -0.5q16 0 23.5 6.5t7.5 18.5v10q0 14 -8 19t-22 5h-14q-7 0 -7 6q0 5 0.5 11t1.5 10l23 77q3 8 10 8h53q11 0 7 -12l-21 -62h6
q25 0 39 -16t14 -45v-19q0 -39 -21.5 -59.5t-67.5 -20.5z" />
    <glyph glyph-name="egrave" unicode="&#xe8;" horiz-adv-x="427" 
d="M216 -8q-89 0 -133.5 44t-44.5 135v147q0 91 44.5 137t131.5 46q88 0 131.5 -46t43.5 -137v-87q0 -11 -10 -11h-232v-49q0 -47 16.5 -68t53.5 -21q30 0 45 13t14 41q0 11 10 11h86q8 0 10 -11q1 -71 -40.5 -107.5t-125.5 -36.5zM147 295h134v31q0 44 -16 64.5t-49 20.5
q-36 0 -52.5 -20.5t-16.5 -64.5v-31zM209 560q-9 0 -15 8l-82 124q-3 5 -1.5 9t7.5 4h81q8 0 13 -9l66 -124q6 -12 -6 -12h-63z" />
    <glyph glyph-name="eacute" unicode="&#xe9;" horiz-adv-x="427" 
d="M216 -8q-89 0 -133.5 44t-44.5 135v147q0 91 44.5 137t131.5 46q88 0 131.5 -46t43.5 -137v-87q0 -11 -10 -11h-232v-49q0 -47 16.5 -68t53.5 -21q30 0 45 13t14 41q0 11 10 11h86q8 0 10 -11q1 -71 -40.5 -107.5t-125.5 -36.5zM147 295h134v31q0 44 -16 64.5t-49 20.5
q-36 0 -52.5 -20.5t-16.5 -64.5v-31zM154 560q-12 0 -7 12l66 124q5 9 14 9h80q6 0 7.5 -4t-1.5 -9l-82 -124q-4 -8 -15 -8h-62z" />
    <glyph glyph-name="ecircumflex" unicode="&#xea;" horiz-adv-x="427" 
d="M216 -8q-89 0 -133.5 44t-44.5 135v147q0 91 44.5 137t131.5 46q88 0 131.5 -46t43.5 -137v-87q0 -11 -10 -11h-232v-49q0 -47 16.5 -68t53.5 -21q30 0 45 13t14 41q0 11 10 11h86q8 0 10 -11q1 -71 -40.5 -107.5t-125.5 -36.5zM147 295h134v31q0 44 -16 64.5t-49 20.5
q-36 0 -52.5 -20.5t-16.5 -64.5v-31zM117 555q-11 -6 -11 5v60q0 9 6 12l95 55q6 4 13 0l94 -55q6 -3 6 -12v-60q0 -11 -12 -5l-95 48z" />
    <glyph glyph-name="edieresis" unicode="&#xeb;" horiz-adv-x="427" 
d="M216 -8q-89 0 -133.5 44t-44.5 135v147q0 91 44.5 137t131.5 46q88 0 131.5 -46t43.5 -137v-87q0 -11 -10 -11h-232v-49q0 -47 16.5 -68t53.5 -21q30 0 45 13t14 41q0 11 10 11h86q8 0 10 -11q1 -71 -40.5 -107.5t-125.5 -36.5zM147 295h134v31q0 44 -16 64.5t-49 20.5
q-36 0 -52.5 -20.5t-16.5 -64.5v-31zM135 570q-28 0 -43.5 14.5t-15.5 40.5v14q0 27 15.5 41t43.5 14t43 -14t15 -41v-14q0 -26 -15 -40.5t-43 -14.5zM294 570q-29 0 -44 14.5t-15 40.5v14q0 27 15 41t44 14t43 -14t14 -41v-14q0 -26 -14 -40.5t-43 -14.5z" />
    <glyph glyph-name="igrave" unicode="&#xec;" horiz-adv-x="203" 
d="M57 0q-10 0 -10 11v470q0 11 10 11h89q11 0 11 -11v-470q0 -11 -11 -11h-89zM99 557q-9 0 -15 8l-82 124q-3 5 -1.5 9t7.5 4h81q8 0 13 -9l66 -124q6 -12 -6 -12h-63z" />
    <glyph glyph-name="iacute" unicode="&#xed;" horiz-adv-x="203" 
d="M57 0q-10 0 -10 11v470q0 11 10 11h89q11 0 11 -11v-470q0 -11 -11 -11h-89zM43 557q-12 0 -7 12l66 124q5 9 14 9h80q6 0 7.5 -4t-1.5 -9l-82 -124q-4 -8 -15 -8h-62z" />
    <glyph glyph-name="icircumflex" unicode="&#xee;" horiz-adv-x="203" 
d="M57 0q-10 0 -10 11v470q0 11 10 11h89q11 0 11 -11v-470q0 -11 -11 -11h-89zM7 552q-11 -6 -11 5v60q0 9 6 12l95 55q6 4 13 0l94 -55q6 -3 6 -12v-60q0 -11 -12 -5l-95 48z" />
    <glyph glyph-name="idieresis" unicode="&#xef;" horiz-adv-x="203" 
d="M57 0q-10 0 -10 11v470q0 11 10 11h89q11 0 11 -11v-470q0 -11 -11 -11h-89zM24 567q-28 0 -43.5 14.5t-15.5 40.5v14q0 27 15.5 41t43.5 14t43 -14t15 -41v-14q0 -26 -15 -40.5t-43 -14.5zM183 567q-29 0 -44 14.5t-15 40.5v14q0 27 15 41t44 14t43 -14t14 -41v-14
q0 -26 -14 -40.5t-43 -14.5z" />
    <glyph glyph-name="eth" unicode="&#xf0;" horiz-adv-x="432" 
d="M215 -8q-87 0 -132 45.5t-45 134.5v122q0 85 34.5 126.5t96.5 41.5q36 0 69 -15.5t57 -42.5l-1 -91q-18 24 -41.5 39t-48.5 15q-27 0 -41.5 -19.5t-14.5 -61.5v-113q0 -45 16 -65t52 -20q35 0 51.5 22.5t16.5 69.5v160q5 74 -8 129t-47.5 90.5t-94.5 54.5q-7 3 -8.5 7
t2.5 10l37 53q5 6 8.5 7t10.5 -1q104 -29 156.5 -114t52.5 -211v-189q0 -89 -46 -136.5t-132 -47.5zM162 506q-5 -4 -10 3l-21 35q-4 6 4 11l205 129q7 4 11 -3l19 -34q3 -5 -4 -11z" />
    <glyph glyph-name="ntilde" unicode="&#xf1;" horiz-adv-x="445" 
d="M299 0q-11 0 -11 11v332q0 32 -11 46t-36 14q-22 0 -44.5 -14.5t-49.5 -43.5l-11 68q33 40 70 64t82 24q55 0 82.5 -34.5t27.5 -107.5v-348q0 -11 -10 -11h-89zM57 0q-10 0 -10 11v356q0 35 -1 63.5t-3 48.5q-1 13 9 13h78q9 0 11 -10q2 -16 4.5 -43t3.5 -45l8 -28v-355
q0 -11 -11 -11h-89zM265 566q-18 0 -31.5 5.5t-25.5 11t-27 5.5q-14 0 -27 -5t-24 -11q-12 -6 -12 7v54q0 10 5 14q10 8 26.5 15.5t35.5 7.5q21 0 34.5 -5.5t25 -11t24.5 -5.5q14 0 27 5t23 10q13 7 13 -7v-53q0 -5 -1.5 -8.5t-4.5 -6.5q-11 -8 -26 -15t-35 -7z" />
    <glyph glyph-name="ograve" unicode="&#xf2;" horiz-adv-x="436" 
d="M218 -8q-87 0 -133.5 46t-46.5 136v144q0 90 46.5 136.5t133.5 46.5q86 0 132.5 -46.5t46.5 -136.5v-144q0 -90 -46 -136t-133 -46zM218 89q36 0 52.5 21.5t16.5 68.5v134q0 48 -16.5 69t-52.5 21t-53 -21t-17 -69v-134q0 -47 17 -68.5t53 -21.5zM214 557q-9 0 -15 8
l-82 124q-3 5 -1.5 9t7.5 4h81q8 0 13 -9l66 -124q6 -12 -6 -12h-63z" />
    <glyph glyph-name="oacute" unicode="&#xf3;" horiz-adv-x="436" 
d="M218 -8q-87 0 -133.5 46t-46.5 136v144q0 90 46.5 136.5t133.5 46.5q86 0 132.5 -46.5t46.5 -136.5v-144q0 -90 -46 -136t-133 -46zM218 89q36 0 52.5 21.5t16.5 68.5v134q0 48 -16.5 69t-52.5 21t-53 -21t-17 -69v-134q0 -47 17 -68.5t53 -21.5zM158 557q-12 0 -7 12
l66 124q5 9 14 9h80q6 0 7.5 -4t-1.5 -9l-82 -124q-4 -8 -15 -8h-62z" />
    <glyph glyph-name="ocircumflex" unicode="&#xf4;" horiz-adv-x="436" 
d="M218 -8q-87 0 -133.5 46t-46.5 136v144q0 90 46.5 136.5t133.5 46.5q86 0 132.5 -46.5t46.5 -136.5v-144q0 -90 -46 -136t-133 -46zM218 89q36 0 52.5 21.5t16.5 68.5v134q0 48 -16.5 69t-52.5 21t-53 -21t-17 -69v-134q0 -47 17 -68.5t53 -21.5zM122 552q-11 -6 -11 5
v60q0 9 6 12l95 55q6 4 13 0l94 -55q6 -3 6 -12v-60q0 -11 -12 -5l-95 48z" />
    <glyph glyph-name="otilde" unicode="&#xf5;" horiz-adv-x="436" 
d="M218 -8q-87 0 -133.5 46t-46.5 136v144q0 90 46.5 136.5t133.5 46.5q86 0 132.5 -46.5t46.5 -136.5v-144q0 -90 -46 -136t-133 -46zM218 89q36 0 52.5 21.5t16.5 68.5v134q0 48 -16.5 69t-52.5 21t-53 -21t-17 -69v-134q0 -47 17 -68.5t53 -21.5zM257 566
q-18 0 -31.5 5.5t-25.5 11t-27 5.5q-14 0 -27 -5t-24 -11q-12 -6 -12 7v54q0 10 5 14q10 8 26.5 15.5t35.5 7.5q21 0 34.5 -5.5t25 -11t24.5 -5.5q14 0 27 5t23 10q13 7 13 -7v-53q0 -5 -1.5 -8.5t-4.5 -6.5q-11 -8 -26 -15t-35 -7z" />
    <glyph glyph-name="odieresis" unicode="&#xf6;" horiz-adv-x="436" 
d="M218 -8q-87 0 -133.5 46t-46.5 136v144q0 90 46.5 136.5t133.5 46.5q86 0 132.5 -46.5t46.5 -136.5v-144q0 -90 -46 -136t-133 -46zM218 89q36 0 52.5 21.5t16.5 68.5v134q0 48 -16.5 69t-52.5 21t-53 -21t-17 -69v-134q0 -47 17 -68.5t53 -21.5zM139 567
q-28 0 -43.5 14.5t-15.5 40.5v14q0 27 15.5 41t43.5 14t43 -14t15 -41v-14q0 -26 -15 -40.5t-43 -14.5zM298 567q-29 0 -44 14.5t-15 40.5v14q0 27 15 41t44 14t43 -14t14 -41v-14q0 -26 -14 -40.5t-43 -14.5z" />
    <glyph glyph-name="divide" unicode="&#xf7;" horiz-adv-x="489" 
d="M90 255q-11 0 -11 11v69q0 11 11 11h310q11 0 11 -11v-69q0 -11 -11 -11h-310zM245 92q-27 0 -40.5 14.5t-13.5 37.5v16q0 23 13.5 37.5t40.5 14.5t41 -14.5t14 -37.5v-16q0 -23 -14 -37.5t-41 -14.5zM245 388q-27 0 -40.5 14.5t-13.5 36.5v16q0 25 13.5 39t40.5 14
t41 -14t14 -39v-16q0 -22 -14 -36.5t-41 -14.5z" />
    <glyph glyph-name="oslash" unicode="&#xf8;" horiz-adv-x="436" 
d="M25 -51q-6 0 -7.5 4t1.5 9l66 124l41 47l148 282l16 52l35 68q4 7 12 7h74q6 0 8 -4t-1 -9l-60 -111l-44 -49l-149 -289l-16 -53l-38 -71q-4 -7 -12 -7h-74zM218 -8q-87 0 -133.5 46t-46.5 136v144q0 90 46.5 136.5t133.5 46.5q86 0 132.5 -46.5t46.5 -136.5v-144
q0 -90 -46 -136t-133 -46zM218 89q36 0 52.5 21.5t16.5 68.5v134q0 48 -16.5 69t-52.5 21t-53 -21t-17 -69v-134q0 -47 17 -68.5t53 -21.5z" />
    <glyph glyph-name="ugrave" unicode="&#xf9;" horiz-adv-x="437" 
d="M154 -8q-56 0 -81.5 34.5t-25.5 107.5v347q0 11 10 11h89q11 0 11 -11v-331q0 -33 10 -47t30 -14q25 0 48 16.5t49 47.5l10 -71q-31 -40 -69 -65t-81 -25zM309 0q-10 0 -12 10q-3 18 -5 42.5t-2 42.5l-10 31v355q0 11 11 11h88q11 0 11 -11v-356q0 -34 1 -62.5t3 -50.5
q2 -12 -10 -12h-75zM215 557q-9 0 -15 8l-82 124q-3 5 -1.5 9t7.5 4h81q8 0 13 -9l66 -124q6 -12 -6 -12h-63z" />
    <glyph glyph-name="uacute" unicode="&#xfa;" horiz-adv-x="437" 
d="M154 -8q-56 0 -81.5 34.5t-25.5 107.5v347q0 11 10 11h89q11 0 11 -11v-331q0 -33 10 -47t30 -14q25 0 48 16.5t49 47.5l10 -71q-31 -40 -69 -65t-81 -25zM309 0q-10 0 -12 10q-3 18 -5 42.5t-2 42.5l-10 31v355q0 11 11 11h88q11 0 11 -11v-356q0 -34 1 -62.5t3 -50.5
q2 -12 -10 -12h-75zM159 557q-12 0 -7 12l66 124q5 9 14 9h80q6 0 7.5 -4t-1.5 -9l-82 -124q-4 -8 -15 -8h-62z" />
    <glyph glyph-name="ucircumflex" unicode="&#xfb;" horiz-adv-x="437" 
d="M154 -8q-56 0 -81.5 34.5t-25.5 107.5v347q0 11 10 11h89q11 0 11 -11v-331q0 -33 10 -47t30 -14q25 0 48 16.5t49 47.5l10 -71q-31 -40 -69 -65t-81 -25zM309 0q-10 0 -12 10q-3 18 -5 42.5t-2 42.5l-10 31v355q0 11 11 11h88q11 0 11 -11v-356q0 -34 1 -62.5t3 -50.5
q2 -12 -10 -12h-75zM123 552q-11 -6 -11 5v60q0 9 6 12l95 55q6 4 13 0l94 -55q6 -3 6 -12v-60q0 -11 -12 -5l-95 48z" />
    <glyph glyph-name="udieresis" unicode="&#xfc;" horiz-adv-x="437" 
d="M154 -8q-56 0 -81.5 34.5t-25.5 107.5v347q0 11 10 11h89q11 0 11 -11v-331q0 -33 10 -47t30 -14q25 0 48 16.5t49 47.5l10 -71q-31 -40 -69 -65t-81 -25zM309 0q-10 0 -12 10q-3 18 -5 42.5t-2 42.5l-10 31v355q0 11 11 11h88q11 0 11 -11v-356q0 -34 1 -62.5t3 -50.5
q2 -12 -10 -12h-75zM140 567q-28 0 -43.5 14.5t-15.5 40.5v14q0 27 15.5 41t43.5 14t43 -14t15 -41v-14q0 -26 -15 -40.5t-43 -14.5zM299 567q-29 0 -44 14.5t-15 40.5v14q0 27 15 41t44 14t43 -14t14 -41v-14q0 -26 -14 -40.5t-43 -14.5z" />
    <glyph glyph-name="yacute" unicode="&#xfd;" horiz-adv-x="416" 
d="M113 -185q-5 0 -7 4t0 9l51 175l-141 476q-4 13 8 13h98q8 0 11 -10l48 -200q8 -32 14.5 -68t11.5 -69h3q6 33 13 69t13 68l49 200q2 10 11 10h96q12 0 8 -13l-188 -656q-1 -8 -11 -8h-88zM149 557q-12 0 -7 12l66 124q5 9 14 9h80q6 0 7.5 -4t-1.5 -9l-82 -124
q-4 -8 -15 -8h-62z" />
    <glyph glyph-name="thorn" unicode="&#xfe;" horiz-adv-x="433" 
d="M57 -185q-10 0 -10 11v846q0 11 10 11h89q11 0 11 -11v-229q29 28 59 43t67 15q55 0 82 -35.5t27 -110.5v-188q0 -89 -33.5 -132t-98.5 -43q-25 0 -52.5 6.5t-50.5 16.5v-189q0 -11 -11 -11h-89zM223 85q30 0 44.5 21.5t14.5 66.5v165q0 34 -10 49.5t-35 15.5
q-18 0 -37.5 -11t-42.5 -33v-257q16 -7 33 -12t33 -5z" />
    <glyph glyph-name="ydieresis" unicode="&#xff;" horiz-adv-x="416" 
d="M113 -185q-5 0 -7 4t0 9l51 175l-141 476q-4 13 8 13h98q8 0 11 -10l48 -200q8 -32 14.5 -68t11.5 -69h3q6 33 13 69t13 68l49 200q2 10 11 10h96q12 0 8 -13l-188 -656q-1 -8 -11 -8h-88zM129 567q-28 0 -43.5 14.5t-15.5 40.5v14q0 27 15.5 41t43.5 14t43 -14t15 -41
v-14q0 -26 -15 -40.5t-43 -14.5zM288 567q-29 0 -44 14.5t-15 40.5v14q0 27 15 41t44 14t43 -14t14 -41v-14q0 -26 -14 -40.5t-43 -14.5z" />
    <glyph glyph-name="Amacron" unicode="&#x100;" horiz-adv-x="476" 
d="M8 0q-11 0 -8 12l165 635q3 8 12 8h121q9 0 13 -8l166 -635q2 -12 -9 -12h-101q-8 0 -12 8l-90 406q-8 34 -14.5 67.5t-12.5 66.5h-2q-7 -33 -13.5 -66.5t-13.5 -67.5l-91 -405q-1 -9 -11 -9h-99zM130 140l19 94h174l20 -94h-213zM142 718q-11 0 -11 11v63q0 11 11 11
h192q11 0 11 -11v-63q0 -11 -11 -11h-192z" />
    <glyph glyph-name="amacron" unicode="&#x101;" horiz-adv-x="409" 
d="M280 0q-8 0 -11 11q-2 14 -4.5 39.5t-3.5 46.5l-8 22v229q0 37 -11 50.5t-41 13.5q-54 0 -50 -57q1 -11 -11 -11h-80q-11 0 -12 15q-6 68 35 105t122 37q83 0 120.5 -36.5t37.5 -117.5v-222q0 -40 1 -67t3 -46q2 -12 -10 -12h-77zM133 -8q-49 0 -76 35t-27 99
q0 72 37 111t125 48l72 8l-1 -68l-54 -6q-39 -5 -55.5 -23.5t-16.5 -55.5q0 -30 9 -45t28 -15q21 0 42.5 15t51.5 53l7 -71q-38 -43 -70 -64t-72 -21zM119 571q-11 0 -11 10v64q0 11 11 11h171q11 0 11 -11v-64q0 -10 -11 -10h-171z" />
    <glyph glyph-name="Abreve" unicode="&#x102;" horiz-adv-x="476" 
d="M8 0q-11 0 -8 12l165 635q3 8 12 8h121q9 0 13 -8l166 -635q2 -12 -9 -12h-101q-8 0 -12 8l-90 406q-8 34 -14.5 67.5t-12.5 66.5h-2q-7 -33 -13.5 -66.5t-13.5 -67.5l-91 -405q-1 -9 -11 -9h-99zM130 140l19 94h174l20 -94h-213zM238 709q-38 0 -66.5 13t-42.5 24
q-5 5 -5 13v57q0 15 11 7q19 -12 45 -23t58 -11t58 11t44 23q11 8 11 -7v-57q0 -8 -4 -13q-14 -12 -42.5 -24.5t-66.5 -12.5z" />
    <glyph glyph-name="abreve" unicode="&#x103;" horiz-adv-x="409" 
d="M280 0q-8 0 -11 11q-2 14 -4.5 39.5t-3.5 46.5l-8 22v229q0 37 -11 50.5t-41 13.5q-54 0 -50 -57q1 -11 -11 -11h-80q-11 0 -12 15q-6 68 35 105t122 37q83 0 120.5 -36.5t37.5 -117.5v-222q0 -40 1 -67t3 -46q2 -12 -10 -12h-77zM133 -8q-49 0 -76 35t-27 99
q0 72 37 111t125 48l72 8l-1 -68l-54 -6q-39 -5 -55.5 -23.5t-16.5 -55.5q0 -30 9 -45t28 -15q21 0 42.5 15t51.5 53l7 -71q-38 -43 -70 -64t-72 -21zM205 549q-37 0 -62.5 14t-39.5 25q-4 6 -4 13v59q0 7 3 8.5t8 -2.5q17 -13 41 -24.5t54 -11.5t53.5 11.5t40.5 24.5
q4 4 7.5 2.5t3.5 -8.5v-59q0 -9 -4 -13q-15 -12 -39.5 -25.5t-61.5 -13.5z" />
    <glyph glyph-name="Aogonek" unicode="&#x104;" horiz-adv-x="476" 
d="M8 0q-11 0 -8 12l165 635q3 8 12 8h121q9 0 13 -8l166 -635q2 -12 -9 -12h-101q-8 0 -12 8l-90 406q-8 34 -14.5 67.5t-12.5 66.5h-2q-7 -33 -13.5 -66.5t-13.5 -67.5l-91 -405q-1 -9 -11 -9h-99zM130 140l19 94h174l20 -94h-213zM419 -194q-44 0 -66.5 19.5t-22.5 56.5
v11q0 43 31.5 77t87.5 55l14 -13v-9q-23 -15 -36.5 -36.5t-13.5 -41.5v-8q0 -15 7.5 -22t20.5 -7q5 0 11 0.5t12 1.5q10 2 10 -8v-59q0 -6 -2 -8t-7 -3q-11 -3 -23 -4.5t-23 -1.5z" />
    <glyph glyph-name="aogonek" unicode="&#x105;" horiz-adv-x="409" 
d="M280 0q-8 0 -11 11q-2 14 -4.5 39.5t-3.5 46.5l-8 22v229q0 37 -11 50.5t-41 13.5q-54 0 -50 -57q1 -11 -11 -11h-80q-11 0 -12 15q-6 68 35 105t122 37q83 0 120.5 -36.5t37.5 -117.5v-222q0 -40 1 -67t3 -46q2 -12 -10 -12h-77zM133 -8q-49 0 -76 35t-27 99
q0 72 37 111t125 48l72 8l-1 -68l-54 -6q-39 -5 -55.5 -23.5t-16.5 -55.5q0 -30 9 -45t28 -15q21 0 42.5 15t51.5 53l7 -71q-38 -43 -70 -64t-72 -21zM315 -194q-44 0 -66.5 19.5t-22.5 56.5v11q0 43 31.5 77t87.5 55l14 -13v-9q-23 -15 -36.5 -36.5t-13.5 -41.5v-8
q0 -15 7.5 -22t20.5 -7q5 0 11 0.5t12 1.5q10 2 10 -8v-59q0 -6 -2 -8t-7 -3q-11 -3 -23 -4.5t-23 -1.5z" />
    <glyph glyph-name="Cacute" unicode="&#x106;" horiz-adv-x="513" 
d="M259 -8q-104 0 -159.5 56.5t-55.5 171.5v214q0 114 55.5 171.5t159.5 57.5q72 0 122 -28t73 -79.5t14 -121.5q0 -12 -10 -12h-92q-10 0 -10 12q5 62 -19 95t-77 33q-51 0 -77 -31.5t-26 -99.5v-206q0 -69 26.5 -100.5t76.5 -31.5q55 0 78 35t20 93q-2 12 9 12h91
q10 0 11 -12q9 -106 -46 -167.5t-164 -61.5zM196 710q-5 0 -7 3.5t0 8.5l57 108q5 8 14 8h81q6 0 7.5 -4t-2.5 -10l-71 -106q-5 -8 -15 -8h-64z" />
    <glyph glyph-name="cacute" unicode="&#x107;" horiz-adv-x="422" 
d="M218 -8q-89 0 -134.5 46.5t-45.5 138.5v140q0 90 46 137t133 47q55 0 93.5 -20.5t57.5 -58t15 -86.5q-1 -17 -11 -17h-81q-10 0 -10 13q2 36 -14.5 53.5t-47.5 17.5q-36 0 -53.5 -20.5t-17.5 -70.5v-130q0 -50 17 -71.5t53 -21.5q32 0 47.5 18t14.5 53q0 14 10 14h82
q11 0 11 -12q1 -83 -40.5 -126.5t-124.5 -43.5zM154 557q-12 0 -7 12l66 124q5 9 14 9h80q6 0 7.5 -4t-1.5 -9l-82 -124q-4 -8 -15 -8h-62z" />
    <glyph glyph-name="Cdotaccent" unicode="&#x10a;" horiz-adv-x="513" 
d="M259 -8q-104 0 -159.5 56.5t-55.5 171.5v214q0 114 55.5 171.5t159.5 57.5q72 0 122 -28t73 -79.5t14 -121.5q0 -12 -10 -12h-92q-10 0 -10 12q5 62 -19 95t-77 33q-51 0 -77 -31.5t-26 -99.5v-206q0 -69 26.5 -100.5t76.5 -31.5q55 0 78 35t20 93q-2 12 9 12h91
q10 0 11 -12q9 -106 -46 -167.5t-164 -61.5zM257 726q-31 0 -48 15.5t-17 43.5v15q0 28 17 44t48 16q32 0 48.5 -16t16.5 -44v-15q0 -28 -16.5 -43.5t-48.5 -15.5z" />
    <glyph glyph-name="cdotaccent" unicode="&#x10b;" horiz-adv-x="422" 
d="M218 -8q-89 0 -134.5 46.5t-45.5 138.5v140q0 90 46 137t133 47q55 0 93.5 -20.5t57.5 -58t15 -86.5q-1 -17 -11 -17h-81q-10 0 -10 13q2 36 -14.5 53.5t-47.5 17.5q-36 0 -53.5 -20.5t-17.5 -70.5v-130q0 -50 17 -71.5t53 -21.5q32 0 47.5 18t14.5 53q0 14 10 14h82
q11 0 11 -12q1 -83 -40.5 -126.5t-124.5 -43.5zM213 564q-31 0 -48 16t-17 44v14q0 28 17 44.5t48 16.5q32 0 48.5 -16.5t16.5 -44.5v-14q0 -28 -16.5 -44t-48.5 -16z" />
    <glyph glyph-name="Ccaron" unicode="&#x10c;" horiz-adv-x="513" 
d="M259 -8q-104 0 -159.5 56.5t-55.5 171.5v214q0 114 55.5 171.5t159.5 57.5q72 0 122 -28t73 -79.5t14 -121.5q0 -12 -10 -12h-92q-10 0 -10 12q5 62 -19 95t-77 33q-51 0 -77 -31.5t-26 -99.5v-206q0 -69 26.5 -100.5t76.5 -31.5q55 0 78 35t20 93q-2 12 9 12h91
q10 0 11 -12q9 -106 -46 -167.5t-164 -61.5zM252 716l-103 49q-6 3 -6 12v58q0 10 11 5l104 -41l104 41q12 5 12 -5v-58q0 -9 -7 -12l-102 -49q-7 -4 -13 0z" />
    <glyph glyph-name="ccaron" unicode="&#x10d;" horiz-adv-x="422" 
d="M218 -8q-89 0 -134.5 46.5t-45.5 138.5v140q0 90 46 137t133 47q55 0 93.5 -20.5t57.5 -58t15 -86.5q-1 -17 -11 -17h-81q-10 0 -10 13q2 36 -14.5 53.5t-47.5 17.5q-36 0 -53.5 -20.5t-17.5 -70.5v-130q0 -50 17 -71.5t53 -21.5q32 0 47.5 18t14.5 53q0 14 10 14h82
q11 0 11 -12q1 -83 -40.5 -126.5t-124.5 -43.5zM208 552l-95 53q-6 4 -6 13v60q0 11 11 5l96 -48l95 48q12 6 12 -5v-60q0 -9 -6 -13l-94 -53q-7 -5 -13 0z" />
    <glyph glyph-name="Dcaron" unicode="&#x10e;" horiz-adv-x="517" 
d="M66 0q-11 0 -11 11v633q0 11 10 11h160q127 0 190.5 -69.5t63.5 -208.5v-78q0 -151 -63 -225t-188 -74h-162zM167 100h55q75 0 109.5 48.5t34.5 148.5v81q0 89 -35 133t-112 44h-52v-455zM223 717l-103 49q-6 3 -6 12v58q0 10 11 5l104 -41l104 41q12 5 12 -5v-58
q0 -9 -7 -12l-102 -49q-7 -4 -13 0z" />
    <glyph glyph-name="dcaron" unicode="&#x10f;" horiz-adv-x="436" 
d="M152 -8q-56 0 -84 36t-28 111v195q0 84 35.5 125.5t100.5 41.5q30 0 61.5 -8.5t53.5 -21.5l1 -86q-21 11 -42 16.5t-38 5.5q-31 0 -46.5 -20.5t-15.5 -62.5v-173q0 -32 11.5 -47t35.5 -15t46 15t48 46l10 -71q-32 -40 -68 -63.5t-81 -23.5zM307 0q-10 0 -11 11
q-3 17 -5 42t-2 42l-10 28v549q0 11 11 11h89q10 0 10 -11v-548q0 -34 1 -63t3 -48q2 -13 -9 -13h-77zM457 529q-8 0 -7 10l13 57q-11 5 -18.5 13.5t-7.5 24.5v17q0 21 13 32t37 11q23 0 35.5 -10.5t12.5 -31.5v-19q0 -10 -1.5 -20.5t-6.5 -22.5l-19 -54q-3 -7 -9 -7h-42z
" />
    <glyph glyph-name="Dcroat" unicode="&#x110;" horiz-adv-x="520" 
d="M14 288q-10 0 -10 11v65q0 11 10 11h43h195q9 0 9 -11v-65q0 -11 -9 -11h-238zM69 0q-12 0 -12 11v633q0 11 11 11h159q127 0 190.5 -69.5t63.5 -208.5v-78q0 -151 -62.5 -225t-188.5 -74h-161zM170 100h54q75 0 110 48.5t35 148.5v81q0 89 -35 133t-112 44h-52v-455z
" />
    <glyph glyph-name="dcroat" unicode="&#x111;" horiz-adv-x="440" 
d="M209 553q-10 0 -10 11v56q0 10 10 10h224q10 0 10 -10v-56q0 -11 -10 -11h-44h-180zM152 -8q-56 0 -84 36t-28 111v195q0 84 35.5 125.5t100.5 41.5q30 0 61.5 -8.5t53.5 -21.5l1 -86q-21 11 -42 16.5t-38 5.5q-31 0 -46.5 -20.5t-15.5 -62.5v-173q0 -32 11.5 -47
t35.5 -15t46 15t48 46l10 -71q-32 -40 -68 -63.5t-81 -23.5zM307 0q-10 0 -11 11q-3 17 -5 42t-2 42l-10 28v549q0 11 11 11h89q10 0 10 -11v-548q0 -34 1 -63t3 -48q2 -13 -9 -13h-77z" />
    <glyph glyph-name="Emacron" unicode="&#x112;" horiz-adv-x="434" 
d="M65 0q-10 0 -10 11v633q0 11 10 11h313q10 0 10 -11v-79q0 -11 -10 -11h-211v-174h193q10 0 10 -11v-74q0 -11 -10 -11h-193v-183h211q10 0 10 -11v-79q0 -11 -10 -11h-313zM125 718q-11 0 -11 11v63q0 11 11 11h192q11 0 11 -11v-63q0 -11 -11 -11h-192z" />
    <glyph glyph-name="emacron" unicode="&#x113;" horiz-adv-x="427" 
d="M216 -8q-89 0 -133.5 44t-44.5 135v147q0 91 44.5 137t131.5 46q88 0 131.5 -46t43.5 -137v-87q0 -11 -10 -11h-232v-49q0 -47 16.5 -68t53.5 -21q30 0 45 13t14 41q0 11 10 11h86q8 0 10 -11q1 -71 -40.5 -107.5t-125.5 -36.5zM147 295h134v31q0 44 -16 64.5t-49 20.5
q-36 0 -52.5 -20.5t-16.5 -64.5v-31zM127 574q-11 0 -11 10v64q0 11 11 11h171q11 0 11 -11v-64q0 -10 -11 -10h-171z" />
    <glyph glyph-name="Edotaccent" unicode="&#x116;" horiz-adv-x="434" 
d="M65 0q-10 0 -10 11v633q0 11 10 11h313q10 0 10 -11v-79q0 -11 -10 -11h-211v-174h193q10 0 10 -11v-74q0 -11 -10 -11h-193v-183h211q10 0 10 -11v-79q0 -11 -10 -11h-313zM221 726q-31 0 -48 15.5t-17 43.5v15q0 28 17 44t48 16q32 0 48.5 -16t16.5 -44v-15
q0 -28 -16.5 -43.5t-48.5 -15.5z" />
    <glyph glyph-name="edotaccent" unicode="&#x117;" horiz-adv-x="427" 
d="M216 -8q-89 0 -133.5 44t-44.5 135v147q0 91 44.5 137t131.5 46q88 0 131.5 -46t43.5 -137v-87q0 -11 -10 -11h-232v-49q0 -47 16.5 -68t53.5 -21q30 0 45 13t14 41q0 11 10 11h86q8 0 10 -11q1 -71 -40.5 -107.5t-125.5 -36.5zM147 295h134v31q0 44 -16 64.5t-49 20.5
q-36 0 -52.5 -20.5t-16.5 -64.5v-31zM213 567q-31 0 -48 16t-17 44v14q0 28 17 44.5t48 16.5q32 0 48.5 -16.5t16.5 -44.5v-14q0 -28 -16.5 -44t-48.5 -16z" />
    <glyph glyph-name="Eogonek" unicode="&#x118;" horiz-adv-x="434" 
d="M65 0q-10 0 -10 11v633q0 11 10 11h313q10 0 10 -11v-79q0 -11 -10 -11h-211v-174h193q10 0 10 -11v-74q0 -11 -10 -11h-193v-183h211q10 0 10 -11v-79q0 -11 -10 -11h-313zM315 -194q-44 0 -66.5 19.5t-22.5 56.5v11q0 43 31.5 77t87.5 55l14 -13v-9
q-23 -15 -36.5 -36.5t-13.5 -41.5v-8q0 -15 7.5 -22t20.5 -7q5 0 11 0.5t12 1.5q10 2 10 -8v-59q0 -6 -2 -8t-7 -3q-11 -3 -23 -4.5t-23 -1.5z" />
    <glyph glyph-name="eogonek" unicode="&#x119;" horiz-adv-x="427" 
d="M216 -8q-89 0 -133.5 44t-44.5 135v147q0 91 44.5 137t131.5 46q88 0 131.5 -46t43.5 -137v-87q0 -11 -10 -11h-232v-49q0 -47 16.5 -68t53.5 -21q30 0 45 13t14 41q0 11 10 11h86q8 0 10 -11q1 -71 -40.5 -107.5t-125.5 -36.5zM147 295h134v31q0 44 -16 64.5t-49 20.5
q-36 0 -52.5 -20.5t-16.5 -64.5v-31zM255 -193q-44 0 -66.5 19.5t-22.5 56.5v11q0 43 31.5 77t87.5 55l14 -13v-9q-23 -15 -36.5 -36.5t-13.5 -41.5v-8q0 -15 7.5 -22t20.5 -7q5 0 11 0.5t12 1.5q10 2 10 -8v-59q0 -6 -2 -8t-7 -3q-11 -3 -23 -4.5t-23 -1.5z" />
    <glyph glyph-name="Ecaron" unicode="&#x11a;" horiz-adv-x="434" 
d="M65 0q-10 0 -10 11v633q0 11 10 11h313q10 0 10 -11v-79q0 -11 -10 -11h-211v-174h193q10 0 10 -11v-74q0 -11 -10 -11h-193v-183h211q10 0 10 -11v-79q0 -11 -10 -11h-313zM216 716l-103 49q-6 3 -6 12v58q0 10 11 5l104 -41l104 41q12 5 12 -5v-58q0 -9 -7 -12
l-102 -49q-7 -4 -13 0z" />
    <glyph glyph-name="ecaron" unicode="&#x11b;" horiz-adv-x="427" 
d="M216 -8q-89 0 -133.5 44t-44.5 135v147q0 91 44.5 137t131.5 46q88 0 131.5 -46t43.5 -137v-87q0 -11 -10 -11h-232v-49q0 -47 16.5 -68t53.5 -21q30 0 45 13t14 41q0 11 10 11h86q8 0 10 -11q1 -71 -40.5 -107.5t-125.5 -36.5zM147 295h134v31q0 44 -16 64.5t-49 20.5
q-36 0 -52.5 -20.5t-16.5 -64.5v-31zM207 555l-95 53q-6 4 -6 13v60q0 11 11 5l96 -48l95 48q12 6 12 -5v-60q0 -9 -6 -13l-94 -53q-7 -5 -13 0z" />
    <glyph glyph-name="Gbreve" unicode="&#x11e;" horiz-adv-x="525" 
d="M233 -8q-89 0 -139 56t-50 165v222q0 111 56 169.5t160 58.5q71 0 119 -26.5t71.5 -75t16.5 -113.5q0 -11 -10 -11h-92q-11 0 -10 12q4 53 -19.5 83t-73.5 30q-53 0 -79 -31t-26 -98v-213q0 -67 24 -97t77 -30q51 0 77 31t26 91v40h-94q-10 0 -10 11v64q0 11 10 11h193
q10 0 10 -11v-184q0 -43 1.5 -75.5t5.5 -58.5q2 -12 -10 -12h-73q-9 0 -11 10q-2 12 -3.5 28.5t-2.5 37.5h-1q-13 -26 -32.5 -45t-46.5 -29t-64 -10zM258 709q-38 0 -66.5 13t-42.5 24q-5 5 -5 13v57q0 15 11 7q19 -12 45 -23t58 -11t58 11t44 23q11 8 11 -7v-57
q0 -8 -4 -13q-14 -12 -42.5 -24.5t-66.5 -12.5z" />
    <glyph glyph-name="gbreve" unicode="&#x11f;" horiz-adv-x="421" 
d="M205 -193q-98 0 -143 29.5t-45 89.5q0 40 19 69.5t57 48.5l79 -26q-22 -10 -33.5 -28t-11.5 -40q0 -29 19 -41.5t64 -13.5q51 0 69.5 13.5t18.5 44.5q0 26 -11 38.5t-38 13.5l-118 9q-41 4 -64 27.5t-23 63.5q0 36 19.5 59.5t49.5 40.5l63 -32q-19 -6 -28 -17t-9 -23
t8.5 -20t28.5 -10l108 -9q63 -5 91.5 -39t28.5 -103q0 -76 -47 -110.5t-152 -34.5zM213 159q-83 0 -121.5 41t-38.5 130q0 88 38 129.5t123 41.5q84 0 121 -41.5t37 -129.5q0 -90 -37.5 -130.5t-121.5 -40.5zM213 246q32 0 44 18t12 64q0 48 -12 66.5t-44 18.5t-43.5 -18.5
t-11.5 -66.5q0 -46 11.5 -64t43.5 -18zM213 549q-37 0 -62.5 14t-39.5 25q-4 6 -4 13v59q0 7 3 8.5t8 -2.5q17 -13 41 -24.5t54 -11.5t53.5 11.5t40.5 24.5q4 4 7.5 2.5t3.5 -8.5v-59q0 -9 -4 -13q-15 -12 -39.5 -25.5t-61.5 -13.5z" />
    <glyph glyph-name="Gdotaccent" unicode="&#x120;" horiz-adv-x="525" 
d="M233 -8q-89 0 -139 56t-50 165v222q0 111 56 169.5t160 58.5q71 0 119 -26.5t71.5 -75t16.5 -113.5q0 -11 -10 -11h-92q-11 0 -10 12q4 53 -19.5 83t-73.5 30q-53 0 -79 -31t-26 -98v-213q0 -67 24 -97t77 -30q51 0 77 31t26 91v40h-94q-10 0 -10 11v64q0 11 10 11h193
q10 0 10 -11v-184q0 -43 1.5 -75.5t5.5 -58.5q2 -12 -10 -12h-73q-9 0 -11 10q-2 12 -3.5 28.5t-2.5 37.5h-1q-13 -26 -32.5 -45t-46.5 -29t-64 -10zM257 726q-31 0 -48 15.5t-17 43.5v15q0 28 17 44t48 16q32 0 48.5 -16t16.5 -44v-15q0 -28 -16.5 -43.5t-48.5 -15.5z" />
    <glyph glyph-name="gdotaccent" unicode="&#x121;" horiz-adv-x="421" 
d="M205 -193q-98 0 -143 29.5t-45 89.5q0 40 19 69.5t57 48.5l79 -26q-22 -10 -33.5 -28t-11.5 -40q0 -29 19 -41.5t64 -13.5q51 0 69.5 13.5t18.5 44.5q0 26 -11 38.5t-38 13.5l-118 9q-41 4 -64 27.5t-23 63.5q0 36 19.5 59.5t49.5 40.5l63 -32q-19 -6 -28 -17t-9 -23
t8.5 -20t28.5 -10l108 -9q63 -5 91.5 -39t28.5 -103q0 -76 -47 -110.5t-152 -34.5zM213 159q-83 0 -121.5 41t-38.5 130q0 88 38 129.5t123 41.5q84 0 121 -41.5t37 -129.5q0 -90 -37.5 -130.5t-121.5 -40.5zM213 246q32 0 44 18t12 64q0 48 -12 66.5t-44 18.5t-43.5 -18.5
t-11.5 -66.5q0 -46 11.5 -64t43.5 -18zM212 564q-31 0 -48 16t-17 44v14q0 28 17 44.5t48 16.5q32 0 48.5 -16.5t16.5 -44.5v-14q0 -28 -16.5 -44t-48.5 -16z" />
    <glyph glyph-name="uni0122" unicode="&#x122;" horiz-adv-x="525" 
d="M233 -8q-89 0 -139 56t-50 165v222q0 111 56 169.5t160 58.5q71 0 119 -26.5t71.5 -75t16.5 -113.5q0 -11 -10 -11h-92q-11 0 -10 12q4 53 -19.5 83t-73.5 30q-53 0 -79 -31t-26 -98v-213q0 -67 24 -97t77 -30q51 0 77 31t26 91v40h-94q-10 0 -10 11v64q0 11 10 11h193
q10 0 10 -11v-184q0 -43 1.5 -75.5t5.5 -58.5q2 -12 -10 -12h-73q-9 0 -11 10q-2 12 -3.5 28.5t-2.5 37.5h-1q-13 -26 -32.5 -45t-46.5 -29t-64 -10zM222 -245q-8 0 -6 11l15 69q-12 5 -19.5 15.5t-7.5 29.5v17q0 24 14 36.5t39 12.5q26 0 39.5 -12.5t13.5 -36.5v-18
q0 -13 -2.5 -25t-6.5 -25l-23 -67q-2 -7 -10 -7h-46z" />
    <glyph glyph-name="uni0123" unicode="&#x123;" horiz-adv-x="421" 
d="M205 -193q-98 0 -143 29.5t-45 89.5q0 40 19 69.5t57 48.5l79 -26q-22 -10 -33.5 -28t-11.5 -40q0 -29 19 -41.5t64 -13.5q51 0 69.5 13.5t18.5 44.5q0 26 -11 38.5t-38 13.5l-118 9q-41 4 -64 27.5t-23 63.5q0 36 19.5 59.5t49.5 40.5l63 -32q-19 -6 -28 -17t-9 -23
t8.5 -20t28.5 -10l108 -9q63 -5 91.5 -39t28.5 -103q0 -76 -47 -110.5t-152 -34.5zM213 159q-83 0 -121.5 41t-38.5 130q0 88 38 129.5t123 41.5q84 0 121 -41.5t37 -129.5q0 -90 -37.5 -130.5t-121.5 -40.5zM213 246q32 0 44 18t12 64q0 48 -12 66.5t-44 18.5t-43.5 -18.5
t-11.5 -66.5q0 -46 11.5 -64t43.5 -18zM213 559q-27 0 -40.5 12.5t-13.5 36.5v18q0 14 2.5 25.5t6.5 24.5l22 66q3 8 11 8h45q9 0 7 -11l-15 -70q12 -4 19.5 -14.5t7.5 -29.5v-17q0 -24 -14 -36.5t-38 -12.5z" />
    <glyph glyph-name="Hbar" unicode="&#x126;" horiz-adv-x="533" 
d="M18 507q-11 0 -11 11v58q0 11 11 11h497q11 0 11 -11v-58q0 -11 -11 -11h-37h-423h-37zM65 0q-10 0 -10 11v633q0 11 10 11h92q10 0 10 -11v-259h198v259q0 11 11 11h91q11 0 11 -11v-633q0 -11 -11 -11h-91q-11 0 -11 11v273h-198v-273q0 -11 -10 -11h-92z" />
    <glyph glyph-name="hbar" unicode="&#x127;" horiz-adv-x="449" 
d="M7 553q-10 0 -10 11v56q0 10 10 10h224q10 0 10 -10v-56q0 -11 -10 -11h-180h-44zM302 0q-10 0 -10 11v332q0 32 -11 46t-35 14q-23 0 -46 -15t-49 -43l-10 68q32 40 69.5 64t81.5 24q55 0 82.5 -34.5t27.5 -107.5v-348q0 -11 -10 -11h-90zM61 0q-10 0 -10 11v661
q0 11 10 11h90q10 0 10 -11v-661q0 -11 -10 -11h-90z" />
    <glyph glyph-name="Imacron" unicode="&#x12a;" horiz-adv-x="222" 
d="M65 0q-10 0 -10 11v633q0 11 10 11h92q10 0 10 -11v-633q0 -11 -10 -11h-92zM16 718q-11 0 -11 11v63q0 11 11 11h192q11 0 11 -11v-63q0 -11 -11 -11h-192z" />
    <glyph glyph-name="imacron" unicode="&#x12b;" horiz-adv-x="203" 
d="M57 0q-10 0 -10 11v470q0 11 10 11h89q11 0 11 -11v-470q0 -11 -11 -11h-89zM17 571q-11 0 -11 10v64q0 11 11 11h171q11 0 11 -11v-64q0 -10 -11 -10h-171z" />
    <glyph glyph-name="Iogonek" unicode="&#x12e;" horiz-adv-x="222" 
d="M65 0q-10 0 -10 11v633q0 11 10 11h92q10 0 10 -11v-633q0 -11 -10 -11h-92zM117 -194q-44 0 -66.5 19.5t-22.5 56.5v11q0 43 31.5 77t87.5 55l14 -13v-9q-23 -15 -36.5 -36.5t-13.5 -41.5v-8q0 -15 7.5 -22t20.5 -7q5 0 11 0.5t12 1.5q10 2 10 -8v-59q0 -6 -2 -8t-7 -3
q-11 -3 -23 -4.5t-23 -1.5z" />
    <glyph glyph-name="iogonek" unicode="&#x12f;" horiz-adv-x="203" 
d="M57 0q-10 0 -10 11v470q0 11 10 11h89q11 0 11 -11v-470q0 -11 -11 -11h-89zM102 564q-31 0 -48 16t-17 44v14q0 28 17 44.5t48 16.5q32 0 48.5 -16.5t16.5 -44.5v-14q0 -28 -16.5 -44t-48.5 -16zM101 -194q-44 0 -66.5 19.5t-22.5 56.5v11q0 43 31.5 77t87.5 55l14 -13
v-9q-23 -15 -36.5 -36.5t-13.5 -41.5v-8q0 -15 7.5 -22t20.5 -7q5 0 11 0.5t12 1.5q10 2 10 -8v-59q0 -6 -2 -8t-7 -3q-11 -3 -23 -4.5t-23 -1.5z" />
    <glyph glyph-name="Idotaccent" unicode="&#x130;" horiz-adv-x="222" 
d="M65 0q-10 0 -10 11v633q0 11 10 11h92q10 0 10 -11v-633q0 -11 -10 -11h-92zM112 726q-31 0 -48 15.5t-17 43.5v15q0 28 17 44t48 16q32 0 48.5 -16t16.5 -44v-15q0 -28 -16.5 -43.5t-48.5 -15.5z" />
    <glyph glyph-name="dotlessi" unicode="&#x131;" horiz-adv-x="203" 
d="M57 0q-10 0 -10 11v470q0 11 10 11h89q11 0 11 -11v-470q0 -11 -11 -11h-89z" />
    <glyph glyph-name="IJ" unicode="&#x132;" horiz-adv-x="447" 
d="M65 0q-10 0 -10 11v633q0 11 10 11h92q10 0 10 -11v-633q0 -11 -10 -11h-92zM250 -151q-13 -3 -16 8l-23 76q-2 6 0.5 10.5t8.5 5.5q20 6 33 20.5t20 42.5t7 71v561q0 11 10 11h93q9 0 9 -11v-556q0 -74 -15.5 -123.5t-47 -77.5t-79.5 -38z" />
    <glyph glyph-name="ij" unicode="&#x133;" horiz-adv-x="403" 
d="M57 0q-10 0 -10 11v470q0 11 10 11h89q11 0 11 -11v-470q0 -11 -11 -11h-89zM102 564q-31 0 -48 16t-17 44v14q0 28 17 44.5t48 16.5q32 0 48.5 -16.5t16.5 -44.5v-14q0 -28 -16.5 -44t-48.5 -16zM256 -189q-8 -5 -14 3l-51 63q-9 9 0 16q20 17 32.5 41t18.5 57.5t6 80.5
v409q0 11 10 11h89q11 0 11 -11v-412q0 -64 -9.5 -112.5t-31.5 -83.5t-61 -62zM305 564q-31 0 -48 16t-17 44v14q0 28 17 44.5t48 16.5q32 0 48.5 -16.5t16.5 -44.5v-14q0 -28 -16.5 -44t-48.5 -16z" />
    <glyph glyph-name="uni0136" unicode="&#x136;" horiz-adv-x="493" 
d="M65 0q-10 0 -10 11v633q0 11 10 11h92q10 0 10 -11v-164q0 -20 -0.5 -43t-1.5 -47t-3 -45h3q14 30 30.5 63t35.5 67l111 175q2 5 12 5h108q6 0 7.5 -3.5t-1.5 -10.5l-162 -255l180 -372q3 -6 1 -10t-8 -4h-111q-8 0 -12 7l-128 281l-61 -89v-188q0 -11 -10 -11h-92z
M220 -245q-8 0 -6 11l15 69q-12 5 -19.5 15.5t-7.5 29.5v17q0 24 14 36.5t39 12.5q26 0 39.5 -12.5t13.5 -36.5v-18q0 -13 -2.5 -25t-6.5 -25l-23 -67q-2 -7 -10 -7h-46z" />
    <glyph glyph-name="uni0137" unicode="&#x137;" horiz-adv-x="422" 
d="M57 0q-10 0 -10 11v661q0 11 10 11h89q11 0 11 -11v-250q0 -32 -1 -66.5t-3 -67.5h2q13 24 26 47.5t28 46.5l70 104q4 6 11 6h105q7 0 8 -4t-2 -9l-128 -187l139 -278q3 -6 1 -10t-8 -4h-103q-8 0 -12 7l-93 198l-40 -54v-140q0 -11 -10 -11h-90zM186 -248q-9 0 -7 10
l15 69q-12 6 -19.5 16.5t-7.5 29.5v16q0 25 14 37t39 12q26 0 39.5 -12t13.5 -37v-17q0 -14 -2.5 -25.5t-6.5 -24.5l-23 -67q-2 -7 -10 -7h-45z" />
    <glyph glyph-name="kgreenlandic" unicode="&#x138;" horiz-adv-x="422" 
d="M57 0q-10 0 -10 11v470q0 11 10 11h89q11 0 11 -11v-61q0 -31 -1 -66t-3 -68h2q13 24 26 48.5t28 47.5l70 104q4 6 11 6h105q7 0 8 -4t-2 -9l-128 -187l139 -278q3 -6 1 -10t-8 -4h-103q-8 0 -12 7l-93 198l-40 -54v-140q0 -11 -10 -11h-90z" />
    <glyph glyph-name="Lacute" unicode="&#x139;" horiz-adv-x="393" 
d="M65 0q-10 0 -10 11v633q0 11 10 11h92q5 0 7.5 -3t2.5 -8v-543h201q9 0 9 -11v-79q0 -11 -9 -11h-303zM50 710q-5 0 -7 3.5t0 8.5l57 108q5 8 14 8h81q6 0 7.5 -4t-2.5 -10l-71 -106q-5 -8 -15 -8h-64z" />
    <glyph glyph-name="lacute" unicode="&#x13a;" horiz-adv-x="203" 
d="M57 0q-10 0 -10 11v661q0 11 10 11h89q11 0 11 -11v-661q0 -11 -11 -11h-89zM41 738q-5 0 -7 3.5t0 8.5l57 108q5 8 14 8h81q6 0 7.5 -4t-2.5 -10l-71 -106q-5 -8 -15 -8h-64z" />
    <glyph glyph-name="uni013B" unicode="&#x13b;" horiz-adv-x="393" 
d="M65 0q-10 0 -10 11v633q0 11 10 11h92q5 0 7.5 -3t2.5 -8v-543h201q9 0 9 -11v-79q0 -11 -9 -11h-303zM184 -245q-8 0 -6 11l15 69q-12 5 -19.5 15.5t-7.5 29.5v17q0 24 14 36.5t39 12.5q26 0 39.5 -12.5t13.5 -36.5v-18q0 -13 -2.5 -25t-6.5 -25l-23 -67q-2 -7 -10 -7
h-46z" />
    <glyph glyph-name="uni013C" unicode="&#x13c;" horiz-adv-x="203" 
d="M57 0q-10 0 -10 11v661q0 11 10 11h89q11 0 11 -11v-661q0 -11 -11 -11h-89zM69 -248q-9 0 -7 10l15 69q-12 6 -19.5 16.5t-7.5 29.5v16q0 25 14 37t39 12q26 0 39.5 -12t13.5 -37v-17q0 -14 -2.5 -25.5t-6.5 -24.5l-23 -67q-2 -7 -10 -7h-45z" />
    <glyph glyph-name="Lcaron" unicode="&#x13d;" horiz-adv-x="393" 
d="M65 0q-10 0 -10 11v633q0 11 10 11h92q5 0 7.5 -3t2.5 -8v-543h201q9 0 9 -11v-79q0 -11 -9 -11h-303zM249 502q-8 0 -7 10l13 57q-11 5 -18.5 13.5t-7.5 24.5v17q0 21 13 32t37 11q23 0 35.5 -10.5t12.5 -31.5v-19q0 -10 -1.5 -20.5t-6.5 -22.5l-19 -54q-3 -7 -9 -7h-42
z" />
    <glyph glyph-name="lcaron" unicode="&#x13e;" horiz-adv-x="198" 
d="M57 0q-10 0 -10 11v661q0 11 10 11h89q11 0 11 -11v-661q0 -11 -11 -11h-89zM218 529q-8 0 -7 10l13 57q-11 5 -18.5 13.5t-7.5 24.5v17q0 21 13 32t37 11q23 0 35.5 -10.5t12.5 -31.5v-19q0 -10 -1.5 -20.5t-6.5 -22.5l-19 -54q-3 -7 -9 -7h-42z" />
    <glyph glyph-name="Lslash" unicode="&#x141;" horiz-adv-x="395" 
d="M7 254q-11 -4 -11 7v73q0 9 8 12l256 117q5 3 8 1t3 -8v-72q0 -9 -7 -12zM67 0q-10 0 -10 11v633q0 11 10 11h92q5 0 7.5 -3t2.5 -8v-543h200q10 0 10 -11v-79q0 -11 -10 -11h-302z" />
    <glyph glyph-name="lslash" unicode="&#x142;" horiz-adv-x="206" 
d="M7 328q-4 -2 -7 0.5t-3 6.5v68q0 8 7 11l195 98q10 5 10 -7v-68q0 -7 -8 -11l-154 -76zM58 0q-11 0 -11 11v661q0 11 11 11h89q10 0 10 -11v-661q0 -11 -10 -11h-89z" />
    <glyph glyph-name="Nacute" unicode="&#x143;" horiz-adv-x="534" 
d="M64 0q-9 0 -9 11v633q0 11 10 11h127q8 0 11 -7l117 -327q11 -27 21.5 -58.5t19.5 -61t16 -53.5h2q-2 27 -3.5 62t-2.5 71t-1 62v301q0 11 10 11h87q11 0 11 -11v-633q0 -11 -11 -11h-125q-8 0 -12 7l-116 318q-17 46 -31 92.5t-26 86.5h-2q2 -29 2.5 -65.5t1.5 -72.5
t1 -66v-289q0 -11 -10 -11h-88zM206 710q-5 0 -7 3.5t0 8.5l57 108q5 8 14 8h81q6 0 7.5 -4t-2.5 -10l-71 -106q-5 -8 -15 -8h-64z" />
    <glyph glyph-name="nacute" unicode="&#x144;" horiz-adv-x="445" 
d="M299 0q-11 0 -11 11v332q0 32 -11 46t-36 14q-22 0 -44.5 -14.5t-49.5 -43.5l-11 68q33 40 70 64t82 24q55 0 82.5 -34.5t27.5 -107.5v-348q0 -11 -10 -11h-89zM57 0q-10 0 -10 11v356q0 35 -1 63.5t-3 48.5q-1 13 9 13h78q9 0 11 -10q2 -16 4.5 -43t3.5 -45l8 -28v-355
q0 -11 -11 -11h-89zM166 557q-12 0 -7 12l66 124q5 9 14 9h80q6 0 7.5 -4t-1.5 -9l-82 -124q-4 -8 -15 -8h-62z" />
    <glyph glyph-name="uni0145" unicode="&#x145;" horiz-adv-x="534" 
d="M64 0q-9 0 -9 11v633q0 11 10 11h127q8 0 11 -7l117 -327q11 -27 21.5 -58.5t19.5 -61t16 -53.5h2q-2 27 -3.5 62t-2.5 71t-1 62v301q0 11 10 11h87q11 0 11 -11v-633q0 -11 -11 -11h-125q-8 0 -12 7l-116 318q-17 46 -31 92.5t-26 86.5h-2q2 -29 2.5 -65.5t1.5 -72.5
t1 -66v-289q0 -11 -10 -11h-88zM232 -245q-8 0 -6 11l15 69q-12 5 -19.5 15.5t-7.5 29.5v17q0 24 14 36.5t39 12.5q26 0 39.5 -12.5t13.5 -36.5v-18q0 -13 -2.5 -25t-6.5 -25l-23 -67q-2 -7 -10 -7h-46z" />
    <glyph glyph-name="uni0146" unicode="&#x146;" horiz-adv-x="445" 
d="M299 0q-11 0 -11 11v332q0 32 -11 46t-36 14q-22 0 -44.5 -14.5t-49.5 -43.5l-11 68q33 40 70 64t82 24q55 0 82.5 -34.5t27.5 -107.5v-348q0 -11 -10 -11h-89zM57 0q-10 0 -10 11v356q0 35 -1 63.5t-3 48.5q-1 13 9 13h78q9 0 11 -10q2 -16 4.5 -43t3.5 -45l8 -28v-355
q0 -11 -11 -11h-89zM192 -248q-9 0 -7 10l15 69q-12 6 -19.5 16.5t-7.5 29.5v16q0 25 14 37t39 12q26 0 39.5 -12t13.5 -37v-17q0 -14 -2.5 -25.5t-6.5 -24.5l-23 -67q-2 -7 -10 -7h-45z" />
    <glyph glyph-name="Ncaron" unicode="&#x147;" horiz-adv-x="534" 
d="M64 0q-9 0 -9 11v633q0 11 10 11h127q8 0 11 -7l117 -327q11 -27 21.5 -58.5t19.5 -61t16 -53.5h2q-2 27 -3.5 62t-2.5 71t-1 62v301q0 11 10 11h87q11 0 11 -11v-633q0 -11 -11 -11h-125q-8 0 -12 7l-116 318q-17 46 -31 92.5t-26 86.5h-2q2 -29 2.5 -65.5t1.5 -72.5
t1 -66v-289q0 -11 -10 -11h-88zM261 716l-103 49q-6 3 -6 12v58q0 10 11 5l104 -41l104 41q12 5 12 -5v-58q0 -9 -7 -12l-102 -49q-7 -4 -13 0z" />
    <glyph glyph-name="ncaron" unicode="&#x148;" horiz-adv-x="445" 
d="M299 0q-11 0 -11 11v332q0 32 -11 46t-36 14q-22 0 -44.5 -14.5t-49.5 -43.5l-11 68q33 40 70 64t82 24q55 0 82.5 -34.5t27.5 -107.5v-348q0 -11 -10 -11h-89zM57 0q-10 0 -10 11v356q0 35 -1 63.5t-3 48.5q-1 13 9 13h78q9 0 11 -10q2 -16 4.5 -43t3.5 -45l8 -28v-355
q0 -11 -11 -11h-89zM219 552l-95 53q-6 4 -6 13v60q0 11 11 5l96 -48l95 48q12 6 12 -5v-60q0 -9 -6 -13l-94 -53q-7 -5 -13 0z" />
    <glyph glyph-name="Eng" unicode="&#x14a;" horiz-adv-x="534" 
d="M364 -185l-52 63q-8 9 2 16q22 17 34 43.5t17 62.5h-21q-8 0 -12 7l-116 318q-17 46 -31 92.5t-26 86.5h-2q2 -29 2.5 -65.5t1.5 -72.5t1 -66v-289q0 -11 -10 -11h-88q-9 0 -9 11v633q0 11 10 11h127q8 0 11 -7l117 -327q11 -27 21.5 -58.5t19.5 -61t16 -53.5h2
q-2 27 -3.5 62t-2.5 71t-1 62v301q0 11 10 11h87q11 0 11 -11v-583q-1 -62 -10.5 -108.5t-31 -80t-58.5 -58.5q-10 -7 -16 1z" />
    <glyph glyph-name="eng" unicode="&#x14b;" horiz-adv-x="445" 
d="M295 -188q-7 -5 -12 3l-52 63q-7 9 0 16q21 17 33.5 40.5t18 57.5t5.5 81v270q0 32 -11 46t-36 14q-19 0 -39.5 -11.5t-44.5 -36.5v-344q0 -11 -11 -11h-89q-10 0 -10 11v356q0 35 -1 63.5t-3 48.5q-1 13 9 13h78q9 0 11 -10t3.5 -25.5t2.5 -30.5q32 34 66.5 54.5
t74.5 20.5q55 0 82.5 -34.5t27.5 -107.5v-290q0 -64 -9.5 -112.5t-31.5 -83.5t-62 -61z" />
    <glyph glyph-name="Omacron" unicode="&#x14c;" horiz-adv-x="520" 
d="M259 -8q-105 0 -160 57t-55 166v224q0 110 55 167t160 57q107 0 162 -57t55 -167v-224q0 -109 -55 -166t-162 -57zM259 93q52 0 78 31t26 96v214q0 66 -26 97t-78 31q-50 0 -76 -31t-26 -97v-214q0 -65 26 -96t76 -31zM163 718q-11 0 -11 11v63q0 11 11 11h192
q11 0 11 -11v-63q0 -11 -11 -11h-192z" />
    <glyph glyph-name="omacron" unicode="&#x14d;" horiz-adv-x="436" 
d="M218 -8q-87 0 -133.5 46t-46.5 136v144q0 90 46.5 136.5t133.5 46.5q86 0 132.5 -46.5t46.5 -136.5v-144q0 -90 -46 -136t-133 -46zM218 89q36 0 52.5 21.5t16.5 68.5v134q0 48 -16.5 69t-52.5 21t-53 -21t-17 -69v-134q0 -47 17 -68.5t53 -21.5zM132 571q-11 0 -11 10
v64q0 11 11 11h171q11 0 11 -11v-64q0 -10 -11 -10h-171z" />
    <glyph glyph-name="Ohungarumlaut" unicode="&#x150;" horiz-adv-x="520" 
d="M259 -8q-105 0 -160 57t-55 166v224q0 110 55 167t160 57q107 0 162 -57t55 -167v-224q0 -109 -55 -166t-162 -57zM259 93q52 0 78 31t26 96v214q0 66 -26 97t-78 31q-50 0 -76 -31t-26 -97v-214q0 -65 26 -96t76 -31zM293 710q-13 0 -8 13l43 107q3 9 12 9h76
q5 0 7 -3.5t-1 -9.5l-56 -107q-4 -9 -13 -9h-60zM152 710q-13 0 -8 13l44 107q3 9 12 9h75q6 0 8 -3.5t-1 -9.5l-56 -107q-4 -9 -14 -9h-60z" />
    <glyph glyph-name="ohungarumlaut" unicode="&#x151;" horiz-adv-x="436" 
d="M218 -8q-87 0 -133.5 46t-46.5 136v144q0 90 46.5 136.5t133.5 46.5q86 0 132.5 -46.5t46.5 -136.5v-144q0 -90 -46 -136t-133 -46zM218 89q36 0 52.5 21.5t16.5 68.5v134q0 48 -16.5 69t-52.5 21t-53 -21t-17 -69v-134q0 -47 17 -68.5t53 -21.5zM112 557q-12 0 -8 13
l52 128q3 9 13 9h77q5 0 7 -3t-1 -10l-66 -129q-5 -8 -14 -8h-60zM250 557q-12 0 -7 13l52 128q3 9 12 9h77q6 0 8 -3t-1 -10l-66 -129q-6 -8 -14 -8h-61z" />
    <glyph glyph-name="OE" unicode="&#x152;" horiz-adv-x="703" 
d="M259 -8q-106 0 -160.5 57t-54.5 166v224q0 110 54.5 167t160.5 57q20 0 40.5 -2t36.5 -6h312q10 0 10 -11v-79q0 -11 -10 -11h-211v-174h192q11 0 11 -11v-74q0 -11 -11 -11h-192v-183h211q10 0 10 -11v-79q0 -11 -10 -11h-311q-16 -4 -37 -6t-41 -2zM260 93q39 0 64 9
v452q-13 4 -29 6t-35 2q-51 0 -77 -30.5t-26 -96.5v-216q0 -65 26 -95.5t77 -30.5z" />
    <glyph glyph-name="oe" unicode="&#x153;" horiz-adv-x="674" 
d="M212 -8q-83 0 -128.5 46.5t-45.5 135.5v145q0 89 45.5 135.5t127.5 46.5q45 0 76 -15t51 -43q22 28 54.5 43t74.5 15q82 0 125.5 -46.5t43.5 -136.5v-87q0 -11 -11 -11h-232v-49q0 -47 16 -68t53 -21q30 0 45.5 13t14.5 40q0 12 10 12h85q11 0 11 -12q1 -71 -41.5 -107
t-123.5 -36q-44 0 -74 13t-52 43q-23 -30 -52.5 -43t-72.5 -13zM216 89q35 0 51.5 21t16.5 68v136q0 48 -16.5 68.5t-51.5 20.5q-34 0 -51 -20.5t-17 -68.5v-136q0 -47 17 -68t51 -21zM393 295h134v31q0 44 -15.5 64.5t-51.5 20.5q-34 0 -50.5 -20.5t-16.5 -64.5v-31z" />
    <glyph glyph-name="Racute" unicode="&#x154;" horiz-adv-x="491" 
d="M65 0q-10 0 -10 11v633q0 11 10 11h165q108 0 159 -47.5t51 -144.5q0 -70 -25 -115.5t-73 -64.5v-1l126 -268q6 -14 -7 -14h-103q-8 0 -12 7l-113 257h-66v-253q0 -11 -10 -11h-92zM167 358h62q52 0 75.5 24.5t23.5 75.5q0 53 -23 75t-74 22h-64v-197zM160 710
q-5 0 -7 3.5t0 8.5l57 108q5 8 14 8h81q6 0 7.5 -4t-2.5 -10l-71 -106q-5 -8 -15 -8h-64z" />
    <glyph glyph-name="racute" unicode="&#x155;" horiz-adv-x="309" 
d="M57 0q-10 0 -10 11v356q0 36 -1 63.5t-3 48.5q-2 13 9 13h79q8 0 10 -10q3 -18 5 -43t2 -43l9 -34v-351q0 -11 -11 -11h-89zM147 318l-6 96q16 23 36 42.5t42 32t45 12.5q7 0 12 -0.5t10 -2.5t6.5 -5t1.5 -9q0 -22 -0.5 -47t-2.5 -48q-1 -10 -11 -9q-6 1 -13 2t-15 1
q-17 0 -35.5 -8t-36.5 -22t-33 -35zM111 557q-12 0 -7 12l66 124q5 9 14 9h80q6 0 7.5 -4t-1.5 -9l-82 -124q-4 -8 -15 -8h-62z" />
    <glyph glyph-name="uni0156" unicode="&#x156;" horiz-adv-x="491" 
d="M65 0q-10 0 -10 11v633q0 11 10 11h165q108 0 159 -47.5t51 -144.5q0 -70 -25 -115.5t-73 -64.5v-1l126 -268q6 -14 -7 -14h-103q-8 0 -12 7l-113 257h-66v-253q0 -11 -10 -11h-92zM167 358h62q52 0 75.5 24.5t23.5 75.5q0 53 -23 75t-74 22h-64v-197zM216 -245
q-8 0 -6 11l15 69q-12 5 -19.5 15.5t-7.5 29.5v17q0 24 14 36.5t39 12.5q26 0 39.5 -12.5t13.5 -36.5v-18q0 -13 -2.5 -25t-6.5 -25l-23 -67q-2 -7 -10 -7h-46z" />
    <glyph glyph-name="uni0157" unicode="&#x157;" horiz-adv-x="309" 
d="M57 0q-10 0 -10 11v356q0 36 -1 63.5t-3 48.5q-2 13 9 13h79q8 0 10 -10q3 -18 5 -43t2 -43l9 -34v-351q0 -11 -11 -11h-89zM147 318l-6 96q16 23 36 42.5t42 32t45 12.5q7 0 12 -0.5t10 -2.5t6.5 -5t1.5 -9q0 -22 -0.5 -47t-2.5 -48q-1 -10 -11 -9q-6 1 -13 2t-15 1
q-17 0 -35.5 -8t-36.5 -22t-33 -35zM71 -248q-9 0 -7 10l15 69q-12 6 -19.5 16.5t-7.5 29.5v16q0 25 14 37t39 12q26 0 39.5 -12t13.5 -37v-17q0 -14 -2.5 -25.5t-6.5 -24.5l-23 -67q-2 -7 -10 -7h-45z" />
    <glyph glyph-name="Rcaron" unicode="&#x158;" horiz-adv-x="491" 
d="M65 0q-10 0 -10 11v633q0 11 10 11h165q108 0 159 -47.5t51 -144.5q0 -70 -25 -115.5t-73 -64.5v-1l126 -268q6 -14 -7 -14h-103q-8 0 -12 7l-113 257h-66v-253q0 -11 -10 -11h-92zM167 358h62q52 0 75.5 24.5t23.5 75.5q0 53 -23 75t-74 22h-64v-197zM216 716l-103 49
q-6 3 -6 12v58q0 10 11 5l104 -41l104 41q12 5 12 -5v-58q0 -9 -7 -12l-102 -49q-7 -4 -13 0z" />
    <glyph glyph-name="rcaron" unicode="&#x159;" horiz-adv-x="309" 
d="M57 0q-10 0 -10 11v356q0 36 -1 63.5t-3 48.5q-2 13 9 13h79q8 0 10 -10q3 -18 5 -43t2 -43l9 -34v-351q0 -11 -11 -11h-89zM147 318l-6 96q16 23 36 42.5t42 32t45 12.5q7 0 12 -0.5t10 -2.5t6.5 -5t1.5 -9q0 -22 -0.5 -47t-2.5 -48q-1 -10 -11 -9q-6 1 -13 2t-15 1
q-17 0 -35.5 -8t-36.5 -22t-33 -35zM164 552l-95 53q-6 4 -6 13v60q0 11 11 5l96 -48l95 48q12 6 12 -5v-60q0 -9 -6 -13l-94 -53q-7 -5 -13 0z" />
    <glyph glyph-name="Sacute" unicode="&#x15a;" horiz-adv-x="452" 
d="M221 -8q-107 0 -152 52t-37 142q1 14 11 14h90q10 0 9 -14q-2 -47 18.5 -71.5t63.5 -24.5t62.5 18.5t19.5 57.5q0 21 -5.5 37t-18 29.5t-33.5 25.5l-107 64q-57 34 -81.5 74.5t-23.5 101.5q1 80 47 122.5t135 42.5q99 0 148 -49t41 -139q-2 -16 -11 -16h-91q-11 0 -9 16
q3 41 -16.5 65.5t-58.5 24.5q-35 0 -53.5 -16.5t-19.5 -50.5q-1 -31 13.5 -51.5t46.5 -38.5l105 -62q38 -23 61 -48t33.5 -56.5t9.5 -75.5q0 -84 -47 -129t-150 -45zM162 710q-5 0 -7 3.5t0 8.5l57 108q5 8 14 8h81q6 0 7.5 -4t-2.5 -10l-71 -106q-5 -8 -15 -8h-64z" />
    <glyph glyph-name="sacute" unicode="&#x15b;" horiz-adv-x="384" 
d="M190 -8q-84 0 -122 38.5t-33 116.5q1 12 11 12h83q9 0 9 -12q0 -36 11.5 -53t41.5 -17q27 0 40.5 13t13.5 39q0 21 -10.5 35.5t-33.5 28.5l-89 51q-38 23 -56.5 53t-18.5 75q0 63 38.5 96t114.5 33q81 0 119.5 -36t36.5 -102q-1 -11 -10 -11h-83q-5 0 -8 3t-2 10
q1 24 -11 37t-38 13q-24 0 -36 -10.5t-12 -30.5t9.5 -32.5t33.5 -26.5l85 -51q42 -25 61 -54.5t19 -76.5q0 -70 -41 -105.5t-123 -35.5zM130 557q-12 0 -7 12l66 124q5 9 14 9h80q6 0 7.5 -4t-1.5 -9l-82 -124q-4 -8 -15 -8h-62z" />
    <glyph glyph-name="Scedilla" unicode="&#x15e;" horiz-adv-x="452" 
d="M221 -8q-107 0 -152 52t-37 142q1 14 11 14h90q10 0 9 -14q-2 -47 18.5 -71.5t63.5 -24.5t62.5 18.5t19.5 57.5q0 21 -5.5 37t-18 29.5t-33.5 25.5l-107 64q-57 34 -81.5 74.5t-23.5 101.5q1 80 47 122.5t135 42.5q99 0 148 -49t41 -139q-2 -16 -11 -16h-91q-11 0 -9 16
q3 41 -16.5 65.5t-58.5 24.5q-35 0 -53.5 -16.5t-19.5 -50.5q-1 -31 13.5 -51.5t46.5 -38.5l105 -62q38 -23 61 -48t33.5 -56.5t9.5 -75.5q0 -84 -47 -129t-150 -45zM216 -194q-14 0 -26.5 1t-22.5 3q-5 2 -6.5 3.5t-1.5 5.5v45q0 8 8 7q5 -1 11.5 -1.5t13.5 -0.5
q16 0 23.5 6.5t7.5 18.5v10q0 14 -8 19t-22 5h-14q-7 0 -7 6q0 5 0.5 11t1.5 10l23 77q3 8 10 8h53q11 0 7 -12l-21 -62h6q25 0 39 -16t14 -45v-19q0 -39 -21.5 -59.5t-67.5 -20.5z" />
    <glyph glyph-name="scedilla" unicode="&#x15f;" horiz-adv-x="384" 
d="M190 -8q-84 0 -122 38.5t-33 116.5q1 12 11 12h83q9 0 9 -12q0 -36 11.5 -53t41.5 -17q27 0 40.5 13t13.5 39q0 21 -10.5 35.5t-33.5 28.5l-89 51q-38 23 -56.5 53t-18.5 75q0 63 38.5 96t114.5 33q81 0 119.5 -36t36.5 -102q-1 -11 -10 -11h-83q-5 0 -8 3t-2 10
q1 24 -11 37t-38 13q-24 0 -36 -10.5t-12 -30.5t9.5 -32.5t33.5 -26.5l85 -51q42 -25 61 -54.5t19 -76.5q0 -70 -41 -105.5t-123 -35.5zM190 -194q-14 0 -26.5 1t-22.5 3q-5 2 -6.5 3.5t-1.5 5.5v45q0 8 8 7q5 -1 11.5 -1.5t13.5 -0.5q16 0 23.5 6.5t7.5 18.5v10q0 14 -8 19
t-22 5h-14q-7 0 -7 6q0 5 0.5 11t1.5 10l23 77q3 8 10 8h53q11 0 7 -12l-21 -62h6q25 0 39 -16t14 -45v-19q0 -39 -21.5 -59.5t-67.5 -20.5z" />
    <glyph glyph-name="Scaron" unicode="&#x160;" horiz-adv-x="452" 
d="M221 -8q-107 0 -152 52t-37 142q1 14 11 14h90q10 0 9 -14q-2 -47 18.5 -71.5t63.5 -24.5t62.5 18.5t19.5 57.5q0 21 -5.5 37t-18 29.5t-33.5 25.5l-107 64q-57 34 -81.5 74.5t-23.5 101.5q1 80 47 122.5t135 42.5q99 0 148 -49t41 -139q-2 -16 -11 -16h-91q-11 0 -9 16
q3 41 -16.5 65.5t-58.5 24.5q-35 0 -53.5 -16.5t-19.5 -50.5q-1 -31 13.5 -51.5t46.5 -38.5l105 -62q38 -23 61 -48t33.5 -56.5t9.5 -75.5q0 -84 -47 -129t-150 -45zM218 716l-103 49q-6 3 -6 12v58q0 10 11 5l104 -41l104 41q12 5 12 -5v-58q0 -9 -7 -12l-102 -49
q-7 -4 -13 0z" />
    <glyph glyph-name="scaron" unicode="&#x161;" horiz-adv-x="384" 
d="M190 -8q-84 0 -122 38.5t-33 116.5q1 12 11 12h83q9 0 9 -12q0 -36 11.5 -53t41.5 -17q27 0 40.5 13t13.5 39q0 21 -10.5 35.5t-33.5 28.5l-89 51q-38 23 -56.5 53t-18.5 75q0 63 38.5 96t114.5 33q81 0 119.5 -36t36.5 -102q-1 -11 -10 -11h-83q-5 0 -8 3t-2 10
q1 24 -11 37t-38 13q-24 0 -36 -10.5t-12 -30.5t9.5 -32.5t33.5 -26.5l85 -51q42 -25 61 -54.5t19 -76.5q0 -70 -41 -105.5t-123 -35.5zM184 552l-95 53q-6 4 -6 13v60q0 11 11 5l96 -48l95 48q12 6 12 -5v-60q0 -9 -6 -13l-94 -53q-7 -5 -13 0z" />
    <glyph glyph-name="uni0162" unicode="&#x162;" horiz-adv-x="435" 
d="M172 0q-11 0 -11 11v543h-131q-10 0 -10 11v79q0 11 10 11h375q10 0 10 -11v-79q0 -11 -10 -11h-131v-543q0 -11 -10 -11h-92zM204 -194q-14 0 -26.5 1t-22.5 3q-5 2 -6.5 3.5t-1.5 5.5v45q0 8 8 7q5 -1 11.5 -1.5t13.5 -0.5q16 0 23.5 6.5t7.5 18.5v10q0 14 -8 19t-22 5
h-14q-7 0 -7 6q0 5 0.5 11t1.5 10l23 77q3 8 10 8h53q11 0 7 -12l-21 -62h6q25 0 39 -16t14 -45v-19q0 -39 -21.5 -59.5t-67.5 -20.5z" />
    <glyph glyph-name="uni0163" unicode="&#x163;" horiz-adv-x="330" 
d="M215 -8q-73 0 -103.5 37.5t-30.5 124.5v242h-56q-10 0 -10 11v74q0 11 10 11h59l11 119q2 11 11 11h75q9 0 9 -11l1 -119h106q11 0 11 -11v-74q0 -11 -11 -11h-106v-236q0 -38 11 -55t39 -17q14 0 28 3.5t28 8.5q12 5 12 -8v-74q0 -10 -9 -12q-16 -7 -38 -10.5t-47 -3.5z
M195 -194q-14 0 -26.5 1t-22.5 3q-5 2 -6.5 3.5t-1.5 5.5v45q0 8 8 7q5 -1 11.5 -1.5t13.5 -0.5q16 0 23.5 6.5t7.5 18.5v10q0 14 -8 19t-22 5h-14q-7 0 -7 6q0 5 0.5 11t1.5 10l23 77q3 8 10 8h53q11 0 7 -12l-21 -62h6q25 0 39 -16t14 -45v-19q0 -39 -21.5 -59.5
t-67.5 -20.5z" />
    <glyph glyph-name="Tcaron" unicode="&#x164;" horiz-adv-x="435" 
d="M172 0q-11 0 -11 11v543h-131q-10 0 -10 11v79q0 11 10 11h375q10 0 10 -11v-79q0 -11 -10 -11h-131v-543q0 -11 -10 -11h-92zM214 716l-103 49q-6 3 -6 12v58q0 10 11 5l104 -41l104 41q12 5 12 -5v-58q0 -9 -7 -12l-102 -49q-7 -4 -13 0z" />
    <glyph glyph-name="tcaron" unicode="&#x165;" horiz-adv-x="347" 
d="M215 -8q-73 0 -103.5 37.5t-30.5 124.5v242h-56q-10 0 -10 11v74q0 11 10 11h59l11 119q2 11 11 11h75q9 0 9 -11l1 -119h106q11 0 11 -11v-74q0 -11 -11 -11h-106v-236q0 -38 11 -55t39 -17q14 0 28 3.5t28 8.5q12 5 12 -8v-74q0 -10 -9 -12q-16 -7 -38 -10.5t-47 -3.5z
M244 529q-8 0 -7 10l13 57q-11 5 -18.5 13.5t-7.5 24.5v17q0 21 13 32t37 11q23 0 35.5 -10.5t12.5 -31.5v-19q0 -10 -1.5 -20.5t-6.5 -22.5l-19 -54q-3 -7 -9 -7h-42z" />
    <glyph glyph-name="Tbar" unicode="&#x166;" horiz-adv-x="435" 
d="M92 286q-9 0 -9 11v62q0 11 9 11h249q10 0 10 -11v-62q0 -11 -10 -11h-68h-113h-68zM172 0q-11 0 -11 11v543h-131q-10 0 -10 11v79q0 11 10 11h375q10 0 10 -11v-79q0 -11 -10 -11h-131v-543q0 -11 -10 -11h-92z" />
    <glyph glyph-name="tbar" unicode="&#x167;" horiz-adv-x="330" 
d="M32 245q-10 0 -10 11v59q0 12 10 12h47h110h93q9 0 9 -12v-59q0 -11 -9 -11h-250zM215 -8q-73 0 -103.5 37.5t-30.5 124.5v242h-56q-10 0 -10 11v74q0 11 10 11h59l11 119q2 11 11 11h75q9 0 9 -11l1 -119h106q11 0 11 -11v-74q0 -11 -11 -11h-106v-236q0 -38 11 -55
t39 -17q14 0 28 3.5t28 8.5q12 5 12 -8v-74q0 -10 -9 -12q-16 -7 -38 -10.5t-47 -3.5z" />
    <glyph glyph-name="Umacron" unicode="&#x16a;" horiz-adv-x="520" 
d="M261 -8q-105 0 -158 57.5t-53 173.5v421q0 11 11 11h92q10 0 10 -11v-419q0 -68 24 -100t74 -32t73.5 31.5t23.5 100.5v419q0 11 10 11h92q10 0 10 -11v-422q0 -114 -53 -172t-156 -58zM165 718q-11 0 -11 11v63q0 11 11 11h192q11 0 11 -11v-63q0 -11 -11 -11h-192z" />
    <glyph glyph-name="umacron" unicode="&#x16b;" horiz-adv-x="437" 
d="M154 -8q-56 0 -81.5 34.5t-25.5 107.5v347q0 11 10 11h89q11 0 11 -11v-331q0 -33 10 -47t30 -14q25 0 48 16.5t49 47.5l10 -71q-31 -40 -69 -65t-81 -25zM309 0q-10 0 -12 10q-3 18 -5 42.5t-2 42.5l-10 31v355q0 11 11 11h88q11 0 11 -11v-356q0 -34 1 -62.5t3 -50.5
q2 -12 -10 -12h-75zM133 571q-11 0 -11 10v64q0 11 11 11h171q11 0 11 -11v-64q0 -10 -11 -10h-171z" />
    <glyph glyph-name="Uring" unicode="&#x16e;" horiz-adv-x="520" 
d="M261 -8q-105 0 -158 57.5t-53 173.5v421q0 11 11 11h92q10 0 10 -11v-419q0 -68 24 -100t74 -32t73.5 31.5t23.5 100.5v419q0 11 10 11h92q10 0 10 -11v-422q0 -114 -53 -172t-156 -58zM260 683q-46 0 -73.5 26t-27.5 73t27.5 72.5t73.5 25.5q47 0 74 -25.5t27 -72.5
t-27 -73t-74 -26zM260 741q32 0 32 41q0 40 -32 40q-31 0 -31 -40q0 -41 31 -41z" />
    <glyph glyph-name="uring" unicode="&#x16f;" horiz-adv-x="437" 
d="M154 -8q-56 0 -81.5 34.5t-25.5 107.5v347q0 11 10 11h89q11 0 11 -11v-331q0 -33 10 -47t30 -14q25 0 48 16.5t49 47.5l10 -71q-31 -40 -69 -65t-81 -25zM309 0q-10 0 -12 10q-3 18 -5 42.5t-2 42.5l-10 31v355q0 11 11 11h88q11 0 11 -11v-356q0 -34 1 -62.5t3 -50.5
q2 -12 -10 -12h-75zM218 551q-46 0 -73.5 26t-27.5 73t27.5 72.5t73.5 25.5q47 0 74 -25.5t27 -72.5t-27 -73t-74 -26zM218 609q17 0 24.5 10.5t7.5 31.5q0 19 -7.5 29.5t-24.5 10.5q-16 0 -23.5 -10.5t-7.5 -29.5q0 -21 7.5 -31.5t23.5 -10.5z" />
    <glyph glyph-name="Uhungarumlaut" unicode="&#x170;" horiz-adv-x="520" 
d="M261 -8q-105 0 -158 57.5t-53 173.5v421q0 11 11 11h92q10 0 10 -11v-419q0 -68 24 -100t74 -32t73.5 31.5t23.5 100.5v419q0 11 10 11h92q10 0 10 -11v-422q0 -114 -53 -172t-156 -58zM294 710q-13 0 -8 13l43 107q3 9 12 9h76q5 0 7 -3.5t-1 -9.5l-56 -107
q-4 -9 -13 -9h-60zM153 710q-13 0 -8 13l44 107q3 9 12 9h75q6 0 8 -3.5t-1 -9.5l-56 -107q-4 -9 -14 -9h-60z" />
    <glyph glyph-name="uhungarumlaut" unicode="&#x171;" horiz-adv-x="437" 
d="M154 -8q-56 0 -81.5 34.5t-25.5 107.5v347q0 11 10 11h89q11 0 11 -11v-331q0 -33 10 -47t30 -14q25 0 48 16.5t49 47.5l10 -71q-31 -40 -69 -65t-81 -25zM309 0q-10 0 -12 10q-3 18 -5 42.5t-2 42.5l-10 31v355q0 11 11 11h88q11 0 11 -11v-356q0 -34 1 -62.5t3 -50.5
q2 -12 -10 -12h-75zM113 557q-12 0 -8 13l52 128q3 9 13 9h77q5 0 7 -3t-1 -10l-66 -129q-5 -8 -14 -8h-60zM251 557q-12 0 -7 13l52 128q3 9 12 9h77q6 0 8 -3t-1 -10l-66 -129q-6 -8 -14 -8h-61z" />
    <glyph glyph-name="Uogonek" unicode="&#x172;" horiz-adv-x="520" 
d="M261 -8q-105 0 -158 57.5t-53 173.5v421q0 11 11 11h92q10 0 10 -11v-419q0 -68 24 -100t74 -32t73.5 31.5t23.5 100.5v419q0 11 10 11h92q10 0 10 -11v-422q0 -114 -53 -172t-156 -58zM301 -194q-44 0 -66.5 19.5t-22.5 56.5v11q0 43 31.5 77t87.5 55l14 -13v-9
q-23 -15 -36.5 -36.5t-13.5 -41.5v-8q0 -15 7.5 -22t20.5 -7q5 0 11 0.5t12 1.5q10 2 10 -8v-59q0 -6 -2 -8t-7 -3q-11 -3 -23 -4.5t-23 -1.5z" />
    <glyph glyph-name="uogonek" unicode="&#x173;" horiz-adv-x="437" 
d="M154 -8q-56 0 -81.5 34.5t-25.5 107.5v347q0 11 10 11h89q11 0 11 -11v-331q0 -33 10 -47t30 -14q25 0 48 16.5t49 47.5l10 -71q-31 -40 -69 -65t-81 -25zM309 0q-10 0 -12 10q-3 18 -5 42.5t-2 42.5l-10 31v355q0 11 11 11h88q11 0 11 -11v-356q0 -34 1 -62.5t3 -50.5
q2 -12 -10 -12h-75zM343 -194q-44 0 -66.5 19.5t-22.5 56.5v11q0 43 31.5 77t87.5 55l14 -13v-9q-23 -15 -36.5 -36.5t-13.5 -41.5v-8q0 -15 7.5 -22t20.5 -7q5 0 11 0.5t12 1.5q10 2 10 -8v-59q0 -6 -2 -8t-7 -3q-11 -3 -23 -4.5t-23 -1.5z" />
    <glyph glyph-name="Wcircumflex" unicode="&#x174;" horiz-adv-x="699" 
d="M157 0q-9 0 -11 9l-133 633q-3 13 9 13h93q9 0 11 -9l65 -319q9 -51 15 -103t9 -103h2q6 35 13.5 69.5t15.5 68.5l58 250l-28 120q-1 6 1.5 9.5t7.5 3.5h91q8 0 10 -9l75 -372q7 -35 12.5 -70t10.5 -70h1q5 51 10.5 103t14.5 106l62 316q2 9 11 9h94q11 0 8 -13
l-132 -633q-2 -9 -10 -9h-110q-9 0 -11 9l-43 218q-7 34 -13.5 66.5t-11.5 64.5h-3q-6 -32 -12.5 -64t-15.5 -66l-49 -219q-2 -9 -11 -9h-106zM245 715q-11 -4 -11 6v58q0 9 6 12l103 48q6 4 13 0l102 -48q7 -3 7 -12v-58q0 -10 -12 -6l-104 42z" />
    <glyph glyph-name="wcircumflex" unicode="&#x175;" horiz-adv-x="602" 
d="M142 0q-9 0 -12 9l-110 471q-3 12 8 12h94q10 0 11 -11l45 -239q7 -33 11.5 -66t8.5 -66h3q6 32 12.5 64.5t12.5 64.5l29 131l-18 99q-3 13 8 13h83q8 0 11 -10l42 -232q5 -33 10.5 -65.5t9.5 -64.5h3q4 33 9 66.5t11 65.5l45 239q2 11 11 11h95q11 0 8 -12l-111 -471
q-3 -9 -12 -9h-104q-9 0 -12 9l-19 92q-6 31 -11 64.5t-11 79.5h-3q-6 -46 -11.5 -79.5t-11.5 -64.5l-19 -92q-3 -9 -12 -9h-104zM206 552q-11 -6 -11 5v60q0 9 6 12l95 55q6 4 13 0l94 -55q6 -3 6 -12v-60q0 -11 -12 -5l-95 48z" />
    <glyph glyph-name="Ycircumflex" unicode="&#x176;" horiz-adv-x="461" 
d="M184 0q-10 0 -10 11v214l-167 416q-2 7 0 10.5t7 3.5h104q10 0 11 -8l65 -192q10 -30 19 -59.5t18 -58.5h1q8 30 17.5 59.5t19.5 58.5l64 193q2 7 11 7h102q6 0 8 -3.5t0 -10.5l-167 -415v-215q0 -11 -10 -11h-93zM127 715q-11 -4 -11 6v58q0 9 6 12l103 48q6 4 13 0
l102 -48q7 -3 7 -12v-58q0 -10 -12 -6l-104 42z" />
    <glyph glyph-name="ycircumflex" unicode="&#x177;" horiz-adv-x="416" 
d="M113 -185q-5 0 -7 4t0 9l51 175l-141 476q-4 13 8 13h98q8 0 11 -10l48 -200q8 -32 14.5 -68t11.5 -69h3q6 33 13 69t13 68l49 200q2 10 11 10h96q12 0 8 -13l-188 -656q-1 -8 -11 -8h-88zM113 552q-11 -6 -11 5v60q0 9 6 12l95 55q6 4 13 0l94 -55q6 -3 6 -12v-60
q0 -11 -12 -5l-95 48z" />
    <glyph glyph-name="Ydieresis" unicode="&#x178;" horiz-adv-x="461" 
d="M184 0q-10 0 -10 11v214l-167 416q-2 7 0 10.5t7 3.5h104q10 0 11 -8l65 -192q10 -30 19 -59.5t18 -58.5h1q8 30 17.5 59.5t19.5 58.5l64 193q2 7 11 7h102q6 0 8 -3.5t0 -10.5l-167 -415v-215q0 -11 -10 -11h-93zM152 714q-28 0 -43.5 14.5t-15.5 40.5v13
q0 27 15.5 41.5t43.5 14.5t43 -14.5t15 -41.5v-13q0 -26 -15 -40.5t-43 -14.5zM310 714q-28 0 -43.5 14.5t-15.5 40.5v13q0 27 15.5 41.5t43.5 14.5q29 0 43.5 -14.5t14.5 -41.5v-13q0 -26 -14.5 -40.5t-43.5 -14.5z" />
    <glyph glyph-name="Zacute" unicode="&#x179;" horiz-adv-x="442" 
d="M21 0q-9 0 -9 10v5q0 7 3 14l204 420q12 27 25.5 53.5t26.5 50.5v2q-22 -1 -45.5 -1h-46.5h-134q-10 0 -10 11v79q0 11 10 11h373q10 0 10 -10v-5q0 -3 -0.5 -6.5t-2.5 -7.5l-207 -425q-13 -25 -26 -50.5t-26 -49.5v-1q25 1 48 1h47h138q10 0 10 -11v-79q0 -11 -10 -11
h-378zM165 710q-5 0 -7 3.5t0 8.5l57 108q5 8 14 8h81q6 0 7.5 -4t-2.5 -10l-71 -106q-5 -8 -15 -8h-64z" />
    <glyph glyph-name="zacute" unicode="&#x17a;" horiz-adv-x="385" 
d="M28 0q-10 0 -10 10v3q0 8 3 16l148 281q12 22 23.5 43t22.5 42v2q-20 -1 -38 -1h-37h-93q-9 0 -9 11v74q0 11 9 11h309q11 0 11 -9v-3q0 -9 -6 -21l-144 -273q-12 -22 -24 -44.5t-24 -44.5v-2q21 1 37 1h36h101q10 0 10 -11v-74q0 -11 -10 -11h-315zM140 557q-12 0 -7 12
l66 124q5 9 14 9h80q6 0 7.5 -4t-1.5 -9l-82 -124q-4 -8 -15 -8h-62z" />
    <glyph glyph-name="Zdotaccent" unicode="&#x17b;" horiz-adv-x="442" 
d="M21 0q-9 0 -9 10v5q0 7 3 14l204 420q12 27 25.5 53.5t26.5 50.5v2q-22 -1 -45.5 -1h-46.5h-134q-10 0 -10 11v79q0 11 10 11h373q10 0 10 -10v-5q0 -3 -0.5 -6.5t-2.5 -7.5l-207 -425q-13 -25 -26 -50.5t-26 -49.5v-1q25 1 48 1h47h138q10 0 10 -11v-79q0 -11 -10 -11
h-378zM226 726q-31 0 -48 15.5t-17 43.5v15q0 28 17 44t48 16q32 0 48.5 -16t16.5 -44v-15q0 -28 -16.5 -43.5t-48.5 -15.5z" />
    <glyph glyph-name="zdotaccent" unicode="&#x17c;" horiz-adv-x="385" 
d="M28 0q-10 0 -10 10v3q0 8 3 16l148 281q12 22 23.5 43t22.5 42v2q-20 -1 -38 -1h-37h-93q-9 0 -9 11v74q0 11 9 11h309q11 0 11 -9v-3q0 -9 -6 -21l-144 -273q-12 -22 -24 -44.5t-24 -44.5v-2q21 1 37 1h36h101q10 0 10 -11v-74q0 -11 -10 -11h-315zM199 564
q-31 0 -48 16t-17 44v14q0 28 17 44.5t48 16.5q32 0 48.5 -16.5t16.5 -44.5v-14q0 -28 -16.5 -44t-48.5 -16z" />
    <glyph glyph-name="Zcaron" unicode="&#x17d;" horiz-adv-x="442" 
d="M21 0q-9 0 -9 10v5q0 7 3 14l204 420q12 27 25.5 53.5t26.5 50.5v2q-22 -1 -45.5 -1h-46.5h-134q-10 0 -10 11v79q0 11 10 11h373q10 0 10 -10v-5q0 -3 -0.5 -6.5t-2.5 -7.5l-207 -425q-13 -25 -26 -50.5t-26 -49.5v-1q25 1 48 1h47h138q10 0 10 -11v-79q0 -11 -10 -11
h-378zM220 716l-103 49q-6 3 -6 12v58q0 10 11 5l104 -41l104 41q12 5 12 -5v-58q0 -9 -7 -12l-102 -49q-7 -4 -13 0z" />
    <glyph glyph-name="zcaron" unicode="&#x17e;" horiz-adv-x="385" 
d="M28 0q-10 0 -10 10v3q0 8 3 16l148 281q12 22 23.5 43t22.5 42v2q-20 -1 -38 -1h-37h-93q-9 0 -9 11v74q0 11 9 11h309q11 0 11 -9v-3q0 -9 -6 -21l-144 -273q-12 -22 -24 -44.5t-24 -44.5v-2q21 1 37 1h36h101q10 0 10 -11v-74q0 -11 -10 -11h-315zM194 552l-95 53
q-6 4 -6 13v60q0 11 11 5l96 -48l95 48q12 6 12 -5v-60q0 -9 -6 -13l-94 -53q-7 -5 -13 0z" />
    <glyph glyph-name="florin" unicode="&#x192;" horiz-adv-x="511" 
d="M178 -185q-5 0 -8.5 3t-3.5 8v504h-56q-5 0 -8.5 3.5t-3.5 8.5v71q0 11 12 11h56v88q0 78 35.5 114.5t100.5 36.5q34 0 59 -5t41 -10q7 -3 7 -12v-71q0 -5 -3 -7t-8 0q-14 5 -31.5 9.5t-36.5 4.5q-26 0 -40 -14.5t-14 -51.5v-82h92q5 0 8 -3.5t3 -7.5v-71q0 -5 -3 -8.5
t-8 -3.5h-92v-504q0 -5 -3 -8t-7 -3h-88z" />
    <glyph glyph-name="uni0218" unicode="&#x218;" horiz-adv-x="452" 
d="M221 -8q-107 0 -152 52t-37 142q1 14 11 14h90q10 0 9 -14q-2 -47 18.5 -71.5t63.5 -24.5t62.5 18.5t19.5 57.5q0 21 -5.5 37t-18 29.5t-33.5 25.5l-107 64q-57 34 -81.5 74.5t-23.5 101.5q1 80 47 122.5t135 42.5q99 0 148 -49t41 -139q-2 -16 -11 -16h-91q-11 0 -9 16
q3 41 -16.5 65.5t-58.5 24.5q-35 0 -53.5 -16.5t-19.5 -50.5q-1 -31 13.5 -51.5t46.5 -38.5l105 -62q38 -23 61 -48t33.5 -56.5t9.5 -75.5q0 -84 -47 -129t-150 -45zM194 -245q-8 0 -6 11l15 69q-12 5 -19.5 15.5t-7.5 29.5v17q0 24 14 36.5t39 12.5q26 0 39.5 -12.5
t13.5 -36.5v-18q0 -13 -2.5 -25t-6.5 -25l-23 -67q-2 -7 -10 -7h-46z" />
    <glyph glyph-name="uni0219" unicode="&#x219;" horiz-adv-x="384" 
d="M190 -8q-84 0 -122 38.5t-33 116.5q1 12 11 12h83q9 0 9 -12q0 -36 11.5 -53t41.5 -17q27 0 40.5 13t13.5 39q0 21 -10.5 35.5t-33.5 28.5l-89 51q-38 23 -56.5 53t-18.5 75q0 63 38.5 96t114.5 33q81 0 119.5 -36t36.5 -102q-1 -11 -10 -11h-83q-5 0 -8 3t-2 10
q1 24 -11 37t-38 13q-24 0 -36 -10.5t-12 -30.5t9.5 -32.5t33.5 -26.5l85 -51q42 -25 61 -54.5t19 -76.5q0 -70 -41 -105.5t-123 -35.5zM169 -248q-9 0 -7 10l15 69q-12 6 -19.5 16.5t-7.5 29.5v16q0 25 14 37t39 12q26 0 39.5 -12t13.5 -37v-17q0 -14 -2.5 -25.5
t-6.5 -24.5l-23 -67q-2 -7 -10 -7h-45z" />
    <glyph glyph-name="uni021A" unicode="&#x21a;" horiz-adv-x="435" 
d="M172 0q-11 0 -11 11v543h-131q-10 0 -10 11v79q0 11 10 11h375q10 0 10 -11v-79q0 -11 -10 -11h-131v-543q0 -11 -10 -11h-92zM182 -245q-8 0 -6 11l15 69q-12 5 -19.5 15.5t-7.5 29.5v17q0 24 14 36.5t39 12.5q26 0 39.5 -12.5t13.5 -36.5v-18q0 -13 -2.5 -25t-6.5 -25
l-23 -67q-2 -7 -10 -7h-46z" />
    <glyph glyph-name="uni021B" unicode="&#x21b;" horiz-adv-x="330" 
d="M215 -8q-73 0 -103.5 37.5t-30.5 124.5v242h-56q-10 0 -10 11v74q0 11 10 11h59l11 119q2 11 11 11h75q9 0 9 -11l1 -119h106q11 0 11 -11v-74q0 -11 -11 -11h-106v-236q0 -38 11 -55t39 -17q14 0 28 3.5t28 8.5q12 5 12 -8v-74q0 -10 -9 -12q-16 -7 -38 -10.5t-47 -3.5z
M174 -248q-9 0 -7 10l15 69q-12 6 -19.5 16.5t-7.5 29.5v16q0 25 14 37t39 12q26 0 39.5 -12t13.5 -37v-17q0 -14 -2.5 -25.5t-6.5 -24.5l-23 -67q-2 -7 -10 -7h-45z" />
    <glyph glyph-name="uni0237" unicode="&#x237;" horiz-adv-x="200" 
d="M53 -189q-8 -5 -14 3l-51 63q-9 9 0 16q20 17 32.5 41t18.5 57.5t6 80.5v409q0 11 10 11h89q11 0 11 -11v-412q0 -64 -9.5 -112.5t-31.5 -83.5t-61 -62z" />
    <glyph glyph-name="uni02BC" unicode="&#x2bc;" horiz-adv-x="166" 
d="M48 500q-8 0 -6 11l15 69q-12 5 -19.5 15.5t-7.5 29.5v17q0 24 14 36.5t39 12.5q26 0 39.5 -12.5t13.5 -36.5v-18q0 -13 -2.5 -24.5t-6.5 -25.5l-23 -66q-2 -8 -10 -8h-46z" />
    <glyph glyph-name="circumflex" unicode="&#x2c6;" horiz-adv-x="274" 
d="M41 552q-11 -6 -11 5v60q0 9 6 12l95 55q6 4 13 0l94 -55q6 -3 6 -12v-60q0 -11 -12 -5l-95 48z" />
    <glyph glyph-name="caron" unicode="&#x2c7;" horiz-adv-x="274" 
d="M131 552l-95 53q-6 4 -6 13v60q0 11 11 5l96 -48l95 48q12 6 12 -5v-60q0 -9 -6 -13l-94 -53q-7 -5 -13 0z" />
    <glyph glyph-name="breve" unicode="&#x2d8;" horiz-adv-x="271" 
d="M136 549q-37 0 -62.5 14t-39.5 25q-4 6 -4 13v59q0 7 3 8.5t8 -2.5q17 -13 41 -24.5t54 -11.5t53.5 11.5t40.5 24.5q4 4 7.5 2.5t3.5 -8.5v-59q0 -9 -4 -13q-15 -12 -39.5 -25.5t-61.5 -13.5z" />
    <glyph glyph-name="dotaccent" unicode="&#x2d9;" horiz-adv-x="190" 
d="M95 564q-31 0 -48 16t-17 44v14q0 28 17 44.5t48 16.5q32 0 48.5 -16.5t16.5 -44.5v-14q0 -28 -16.5 -44t-48.5 -16z" />
    <glyph glyph-name="ring" unicode="&#x2da;" horiz-adv-x="262" 
d="M131 551q-46 0 -73.5 26t-27.5 73t27.5 72.5t73.5 25.5q47 0 74 -25.5t27 -72.5t-27 -73t-74 -26zM131 609q17 0 24.5 10.5t7.5 31.5q0 19 -7.5 29.5t-24.5 10.5q-16 0 -23.5 -10.5t-7.5 -29.5q0 -21 7.5 -31.5t23.5 -10.5z" />
    <glyph glyph-name="ogonek" unicode="&#x2db;" horiz-adv-x="204" 
d="M119 -194q-44 0 -66.5 19.5t-22.5 56.5v11q0 43 31.5 77t87.5 55l14 -13v-9q-23 -15 -36.5 -36.5t-13.5 -41.5v-8q0 -15 7.5 -22t20.5 -7q5 0 11 0.5t12 1.5q10 2 10 -8v-59q0 -6 -2 -8t-7 -3q-11 -3 -23 -4.5t-23 -1.5z" />
    <glyph glyph-name="tilde" unicode="&#x2dc;" horiz-adv-x="274" 
d="M177 566q-18 0 -31.5 5.5t-25.5 11t-27 5.5q-14 0 -27 -5t-24 -11q-12 -6 -12 7v54q0 10 5 14q10 8 26.5 15.5t35.5 7.5q21 0 34.5 -5.5t25 -11t24.5 -5.5q14 0 27 5t23 10q13 7 13 -7v-53q0 -5 -1.5 -8.5t-4.5 -6.5q-11 -8 -26 -15t-35 -7z" />
    <glyph glyph-name="hungarumlaut" unicode="&#x2dd;" horiz-adv-x="349" 
d="M39 557q-12 0 -8 13l52 128q3 9 13 9h77q5 0 7 -3t-1 -10l-66 -129q-5 -8 -14 -8h-60zM177 557q-12 0 -7 13l52 128q3 9 12 9h77q6 0 8 -3t-1 -10l-66 -129q-6 -8 -14 -8h-61z" />
    <glyph glyph-name="gravecomb" unicode="&#x300;" 
d="M129 557q-9 0 -15 8l-82 124q-3 5 -1.5 9t7.5 4h81q8 0 13 -9l66 -124q6 -12 -6 -12h-63z" />
    <glyph glyph-name="acutecomb" unicode="&#x301;" 
d="M38 557q-12 0 -7 12l66 124q5 9 14 9h80q6 0 7.5 -4t-1.5 -9l-82 -124q-4 -8 -15 -8h-62z" />
    <glyph glyph-name="uni0302" unicode="&#x302;" 
d="M41 552q-11 -6 -11 5v60q0 9 6 12l95 55q6 4 13 0l94 -55q6 -3 6 -12v-60q0 -11 -12 -5l-95 48z" />
    <glyph glyph-name="tildecomb" unicode="&#x303;" 
d="M177 566q-18 0 -31.5 5.5t-25.5 11t-27 5.5q-14 0 -27 -5t-24 -11q-12 -6 -12 7v54q0 10 5 14q10 8 26.5 15.5t35.5 7.5q21 0 34.5 -5.5t25 -11t24.5 -5.5q14 0 27 5t23 10q13 7 13 -7v-53q0 -5 -1.5 -8.5t-4.5 -6.5q-11 -8 -26 -15t-35 -7z" />
    <glyph glyph-name="uni0304" unicode="&#x304;" 
d="M41 571q-11 0 -11 10v64q0 11 11 11h171q11 0 11 -11v-64q0 -10 -11 -10h-171z" />
    <glyph glyph-name="uni0306" unicode="&#x306;" 
d="M136 549q-37 0 -62.5 14t-39.5 25q-4 6 -4 13v59q0 7 3 8.5t8 -2.5q17 -13 41 -24.5t54 -11.5t53.5 11.5t40.5 24.5q4 4 7.5 2.5t3.5 -8.5v-59q0 -9 -4 -13q-15 -12 -39.5 -25.5t-61.5 -13.5z" />
    <glyph glyph-name="uni0307" unicode="&#x307;" 
d="M95 564q-31 0 -48 16t-17 44v14q0 28 17 44.5t48 16.5q32 0 48.5 -16.5t16.5 -44.5v-14q0 -28 -16.5 -44t-48.5 -16z" />
    <glyph glyph-name="uni0308" unicode="&#x308;" 
d="M89 567q-28 0 -43.5 14.5t-15.5 40.5v14q0 27 15.5 41t43.5 14t43 -14t15 -41v-14q0 -26 -15 -40.5t-43 -14.5zM248 567q-29 0 -44 14.5t-15 40.5v14q0 27 15 41t44 14t43 -14t14 -41v-14q0 -26 -14 -40.5t-43 -14.5z" />
    <glyph glyph-name="uni030A" unicode="&#x30a;" 
d="M131 551q-46 0 -73.5 26t-27.5 73t27.5 72.5t73.5 25.5q47 0 74 -25.5t27 -72.5t-27 -73t-74 -26zM131 609q17 0 24.5 10.5t7.5 31.5q0 19 -7.5 29.5t-24.5 10.5q-16 0 -23.5 -10.5t-7.5 -29.5q0 -21 7.5 -31.5t23.5 -10.5z" />
    <glyph glyph-name="uni030B" unicode="&#x30b;" 
d="M39 557q-12 0 -8 13l52 128q3 9 13 9h77q5 0 7 -3t-1 -10l-66 -129q-5 -8 -14 -8h-60zM177 557q-12 0 -7 13l52 128q3 9 12 9h77q6 0 8 -3t-1 -10l-66 -129q-6 -8 -14 -8h-61z" />
    <glyph glyph-name="uni030C" unicode="&#x30c;" 
d="M131 552l-95 53q-6 4 -6 13v60q0 11 11 5l96 -48l95 48q12 6 12 -5v-60q0 -9 -6 -13l-94 -53q-7 -5 -13 0z" />
    <glyph glyph-name="uni0312" unicode="&#x312;" 
d="M84 559q-27 0 -40.5 12.5t-13.5 36.5v18q0 14 2.5 25.5t6.5 24.5l22 66q3 8 11 8h45q9 0 7 -11l-15 -70q12 -4 19.5 -14.5t7.5 -29.5v-17q0 -24 -14 -36.5t-38 -12.5z" />
    <glyph glyph-name="uni0313" unicode="&#x313;" 
d="M48 549q-8 0 -6 10l15 69q-12 6 -19.5 16t-7.5 30v17q0 24 14 36.5t39 12.5q26 0 39.5 -12.5t13.5 -36.5v-18q0 -14 -2.5 -25.5t-6.5 -24.5l-23 -67q-2 -7 -10 -7h-46z" />
    <glyph glyph-name="uni0324" unicode="&#x324;" 
d="M89 -182q-28 0 -43.5 14.5t-15.5 40.5v14q0 27 15.5 41t43.5 14t43 -14t15 -41v-14q0 -26 -15 -40.5t-43 -14.5zM248 -182q-29 0 -44 14.5t-15 40.5v14q0 27 15 41t44 14t43 -14t14 -41v-14q0 -26 -14 -40.5t-43 -14.5z" />
    <glyph glyph-name="uni0325" unicode="&#x325;" 
d="M131 -238q-46 0 -73.5 26t-27.5 73t27.5 72.5t73.5 25.5q47 0 74 -25.5t27 -72.5t-27 -73t-74 -26zM131 -180q17 0 24.5 10.5t7.5 31.5q0 19 -7.5 29.5t-24.5 10.5q-16 0 -23.5 -10.5t-7.5 -29.5q0 -21 7.5 -31.5t23.5 -10.5z" />
    <glyph glyph-name="uni0326" unicode="&#x326;" 
d="M49 -248q-9 0 -7 10l15 69q-12 6 -19.5 16.5t-7.5 29.5v16q0 25 14 37t39 12q26 0 39.5 -12t13.5 -37v-17q0 -14 -2.5 -25.5t-6.5 -24.5l-23 -67q-2 -7 -10 -7h-45z" />
    <glyph glyph-name="uni0327" unicode="&#x327;" 
d="M87 -193q-14 0 -26.5 1t-22.5 3q-5 2 -6.5 3.5t-1.5 5.5v45q0 8 8 7q5 -1 11.5 -1.5t13.5 -0.5q16 0 23.5 6.5t7.5 18.5v10q0 14 -8 19t-22 5h-14q-7 0 -7 6q0 5 0.5 11t1.5 10l23 77q3 8 10 8h53q11 0 7 -12l-21 -62h6q25 0 39 -16t14 -45v-19q0 -39 -21.5 -59.5
t-67.5 -20.5z" />
    <glyph glyph-name="uni0328" unicode="&#x328;" 
d="M119 -194q-44 0 -66.5 19.5t-22.5 56.5v11q0 43 31.5 77t87.5 55l14 -13v-9q-23 -15 -36.5 -36.5t-13.5 -41.5v-8q0 -15 7.5 -22t20.5 -7q5 0 11 0.5t12 1.5q10 2 10 -8v-59q0 -6 -2 -8t-7 -3q-11 -3 -23 -4.5t-23 -1.5z" />
    <glyph glyph-name="uni0330" unicode="&#x330;" 
d="M177 -197q-18 0 -31.5 5.5t-25.5 11t-27 5.5q-14 0 -27 -5t-24 -11q-12 -6 -12 7v54q0 10 5 14q10 8 26.5 15.5t35.5 7.5q21 0 34.5 -5.5t25 -11t24.5 -5.5q14 0 27 5t23 10q13 7 13 -7v-53q0 -5 -1.5 -8.5t-4.5 -6.5q-11 -8 -26 -15t-35 -7z" />
    <glyph glyph-name="uni0331" unicode="&#x331;" 
d="M41 -186q-11 0 -11 10v64q0 11 11 11h171q11 0 11 -11v-64q0 -10 -11 -10h-171z" />
    <glyph glyph-name="uni0335" unicode="&#x335;" 
d="M40 223q-12 0 -12 11v64q0 10 12 10h271q11 0 11 -10v-64q0 -11 -11 -11h-271z" />
    <glyph glyph-name="uni0336" unicode="&#x336;" 
d="M40 223q-12 0 -12 11v64q0 10 12 10h577q12 0 12 -10v-64q0 -11 -12 -11h-577z" />
    <glyph glyph-name="tonos" unicode="&#x384;" horiz-adv-x="208" 
d="M38 545q-10 0 -8 11l36 148q1 6 4 8t9 2h90q13 0 8 -14l-58 -147q-4 -8 -14 -8h-67z" />
    <glyph glyph-name="dieresistonos" unicode="&#x385;" horiz-adv-x="347" 
d="M142 725q-13 0 -10 13l29 129q2 9 12 9h91q6 0 8.5 -3.5t-0.5 -9.5l-53 -129q-3 -9 -12 -9h-65zM89 564q-28 0 -43.5 15t-15.5 41v13q0 26 15.5 40.5t43.5 14.5t43 -14.5t15 -40.5v-13q0 -26 -15 -41t-43 -15zM258 564q-27 0 -42.5 15t-15.5 41v13q0 26 15.5 40.5
t42.5 14.5q29 0 44 -14.5t15 -40.5v-13q0 -26 -15 -41t-44 -15z" />
    <glyph glyph-name="Alphatonos" unicode="&#x386;" horiz-adv-x="510" 
d="M43 0q-11 0 -8 12l165 635q3 8 12 8h121q9 0 13 -8l166 -635q2 -12 -9 -12h-101q-8 0 -12 8l-90 406q-8 34 -14.5 67.5t-12.5 66.5h-2q-7 -33 -13.5 -66.5t-13.5 -67.5l-91 -405q-1 -9 -11 -9h-99zM165 140l19 94h174l20 -94h-213zM17 496q-10 0 -8 13l24 137q1 9 12 9
h86q12 0 7 -13l-40 -137q-4 -9 -14 -9h-67z" />
    <glyph glyph-name="anoteleia" unicode="&#x387;" horiz-adv-x="228" 
d="M114 344q-34 0 -53 17.5t-19 47.5v17q0 31 19 48t53 17q72 0 72 -65v-17q0 -30 -18 -47.5t-54 -17.5z" />
    <glyph glyph-name="Epsilontonos" unicode="&#x388;" horiz-adv-x="552" 
d="M183 0q-10 0 -10 11v633q0 11 10 11h313q10 0 10 -11v-79q0 -11 -10 -11h-211v-174h193q10 0 10 -11v-74q0 -11 -10 -11h-193v-183h211q10 0 10 -11v-79q0 -11 -10 -11h-313zM8 496q-10 0 -8 13l24 137q1 9 12 9h86q12 0 7 -13l-40 -137q-4 -9 -14 -9h-67z" />
    <glyph glyph-name="Etatonos" unicode="&#x389;" horiz-adv-x="651" 
d="M183 0q-10 0 -10 11v633q0 11 10 11h92q10 0 10 -11v-259h198v259q0 11 11 11h91q11 0 11 -11v-633q0 -11 -11 -11h-91q-11 0 -11 11v273h-198v-273q0 -11 -10 -11h-92zM8 496q-10 0 -8 13l24 137q1 9 12 9h86q12 0 7 -13l-40 -137q-4 -9 -14 -9h-67z" />
    <glyph glyph-name="Iotatonos" unicode="&#x38a;" horiz-adv-x="340" 
d="M183 0q-10 0 -10 11v633q0 11 10 11h92q10 0 10 -11v-633q0 -11 -10 -11h-92zM8 496q-10 0 -8 13l24 137q1 9 12 9h86q12 0 7 -13l-40 -137q-4 -9 -14 -9h-67z" />
    <glyph glyph-name="Omicrontonos" unicode="&#x38c;" horiz-adv-x="605" 
d="M344 -8q-105 0 -160 57t-55 166v224q0 110 55 167t160 57q107 0 162 -57t55 -167v-224q0 -109 -55 -166t-162 -57zM344 93q52 0 78 31t26 96v214q0 66 -26 97t-78 31q-50 0 -76 -31t-26 -97v-214q0 -65 26 -96t76 -31zM8 496q-10 0 -8 13l24 137q1 9 12 9h86q12 0 7 -13
l-40 -137q-4 -9 -14 -9h-67z" />
    <glyph glyph-name="Upsilontonos" unicode="&#x38e;" horiz-adv-x="614" 
d="M338 0q-10 0 -10 11v214l-167 416q-2 7 0 10.5t7 3.5h104q10 0 11 -8l65 -192q10 -30 19 -59.5t18 -58.5h1q8 30 17.5 59.5t19.5 58.5l64 193q2 7 11 7h102q6 0 8 -3.5t0 -10.5l-167 -415v-215q0 -11 -10 -11h-93zM8 496q-10 0 -8 13l24 137q1 9 12 9h86q12 0 7 -13
l-40 -137q-4 -9 -14 -9h-67z" />
    <glyph glyph-name="Omegatonos" unicode="&#x38f;" horiz-adv-x="606" 
d="M133 0q-10 0 -10 11v81q0 11 10 11h62v2q-22 16 -36 35.5t-21 46.5t-7 64v188q0 110 54.5 167t161.5 57q106 0 161 -57t55 -167v-188q0 -37 -7 -64t-21 -46.5t-35 -35.5v-2h61q10 0 10 -11v-81q0 -11 -10 -11h-180q-9 0 -9 11v79q0 11 8 11q35 0 52.5 32t17.5 86v215
q0 67 -25.5 97.5t-77.5 30.5q-51 0 -77 -30.5t-26 -97.5v-215q0 -54 17.5 -86t51.5 -32q9 0 9 -11v-79q0 -11 -9 -11h-180zM8 496q-10 0 -8 13l24 137q1 9 12 9h86q12 0 7 -13l-40 -137q-4 -9 -14 -9h-67z" />
    <glyph glyph-name="iotadieresistonos" unicode="&#x390;" horiz-adv-x="270" 
d="M172 -8q-43 0 -71 13.5t-41 44.5t-13 84v347q0 11 10 11h89q11 0 11 -11v-344q0 -30 10.5 -41t34.5 -11q13 0 24.5 1.5t22.5 3.5q9 1 9 -10v-68q0 -9 -9 -12q-14 -4 -33 -6t-44 -2zM70 725q-13 0 -10 13l29 129q2 9 12 9h91q6 0 8.5 -3.5t-0.5 -9.5l-53 -129
q-3 -9 -12 -9h-65zM17 564q-28 0 -43.5 15t-15.5 41v13q0 26 15.5 40.5t43.5 14.5t43 -14.5t15 -40.5v-13q0 -26 -15 -41t-43 -15zM186 564q-27 0 -42.5 15t-15.5 41v13q0 26 15.5 40.5t42.5 14.5q29 0 44 -14.5t15 -40.5v-13q0 -26 -15 -41t-44 -15z" />
    <glyph glyph-name="Alpha" unicode="&#x391;" horiz-adv-x="476" 
d="M8 0q-11 0 -8 12l165 635q3 8 12 8h121q9 0 13 -8l166 -635q2 -12 -9 -12h-101q-8 0 -12 8l-90 406q-8 34 -14.5 67.5t-12.5 66.5h-2q-7 -33 -13.5 -66.5t-13.5 -67.5l-91 -405q-1 -9 -11 -9h-99zM130 140l19 94h174l20 -94h-213z" />
    <glyph glyph-name="Beta" unicode="&#x392;" horiz-adv-x="475" 
d="M66 0q-11 0 -11 11v633q0 11 11 11h157q100 0 149.5 -40.5t49.5 -121.5q0 -54 -21.5 -89t-67.5 -57v-2q55 -14 83.5 -53.5t28.5 -104.5q0 -96 -52.5 -141.5t-164.5 -45.5h-162zM167 95h63q53 0 78 24t25 76q0 49 -25 73.5t-78 24.5h-63v-198zM167 380h56q45 0 66.5 23.5
t21.5 69.5t-22 66.5t-71 20.5h-51v-180z" />
    <glyph glyph-name="Gamma" unicode="&#x393;" horiz-adv-x="379" 
d="M65 0q-10 0 -10 11v633q0 11 9 11h287q10 0 10 -11v-79q0 -11 -10 -11h-184v-543q0 -11 -10 -11h-92z" />
    <glyph glyph-name="uni0394" unicode="&#x394;" horiz-adv-x="462" 
d="M20 0q-10 0 -10 11v61q0 4 0.5 7.5t1.5 6.5l146 561q3 8 12 8h123q8 0 10 -8l147 -559q1 -4 1.5 -7.5t0.5 -6.5v-63q0 -11 -10 -11h-422zM130 101h200l-74 318q-7 33 -13.5 65t-12.5 64h-1q-6 -32 -12 -64.5t-13 -65.5z" />
    <glyph glyph-name="Epsilon" unicode="&#x395;" horiz-adv-x="434" 
d="M65 0q-10 0 -10 11v633q0 11 10 11h313q10 0 10 -11v-79q0 -11 -10 -11h-211v-174h193q10 0 10 -11v-74q0 -11 -10 -11h-193v-183h211q10 0 10 -11v-79q0 -11 -10 -11h-313z" />
    <glyph glyph-name="Zeta" unicode="&#x396;" horiz-adv-x="442" 
d="M21 0q-9 0 -9 10v5q0 7 3 14l204 420q12 27 25.5 53.5t26.5 50.5v2q-22 -1 -45.5 -1h-46.5h-134q-10 0 -10 11v79q0 11 10 11h373q10 0 10 -10v-5q0 -3 -0.5 -6.5t-2.5 -7.5l-207 -425q-13 -25 -26 -50.5t-26 -49.5v-1q25 1 48 1h47h138q10 0 10 -11v-79q0 -11 -10 -11
h-378z" />
    <glyph glyph-name="Eta" unicode="&#x397;" horiz-adv-x="533" 
d="M65 0q-10 0 -10 11v633q0 11 10 11h92q10 0 10 -11v-259h198v259q0 11 11 11h91q11 0 11 -11v-633q0 -11 -11 -11h-91q-11 0 -11 11v273h-198v-273q0 -11 -10 -11h-92z" />
    <glyph glyph-name="Theta" unicode="&#x398;" horiz-adv-x="520" 
d="M209 286q-9 0 -9 11v69q0 11 9 11h102q10 0 10 -11v-68q0 -12 -10 -12h-102zM259 -8q-105 0 -160 57t-55 166v224q0 110 55 167t160 57q107 0 162 -57t55 -167v-224q0 -109 -55 -166t-162 -57zM259 93q52 0 78 31t26 96v214q0 66 -26 97t-78 31q-50 0 -76 -31t-26 -97
v-214q0 -65 26 -96t76 -31z" />
    <glyph glyph-name="Iota" unicode="&#x399;" horiz-adv-x="222" 
d="M65 0q-10 0 -10 11v633q0 11 10 11h92q10 0 10 -11v-633q0 -11 -10 -11h-92z" />
    <glyph glyph-name="Kappa" unicode="&#x39a;" horiz-adv-x="489" 
d="M370 0q-9 0 -12 6l-174 318q-6 8 0 16l166 307q4 8 12 8h101q6 0 8 -3.5t-1 -10.5l-167 -303l184 -324q2 -6 0.5 -10t-8.5 -4h-109zM65 0q-10 0 -10 11v633q0 11 10 11h92q10 0 10 -11v-633q0 -11 -10 -11h-92z" />
    <glyph glyph-name="Lambda" unicode="&#x39b;" horiz-adv-x="470" 
d="M8 0q-11 0 -8 12l162 635q3 8 12 8h121q9 0 13 -8l163 -635q2 -12 -9 -12h-101q-8 0 -11 8l-89 404q-7 34 -13.5 68.5t-12.5 67.5h-2q-7 -33 -13 -67t-13 -68l-89 -404q-2 -9 -12 -9h-98z" />
    <glyph glyph-name="Mu" unicode="&#x39c;" horiz-adv-x="632" 
d="M55 0q-11 0 -11 11l11 633q0 11 10 11h119q9 0 12 -8l121 -353l119 353q4 8 12 8h119q10 0 10 -11l11 -633q0 -11 -11 -11h-90q-10 0 -10 11l-5 319q-1 43 0.5 82.5t4.5 76.5h-3q-10 -34 -22 -69t-25 -68l-98 -265q-3 -8 -11 -8h-5q-8 0 -10 8l-99 267q-13 33 -24.5 67.5
t-21.5 67.5h-2q2 -36 3.5 -75.5t0.5 -82.5l-5 -320q0 -11 -10 -11h-90z" />
    <glyph glyph-name="Nu" unicode="&#x39d;" horiz-adv-x="534" 
d="M64 0q-9 0 -9 11v633q0 11 10 11h127q8 0 11 -7l117 -327q11 -27 21.5 -58.5t19.5 -61t16 -53.5h2q-2 27 -3.5 62t-2.5 71t-1 62v301q0 11 10 11h87q11 0 11 -11v-633q0 -11 -11 -11h-125q-8 0 -12 7l-116 318q-17 46 -31 92.5t-26 86.5h-2q2 -29 2.5 -65.5t1.5 -72.5
t1 -66v-289q0 -11 -10 -11h-88z" />
    <glyph glyph-name="Xi" unicode="&#x39e;" horiz-adv-x="454" 
d="M50 551q-11 0 -11 11v82q0 11 11 11h353q11 0 11 -11v-82q0 -11 -11 -11h-353zM50 0q-11 0 -11 11v82q0 11 11 11h353q11 0 11 -11v-82q0 -11 -11 -11h-353zM105 280q-10 0 -10 11v82q0 11 10 11h242q11 0 11 -11v-82q0 -11 -11 -11h-242z" />
    <glyph glyph-name="Omicron" unicode="&#x39f;" horiz-adv-x="520" 
d="M259 -8q-105 0 -160 57t-55 166v224q0 110 55 167t160 57q107 0 162 -57t55 -167v-224q0 -109 -55 -166t-162 -57zM259 93q52 0 78 31t26 96v214q0 66 -26 97t-78 31q-50 0 -76 -31t-26 -97v-214q0 -65 26 -96t76 -31z" />
    <glyph glyph-name="Pi" unicode="&#x3a0;" horiz-adv-x="531" 
d="M65 0q-10 0 -10 11v633q0 11 10 11h400q11 0 11 -11v-633q0 -11 -10 -11h-92q-11 0 -11 11v543h-196v-542q0 -12 -10 -12h-92z" />
    <glyph glyph-name="Rho" unicode="&#x3a1;" horiz-adv-x="452" 
d="M65 0q-10 0 -10 11v633q0 11 10 11h149q107 0 158.5 -53t51.5 -159q0 -102 -52 -156.5t-156 -54.5h-49v-221q0 -11 -10 -11h-92zM167 331h46q51 0 75 27t24 83q0 61 -24 87.5t-74 26.5h-47v-224z" />
    <glyph glyph-name="Sigma" unicode="&#x3a3;" horiz-adv-x="415" 
d="M35 0q-10 0 -10 11v69q0 7 5 15l147 234l-147 231q-2 4 -3.5 8t-1.5 7v69q0 11 10 11h349q10 0 10 -11v-78q0 -12 -10 -12h-138q-20 0 -43 0.5t-48 1.5v-2q15 -20 28 -39t26 -40l70 -113q3 -3 3.5 -6.5t0.5 -7.5v-38q0 -7 -4 -14l-73 -118q-13 -19 -26.5 -38t-28.5 -39
v-2q22 1 47.5 1.5t47.5 0.5h138q10 0 10 -12v-78q0 -11 -10 -11h-349z" />
    <glyph glyph-name="Tau" unicode="&#x3a4;" horiz-adv-x="435" 
d="M172 0q-11 0 -11 11v543h-131q-10 0 -10 11v79q0 11 10 11h375q10 0 10 -11v-79q0 -11 -10 -11h-131v-543q0 -11 -10 -11h-92z" />
    <glyph glyph-name="Upsilon" unicode="&#x3a5;" horiz-adv-x="461" 
d="M184 0q-10 0 -10 11v214l-167 416q-2 7 0 10.5t7 3.5h104q10 0 11 -8l65 -192q10 -30 19 -59.5t18 -58.5h1q8 30 17.5 59.5t19.5 58.5l64 193q2 7 11 7h102q6 0 8 -3.5t0 -10.5l-167 -415v-215q0 -11 -10 -11h-93z" />
    <glyph glyph-name="Phi" unicode="&#x3a6;" horiz-adv-x="657" 
d="M272 66q-112 0 -170 54t-58 165v116q0 113 58 166.5t170 53.5h111q111 0 170 -51.5t59 -168.5v-116q0 -114 -59 -166.5t-170 -52.5h-111zM269 164h119q39 0 64.5 11.5t38 39t12.5 73.5v112q0 46 -12.5 73.5t-38 39t-64.5 11.5h-119q-39 0 -65 -12t-38 -39t-12 -73v-112
q0 -46 12 -73.5t38 -39t65 -11.5zM283 -16q-10 0 -10 11v89l4 24v466l-4 21v98q0 11 10 11h92q10 0 10 -11v-97l-5 -23v-464l5 -26v-88q0 -11 -10 -11h-92z" />
    <glyph glyph-name="Chi" unicode="&#x3a7;" horiz-adv-x="466" 
d="M10 0q-13 0 -6 14l163 323l-154 304q-2 7 -0.5 10.5t7.5 3.5h109q8 0 10 -6l60 -132q9 -23 18 -46.5t17 -46.5h2q8 23 17.5 47.5t18.5 47.5l57 129q3 7 11 7h107q13 0 6 -14l-153 -305l162 -322q3 -6 1.5 -10t-8.5 -4h-110q-7 0 -11 7l-63 143q-10 24 -19.5 49t-18.5 49
h-2q-8 -24 -18 -49t-19 -48l-65 -143q-3 -8 -12 -8h-107z" />
    <glyph glyph-name="Psi" unicode="&#x3a8;" horiz-adv-x="643" 
d="M218 163q-64 0 -102 19t-55 60.5t-17 108.5v293q0 11 10 11h92q10 0 10 -11v-292q0 -49 16.5 -69t56.5 -20h186q41 0 56.5 20t15.5 69v292q0 11 10 11h92q10 0 10 -11v-293q0 -67 -17.5 -108.5t-55 -60.5t-100.5 -19h-208zM276 0q-11 0 -11 11l1 633q0 11 10 11h91
q10 0 10 -11v-633q0 -11 -10 -11h-91z" />
    <glyph glyph-name="uni03A9" unicode="&#x3a9;" horiz-adv-x="520" 
d="M46 0q-10 0 -10 11v81q0 11 10 11h62v2q-22 16 -36 35.5t-21 46.5t-7 64v188q0 110 54.5 167t161.5 57q106 0 161 -57t55 -167v-188q0 -37 -7 -64t-21 -46.5t-35 -35.5v-2h61q10 0 10 -11v-81q0 -11 -10 -11h-180q-9 0 -9 11v79q0 11 8 11q35 0 52.5 32t17.5 86v215
q0 67 -25.5 97.5t-77.5 30.5q-51 0 -77 -30.5t-26 -97.5v-215q0 -54 17.5 -86t51.5 -32q9 0 9 -11v-79q0 -11 -9 -11h-180z" />
    <glyph glyph-name="Iotadieresis" unicode="&#x3aa;" horiz-adv-x="222" 
d="M65 0q-10 0 -10 11v633q0 11 10 11h92q10 0 10 -11v-633q0 -11 -10 -11h-92zM34 714q-28 0 -43.5 14.5t-15.5 40.5v13q0 27 15.5 41.5t43.5 14.5t43 -14.5t15 -41.5v-13q0 -26 -15 -40.5t-43 -14.5zM192 714q-28 0 -43.5 14.5t-15.5 40.5v13q0 27 15.5 41.5t43.5 14.5
q29 0 43.5 -14.5t14.5 -41.5v-13q0 -26 -14.5 -40.5t-43.5 -14.5z" />
    <glyph glyph-name="Upsilondieresis" unicode="&#x3ab;" horiz-adv-x="461" 
d="M184 0q-10 0 -10 11v214l-167 416q-2 7 0 10.5t7 3.5h104q10 0 11 -8l65 -192q10 -30 19 -59.5t18 -58.5h1q8 30 17.5 59.5t19.5 58.5l64 193q2 7 11 7h102q6 0 8 -3.5t0 -10.5l-167 -415v-215q0 -11 -10 -11h-93zM152 714q-28 0 -43.5 14.5t-15.5 40.5v13
q0 27 15.5 41.5t43.5 14.5t43 -14.5t15 -41.5v-13q0 -26 -15 -40.5t-43 -14.5zM310 714q-28 0 -43.5 14.5t-15.5 40.5v13q0 27 15.5 41.5t43.5 14.5q29 0 43.5 -14.5t14.5 -41.5v-13q0 -26 -14.5 -40.5t-43.5 -14.5z" />
    <glyph glyph-name="alphatonos" unicode="&#x3ac;" horiz-adv-x="436" 
d="M149 -8q-58 0 -84.5 36t-26.5 109v199q0 53 15 89.5t44 56t72 19.5q34 0 67 -14.5t55 -33.5l-4 -79q-20 14 -40.5 23t-39.5 9t-32.5 -8.5t-20 -25.5t-6.5 -44v-175q0 -34 11 -49t35 -15q22 0 44.5 16t50.5 48l10 -71q-32 -40 -69 -65t-81 -25zM372 -8q-45 0 -68 23
t-23 71v19l-5 14v291l4 30v41q0 11 11 11h84q11 0 11 -11v-360q0 -21 4.5 -28.5t17.5 -7.5q6 0 10.5 0.5t9.5 1.5q7 2 7 -8v-69q0 -9 -10 -13q-13 -2 -27 -3.5t-26 -1.5zM159 545q-10 0 -8 11l36 148q1 6 4 8t9 2h90q13 0 8 -14l-58 -147q-4 -8 -14 -8h-67z" />
    <glyph glyph-name="epsilontonos" unicode="&#x3ad;" horiz-adv-x="404" 
d="M206 -8q-87 0 -130.5 36t-43.5 110q0 42 20.5 72.5t60.5 40.5v2q-33 13 -52 43t-19 74q0 64 40 97.5t122 33.5q85 0 128.5 -38t37.5 -104q-1 -14 -11 -14h-82q-10 0 -10 13q2 26 -12.5 39.5t-45.5 13.5q-30 0 -44.5 -14t-14.5 -43q0 -34 16 -51t51 -17h38q10 0 10 -11
v-55q0 -12 -10 -12h-48q-36 0 -51.5 -15.5t-15.5 -49.5q0 -31 16.5 -46t50.5 -15q33 0 50 12.5t15 38.5q-1 12 9 12h83q9 0 10 -15q7 -66 -35.5 -102t-132.5 -36zM159 546q-10 0 -8 11l36 148q1 6 4 8t9 2h90q13 0 8 -14l-58 -147q-4 -8 -14 -8h-67z" />
    <glyph glyph-name="etatonos" unicode="&#x3ae;" horiz-adv-x="457" 
d="M311 -185q-11 0 -11 11v517q0 32 -11 46t-36 14q-22 0 -44.5 -14.5t-49.5 -43.5l-10 68q33 40 70 64t82 24q55 0 82 -34.5t27 -107.5v-533q0 -11 -10 -11h-89zM70 0q-10 0 -10 11v362q0 21 -4.5 27.5t-16.5 6.5q-5 0 -10 -0.5t-11 -1.5q-7 -2 -7 8v69q0 9 10 12
q14 4 29 5.5t28 1.5q42 0 64 -23.5t22 -67.5v-15l6 -23v-361q0 -11 -11 -11h-89zM183 546q-10 0 -8 11l36 148q1 6 4 8t9 2h90q13 0 8 -14l-58 -147q-4 -8 -14 -8h-67z" />
    <glyph glyph-name="iotatonos" unicode="&#x3af;" horiz-adv-x="270" 
d="M172 -8q-43 0 -71 13.5t-41 44.5t-13 84v347q0 11 10 11h89q11 0 11 -11v-344q0 -30 10.5 -41t34.5 -11q13 0 24.5 1.5t22.5 3.5q9 1 9 -10v-68q0 -9 -9 -12q-14 -4 -33 -6t-44 -2zM58 546q-10 0 -8 11l36 148q1 6 4 8t9 2h90q13 0 8 -14l-58 -147q-4 -8 -14 -8h-67z" />
    <glyph glyph-name="upsilondieresistonos" unicode="&#x3b0;" horiz-adv-x="445" 
d="M232 -8q-89 0 -130.5 43t-41.5 127v211q0 20 -4.5 27t-16.5 7q-5 0 -10 -0.5t-11 -1.5q-7 -2 -7 8v69q0 10 10 12q14 3 29.5 5t29.5 2q49 0 69.5 -25t20.5 -78v-237q0 -38 15 -55t47 -17q29 0 44 19t15 61v96q0 67 -4.5 121.5t-10.5 93.5q-2 12 10 12h90q9 0 11 -10
q5 -37 9.5 -91t4.5 -118v-99q0 -92 -41.5 -137t-127.5 -45zM183 724q-13 0 -10 13l29 129q2 9 12 9h91q6 0 8.5 -3.5t-0.5 -9.5l-53 -129q-3 -9 -12 -9h-65zM130 563q-28 0 -43.5 15t-15.5 41v13q0 26 15.5 40.5t43.5 14.5t43 -14.5t15 -40.5v-13q0 -26 -15 -41t-43 -15z
M299 563q-27 0 -42.5 15t-15.5 41v13q0 26 15.5 40.5t42.5 14.5q29 0 44 -14.5t15 -40.5v-13q0 -26 -15 -41t-44 -15z" />
    <glyph glyph-name="alpha" unicode="&#x3b1;" horiz-adv-x="436" 
d="M149 -8q-58 0 -84.5 36t-26.5 109v199q0 53 15 89.5t44 56t72 19.5q34 0 67 -14.5t55 -33.5l-4 -79q-20 14 -40.5 23t-39.5 9t-32.5 -8.5t-20 -25.5t-6.5 -44v-175q0 -34 11 -49t35 -15q22 0 44.5 16t50.5 48l10 -71q-32 -40 -69 -65t-81 -25zM372 -8q-45 0 -68 23
t-23 71v19l-5 14v291l4 30v41q0 11 11 11h84q11 0 11 -11v-360q0 -21 4.5 -28.5t17.5 -7.5q6 0 10.5 0.5t9.5 1.5q7 2 7 -8v-69q0 -9 -10 -13q-13 -2 -27 -3.5t-26 -1.5z" />
    <glyph glyph-name="beta" unicode="&#x3b2;" horiz-adv-x="443" 
d="M57 -185q-10 0 -10 11v693q0 85 43 128.5t127 43.5q80 0 120 -37t40 -111v-36q0 -46 -15 -74.5t-44 -44.5v-2q41 -10 64.5 -40t23.5 -83v-108q0 -82 -35.5 -122.5t-106.5 -40.5q-32 0 -62.5 8.5t-54.5 20.5l1 88q19 -11 40.5 -17.5t42.5 -6.5q32 0 48.5 19.5t16.5 59.5
v98q0 36 -13.5 53t-42.5 17h-35q-9 0 -9 9v58q0 9 9 9h9q32 0 44 17.5t12 60.5v39q0 38 -13 54t-41 16q-30 0 -44.5 -17t-14.5 -53v-699q0 -11 -11 -11h-89z" />
    <glyph glyph-name="gamma" unicode="&#x3b3;" horiz-adv-x="424" 
d="M171 -185q-10 0 -10 11v130q-6 59 -19 127.5t-29.5 137.5t-32.5 128q-10 37 -20 48t-28 11q-5 0 -11 -0.5t-12 -1.5q-5 -1 -7 1t-2 8v67q0 10 9 12q12 3 26 5t30 2q30 0 52.5 -10.5t38 -39.5t26.5 -86q6 -30 10.5 -56t8.5 -51q4 -20 7.5 -46t6 -52.5t5.5 -47.5h1
q4 21 8.5 48.5t10 57t10.5 56.5l50 208q1 10 11 10h97q6 0 8 -3.5t0 -9.5l-146 -483l1 -170q0 -11 -12 -11h-88z" />
    <glyph glyph-name="delta" unicode="&#x3b4;" horiz-adv-x="438" 
d="M219 -8q-87 0 -134 46t-47 137v88q0 42 13 74.5t36 55t56.5 38.5t74.5 27l51 -60q-50 -18 -76 -35.5t-35 -42.5t-9 -64v-76q0 -48 16.5 -69.5t53.5 -21.5t53 21.5t16 69.5v82q0 38 -6 61.5t-20.5 44t-41.5 48.5l-105 118q-18 20 -27.5 40.5t-9.5 40.5q0 31 21.5 50.5
t68.5 19.5h206q11 0 11 -11v-68q0 -11 -11 -11h-149q-18 0 -18 -12q0 -5 5 -11.5t12 -13.5l87 -92q36 -38 54.5 -70.5t26 -65t7.5 -74.5v-81q0 -91 -46.5 -137t-133.5 -46z" />
    <glyph glyph-name="epsilon" unicode="&#x3b5;" horiz-adv-x="404" 
d="M206 -8q-87 0 -130.5 36t-43.5 110q0 42 20.5 72.5t60.5 40.5v2q-33 13 -52 43t-19 74q0 64 40 97.5t122 33.5q85 0 128.5 -38t37.5 -104q-1 -14 -11 -14h-82q-10 0 -10 13q2 26 -12.5 39.5t-45.5 13.5q-30 0 -44.5 -14t-14.5 -43q0 -34 16 -51t51 -17h38q10 0 10 -11
v-55q0 -12 -10 -12h-48q-36 0 -51.5 -15.5t-15.5 -49.5q0 -31 16.5 -46t50.5 -15q33 0 50 12.5t15 38.5q-1 12 9 12h83q9 0 10 -15q7 -66 -35.5 -102t-132.5 -36z" />
    <glyph glyph-name="zeta" unicode="&#x3b6;" horiz-adv-x="367" 
d="M262 -131q-10 0 -10 11v85q0 13 -3 21t-11 11t-23 3h-22q-85 0 -125.5 48t-40.5 138q0 55 15.5 106t42.5 99.5t61 95.5l77 106h-174q-11 0 -11 12v67q0 11 11 11h290q10 0 10 -11v-56q0 -7 -4 -15l-83 -117q-37 -55 -65.5 -105.5t-44 -97t-15.5 -90.5q0 -49 20.5 -72
t70.5 -24q47 -1 75 -8t41 -27.5t13 -64.5v-115q0 -11 -10 -11h-85z" />
    <glyph glyph-name="eta" unicode="&#x3b7;" horiz-adv-x="457" 
d="M311 -185q-11 0 -11 11v517q0 32 -11 46t-36 14q-22 0 -44.5 -14.5t-49.5 -43.5l-10 68q33 40 70 64t82 24q55 0 82 -34.5t27 -107.5v-533q0 -11 -10 -11h-89zM70 0q-10 0 -10 11v362q0 21 -4.5 27.5t-16.5 6.5q-5 0 -10 -0.5t-11 -1.5q-7 -2 -7 8v69q0 9 10 12
q14 4 29 5.5t28 1.5q42 0 64 -23.5t22 -67.5v-15l6 -23v-361q0 -11 -11 -11h-89z" />
    <glyph glyph-name="theta" unicode="&#x3b8;" horiz-adv-x="453" 
d="M226 691q88 0 134 -46t46 -133v-341q0 -87 -46.5 -133t-133.5 -46q-86 0 -132.5 46t-46.5 133v341q0 87 46.5 133t132.5 46zM226 594q-35 0 -52.5 -20t-17.5 -64v-114h141v114q0 44 -17.5 64t-53.5 20zM226 89q36 0 53.5 20t17.5 64v135h-141v-135q0 -44 17.5 -64
t52.5 -20z" />
    <glyph glyph-name="iota" unicode="&#x3b9;" horiz-adv-x="270" 
d="M172 -8q-43 0 -71 13.5t-41 44.5t-13 84v347q0 11 10 11h89q11 0 11 -11v-344q0 -30 10.5 -41t34.5 -11q13 0 24.5 1.5t22.5 3.5q9 1 9 -10v-68q0 -9 -9 -12q-14 -4 -33 -6t-44 -2z" />
    <glyph glyph-name="kappa" unicode="&#x3ba;" horiz-adv-x="422" 
d="M308 0q-8 0 -12 7l-127 233q-6 9 0 18l122 228q4 6 11 6h100q13 0 7 -13l-126 -224l137 -241q3 -6 1 -10t-8 -4h-105zM57 0q-10 0 -10 11v470q0 11 10 11h89q11 0 11 -11v-470q0 -11 -11 -11h-89z" />
    <glyph glyph-name="lambda" unicode="&#x3bb;" horiz-adv-x="427" 
d="M362 -8q-34 0 -56 11t-35 41t-24 85l-19 97q-7 36 -12.5 69.5t-10.5 73.5h-2q-7 -40 -15 -75t-17 -72l-51 -213q-3 -9 -11 -9h-96q-12 0 -8 13l132 450q3 9 11 9h22l-18 82q-6 25 -17.5 34.5t-28.5 9.5t-32 -3q-10 -1 -10 9v70q0 9 8 11q13 3 28.5 4.5t31.5 1.5
q32 0 57.5 -10t44 -33.5t26.5 -66.5l96 -449q6 -27 14.5 -37t23.5 -10q9 0 24 3q10 2 10 -10v-67q0 -10 -9 -12q-14 -4 -29.5 -5.5t-27.5 -1.5z" />
    <glyph glyph-name="uni03BC" unicode="&#x3bc;" horiz-adv-x="441" 
d="M57 -185q-10 0 -10 11v655q0 11 10 11h89q11 0 11 -11v-323q0 -35 11.5 -52t34.5 -17q20 0 40.5 12.5t36.5 34.5v345q0 11 11 11h88q11 0 11 -11v-360q0 -21 4.5 -28.5t17.5 -7.5q6 0 10.5 0.5t9.5 1.5q8 2 8 -8v-69q0 -9 -10 -13q-13 -2 -27 -3.5t-27 -1.5
q-35 0 -56 14.5t-27 46.5v1q-20 -27 -43 -43t-50 -16q-14 0 -26 5.5t-19 12.5v-187q0 -11 -11 -11h-87z" />
    <glyph glyph-name="nu" unicode="&#x3bd;" horiz-adv-x="422" 
d="M159 0q-9 0 -12 9l-130 470q-3 13 8 13h98q9 0 12 -10l56 -257l12 -58t10 -58h2q7 28 15 54.5t15 53.5l26 84q10 34 16 65.5t6 66.5v48q0 11 10 11h91q9 0 9 -11v-43q0 -43 -9.5 -85.5t-24.5 -88.5l-88 -256q-1 -8 -11 -8h-111z" />
    <glyph glyph-name="xi" unicode="&#x3be;" horiz-adv-x="372" 
d="M268 -131q-10 0 -10 11v83q0 22 -7.5 29.5t-27.5 7.5h-22q-87 0 -127.5 40.5t-40.5 118.5v50q0 66 24.5 100.5t68.5 46.5v2q-40 17 -55.5 43t-15.5 64v17q0 45 19.5 72t62.5 40v3q-17 -1 -33.5 -2t-31.5 -1h-35q-10 0 -10 12v66q0 11 10 11h293q11 0 11 -11v-70
q0 -11 -11 -11h-47q-63 0 -91 -23.5t-28 -76.5v-18q0 -39 18 -57.5t59 -18.5h41q5 0 7.5 -3t2.5 -8v-65q0 -5 -2.5 -8t-7.5 -3h-57q-42 0 -62 -21.5t-20 -66.5v-48q0 -44 22 -61t71 -17q47 0 74 -7t39.5 -28t12.5 -65v-116q0 -11 -10 -11h-84z" />
    <glyph glyph-name="omicron" unicode="&#x3bf;" horiz-adv-x="436" 
d="M218 -8q-87 0 -133.5 46t-46.5 136v144q0 90 46.5 136.5t133.5 46.5q86 0 132.5 -46.5t46.5 -136.5v-144q0 -90 -46 -136t-133 -46zM218 89q36 0 52.5 21.5t16.5 68.5v134q0 48 -16.5 69t-52.5 21t-53 -21t-17 -69v-134q0 -47 17 -68.5t53 -21.5z" />
    <glyph glyph-name="pi" unicode="&#x3c0;" horiz-adv-x="488" 
d="M406 -8q-56 0 -84 30.5t-28 107.5v267h-111v-386q0 -11 -10 -11h-90q-10 0 -10 11v386h-51q-10 0 -10 11v73q0 11 10 11h442q10 0 10 -11v-73q0 -11 -10 -11h-60v-264q0 -27 8 -38t25 -11q8 0 16.5 0.5t16.5 1.5q10 3 10 -8v-66q0 -10 -8 -12q-13 -4 -30.5 -6t-35.5 -2z
" />
    <glyph glyph-name="rho" unicode="&#x3c1;" horiz-adv-x="430" 
d="M57 -185q-10 0 -10 11v500q0 88 44 131.5t129 43.5t128 -43t43 -131v-158q0 -87 -33 -132t-99 -45q-27 0 -58.5 8t-56.5 21l-1 88q17 -10 38 -17t40 -7q30 0 45.5 22t15.5 65v153q0 41 -15.5 60t-46.5 19t-47 -19t-16 -61v-498q0 -11 -11 -11h-89z" />
    <glyph glyph-name="uni03C2" unicode="&#x3c2;" horiz-adv-x="418" 
d="M272 -131q-9 0 -9 11v84q0 22 -8 29t-32 7h-23q-82 0 -122 42.5t-40 134.5v140q0 90 45.5 137t132.5 47q55 0 93 -20.5t56.5 -58t15.5 -86.5q-1 -17 -12 -17h-81q-9 0 -10 13q2 36 -14 53.5t-46 17.5q-36 0 -53 -21t-17 -70v-130q0 -47 19.5 -66.5t64.5 -19.5
q53 -1 82 -9t41 -29t12 -62v-116q0 -11 -10 -11h-85z" />
    <glyph glyph-name="sigma" unicode="&#x3c3;" horiz-adv-x="459" 
d="M217 -8q-88 0 -133.5 46t-45.5 133v141q0 83 45 131.5t132 48.5h226q11 0 11 -11v-72q0 -5 -3 -8.5t-8 -2.5l-87 6v-2q17 -16 29.5 -42t12.5 -67v-122q0 -87 -45.5 -133t-133.5 -46zM217 89q34 0 51.5 20t17.5 64v137q0 27 -5.5 45t-15 29t-21.5 16h-27
q-32 0 -50.5 -19.5t-18.5 -66.5v-141q0 -44 17 -64t52 -20z" />
    <glyph glyph-name="tau" unicode="&#x3c4;" horiz-adv-x="407" 
d="M259 -8q-42 0 -69.5 13.5t-41 46t-13.5 86.5v259h-110q-11 0 -11 11v73q0 11 10 11h358q10 0 10 -11v-73q0 -11 -10 -11h-137v-257q0 -31 10.5 -43t35.5 -12q14 0 28.5 2t24.5 3q9 1 9 -9v-68q0 -10 -8 -12q-14 -3 -36 -6t-50 -3z" />
    <glyph glyph-name="upsilon" unicode="&#x3c5;" horiz-adv-x="445" 
d="M232 -8q-89 0 -130.5 43t-41.5 127v211q0 20 -4.5 27t-16.5 7q-5 0 -10 -0.5t-11 -1.5q-7 -2 -7 8v69q0 10 10 12q14 3 29.5 5t29.5 2q49 0 69.5 -25t20.5 -78v-237q0 -38 15 -55t47 -17q29 0 44 19t15 61v96q0 67 -4.5 121.5t-10.5 93.5q-2 12 10 12h90q9 0 11 -10
q5 -37 9.5 -91t4.5 -118v-99q0 -92 -41.5 -137t-127.5 -45z" />
    <glyph glyph-name="phi" unicode="&#x3c6;" horiz-adv-x="623" 
d="M266 -185q-9 0 -9 11v174h-39q-83 0 -127 42.5t-44 133.5v305q0 11 10 11h89q11 0 11 -11v-311q0 -40 17 -58.5t50 -18.5h33v383q0 11 10 12q26 4 63.5 8.5t77.5 4.5q86 0 127 -40.5t41 -124.5v-160q0 -91 -43.5 -133.5t-127.5 -42.5h-38v-174q0 -11 -11 -11h-90zM367 93
h31q33 0 50.5 19t17.5 58v168q0 37 -14 52.5t-42 15.5q-12 0 -23 -1t-20 -3v-309z" />
    <glyph glyph-name="chi" unicode="&#x3c7;" horiz-adv-x="411" 
d="M353 -193q-48 0 -69.5 26t-39.5 89l-16 73q-6 24 -11.5 46.5t-9.5 46.5h-2q-6 -24 -12 -46.5t-12 -46.5l-52 -172q-2 -8 -11 -8h-101q-5 0 -7 4t0 10l127 333l-64 206q-9 24 -16.5 32.5t-19.5 8.5q-7 0 -13 -1t-13 -3q-9 -2 -9 9v68q0 9 8 11q12 3 26.5 5.5t30.5 2.5
q32 0 51.5 -12.5t31.5 -38t24 -65.5l18 -72q4 -20 8.5 -39.5t8.5 -40.5h2q4 21 9 41t10 41l49 168q3 9 12 9h100q12 0 7 -13l-120 -316l67 -216q10 -29 18.5 -39t20.5 -10q5 0 10.5 1.5t11.5 2.5q9 1 9 -9v-69q0 -9 -8 -11q-11 -3 -25 -4.5t-29 -1.5z" />
    <glyph glyph-name="psi" unicode="&#x3c8;" horiz-adv-x="629" 
d="M267 -185q-10 0 -10 11v174h-39q-84 0 -127.5 43t-43.5 133v305q0 11 10 11h89q11 0 11 -11v-311q0 -39 17 -58t50 -19h33v536q0 11 10 11h89q11 0 11 -11v-536h38q33 0 50 19t17 58v190q0 21 -6 33t-26 15q-8 1 -8 11v71q0 11 11 11q72 0 105.5 -34.5t33.5 -105.5v-185
q0 -90 -43.5 -133t-126.5 -43h-45v-174q0 -11 -10 -11h-90z" />
    <glyph glyph-name="omega" unicode="&#x3c9;" horiz-adv-x="625" 
d="M186 -8q-67 0 -104.5 40.5t-37.5 123.5v204q0 71 33 106t106 35q11 0 11 -11v-71q0 -10 -8 -11q-20 -3 -26 -14t-6 -34v-197q0 -40 13.5 -56t39.5 -16q25 0 39.5 17.5t14.5 54.5v168q0 12 10 12h85q10 0 10 -12v-168q0 -37 14.5 -54.5t39.5 -17.5q26 0 38.5 16t12.5 56
v197q0 23 -6 34t-25 14q-8 1 -8 11v71q0 11 11 11q74 0 106 -35t32 -106v-204q0 -83 -37 -123.5t-104 -40.5q-45 0 -78.5 21.5t-48.5 60.5h-2q-13 -37 -45 -59.5t-80 -22.5z" />
    <glyph glyph-name="iotadieresis" unicode="&#x3ca;" horiz-adv-x="270" 
d="M172 -8q-43 0 -71 13.5t-41 44.5t-13 84v347q0 11 10 11h89q11 0 11 -11v-344q0 -30 10.5 -41t34.5 -11q13 0 24.5 1.5t22.5 3.5q9 1 9 -10v-68q0 -9 -9 -12q-14 -4 -33 -6t-44 -2zM23 567q-28 0 -43.5 14.5t-15.5 40.5v14q0 27 15.5 41t43.5 14t43 -14t15 -41v-14
q0 -26 -15 -40.5t-43 -14.5zM182 567q-29 0 -44 14.5t-15 40.5v14q0 27 15 41t44 14t43 -14t14 -41v-14q0 -26 -14 -40.5t-43 -14.5z" />
    <glyph glyph-name="upsilondieresis" unicode="&#x3cb;" horiz-adv-x="445" 
d="M232 -8q-89 0 -130.5 43t-41.5 127v211q0 20 -4.5 27t-16.5 7q-5 0 -10 -0.5t-11 -1.5q-7 -2 -7 8v69q0 10 10 12q14 3 29.5 5t29.5 2q49 0 69.5 -25t20.5 -78v-237q0 -38 15 -55t47 -17q29 0 44 19t15 61v96q0 67 -4.5 121.5t-10.5 93.5q-2 12 10 12h90q9 0 11 -10
q5 -37 9.5 -91t4.5 -118v-99q0 -92 -41.5 -137t-127.5 -45zM136 566q-28 0 -43.5 14.5t-15.5 40.5v14q0 27 15.5 41t43.5 14t43 -14t15 -41v-14q0 -26 -15 -40.5t-43 -14.5zM295 566q-29 0 -44 14.5t-15 40.5v14q0 27 15 41t44 14t43 -14t14 -41v-14q0 -26 -14 -40.5
t-43 -14.5z" />
    <glyph glyph-name="omicrontonos" unicode="&#x3cc;" horiz-adv-x="436" 
d="M218 -8q-87 0 -133.5 46t-46.5 136v144q0 90 46.5 136.5t133.5 46.5q86 0 132.5 -46.5t46.5 -136.5v-144q0 -90 -46 -136t-133 -46zM218 89q36 0 52.5 21.5t16.5 68.5v134q0 48 -16.5 69t-52.5 21t-53 -21t-17 -69v-134q0 -47 17 -68.5t53 -21.5zM174 546q-10 0 -8 11
l36 148q1 6 4 8t9 2h90q13 0 8 -14l-58 -147q-4 -8 -14 -8h-67z" />
    <glyph glyph-name="upsilontonos" unicode="&#x3cd;" horiz-adv-x="445" 
d="M232 -8q-89 0 -130.5 43t-41.5 127v211q0 20 -4.5 27t-16.5 7q-5 0 -10 -0.5t-11 -1.5q-7 -2 -7 8v69q0 10 10 12q14 3 29.5 5t29.5 2q49 0 69.5 -25t20.5 -78v-237q0 -38 15 -55t47 -17q29 0 44 19t15 61v96q0 67 -4.5 121.5t-10.5 93.5q-2 12 10 12h90q9 0 11 -10
q5 -37 9.5 -91t4.5 -118v-99q0 -92 -41.5 -137t-127.5 -45zM172 545q-10 0 -8 11l36 148q1 6 4 8t9 2h90q13 0 8 -14l-58 -147q-4 -8 -14 -8h-67z" />
    <glyph glyph-name="omegatonos" unicode="&#x3ce;" horiz-adv-x="625" 
d="M186 -8q-67 0 -104.5 40.5t-37.5 123.5v204q0 71 33 106t106 35q11 0 11 -11v-71q0 -10 -8 -11q-20 -3 -26 -14t-6 -34v-197q0 -40 13.5 -56t39.5 -16q25 0 39.5 17.5t14.5 54.5v168q0 12 10 12h85q10 0 10 -12v-168q0 -37 14.5 -54.5t39.5 -17.5q26 0 38.5 16t12.5 56
v197q0 23 -6 34t-25 14q-8 1 -8 11v71q0 11 11 11q74 0 106 -35t32 -106v-204q0 -83 -37 -123.5t-104 -40.5q-45 0 -78.5 21.5t-48.5 60.5h-2q-13 -37 -45 -59.5t-80 -22.5zM269 546q-10 0 -8 11l36 148q1 6 4 8t9 2h90q13 0 8 -14l-58 -147q-4 -8 -14 -8h-67z" />
    <glyph glyph-name="uni0400" unicode="&#x400;" horiz-adv-x="434" 
d="M65 0q-10 0 -10 11v633q0 11 10 11h313q10 0 10 -11v-79q0 -11 -10 -11h-211v-174h193q10 0 10 -11v-74q0 -11 -10 -11h-193v-183h211q10 0 10 -11v-79q0 -11 -10 -11h-313zM214 710q-9 0 -15 8l-72 106q-3 6 -1.5 10t7.5 4h82q8 0 12 -8l57 -108q6 -12 -7 -12h-63z" />
    <glyph glyph-name="uni0401" unicode="&#x401;" horiz-adv-x="434" 
d="M65 0q-10 0 -10 11v633q0 11 10 11h313q10 0 10 -11v-79q0 -11 -10 -11h-211v-174h193q10 0 10 -11v-74q0 -11 -10 -11h-193v-183h211q10 0 10 -11v-79q0 -11 -10 -11h-313zM143 714q-28 0 -43.5 14.5t-15.5 40.5v13q0 27 15.5 41.5t43.5 14.5t43 -14.5t15 -41.5v-13
q0 -26 -15 -40.5t-43 -14.5zM301 714q-28 0 -43.5 14.5t-15.5 40.5v13q0 27 15.5 41.5t43.5 14.5q29 0 43.5 -14.5t14.5 -41.5v-13q0 -26 -14.5 -40.5t-43.5 -14.5z" />
    <glyph glyph-name="uni0402" unicode="&#x402;" horiz-adv-x="581" 
d="M393 -8q-7 -1 -9.5 0.5t-4.5 5.5l-25 77q-2 6 0 10.5t9 6.5q32 7 45.5 33t13.5 74v72q0 33 -12.5 48.5t-39.5 15.5q-25 0 -49 -12t-47 -35v-277q0 -11 -10 -11h-92q-11 0 -11 11v543h-131q-10 0 -10 11v79q0 11 10 11h380q9 0 9 -11v-79q0 -11 -9 -11h-136v-177
q29 25 65.5 42t77.5 17q59 0 88 -36.5t29 -105.5v-95q0 -93 -34 -143.5t-107 -63.5z" />
    <glyph glyph-name="uni0403" unicode="&#x403;" horiz-adv-x="379" 
d="M65 0q-10 0 -10 11v633q0 11 9 11h287q10 0 10 -11v-79q0 -11 -10 -11h-184v-543q0 -11 -10 -11h-92zM156 710q-5 0 -7 3.5t0 8.5l57 108q5 8 14 8h81q6 0 7.5 -4t-2.5 -10l-71 -106q-5 -8 -15 -8h-64z" />
    <glyph glyph-name="uni0404" unicode="&#x404;" horiz-adv-x="497" 
d="M253 -8q-106 0 -157.5 51t-51.5 161v246q0 111 52 162t153 51q69 0 116 -22.5t69.5 -64t16.5 -100.5q-1 -15 -9 -15h-94q-9 0 -9 16q1 28 -8.5 47t-29.5 28.5t-51 9.5q-49 0 -71 -22t-22 -79v-81h150q10 0 10 -10v-76q0 -11 -10 -11h-150v-87q0 -57 22 -80t72 -23
q33 0 52.5 10.5t29 29.5t8.5 47q0 14 11 14h91q10 0 11 -16q2 -58 -19.5 -100t-67 -64t-114.5 -22z" />
    <glyph glyph-name="uni0405" unicode="&#x405;" horiz-adv-x="452" 
d="M221 -8q-107 0 -152 52t-37 142q1 14 11 14h90q10 0 9 -14q-2 -47 18.5 -71.5t63.5 -24.5t62.5 18.5t19.5 57.5q0 21 -5.5 37t-18 29.5t-33.5 25.5l-107 64q-57 34 -81.5 74.5t-23.5 101.5q1 80 47 122.5t135 42.5q99 0 148 -49t41 -139q-2 -16 -11 -16h-91q-11 0 -9 16
q3 41 -16.5 65.5t-58.5 24.5q-35 0 -53.5 -16.5t-19.5 -50.5q-1 -31 13.5 -51.5t46.5 -38.5l105 -62q38 -23 61 -48t33.5 -56.5t9.5 -75.5q0 -84 -47 -129t-150 -45z" />
    <glyph glyph-name="uni0406" unicode="&#x406;" horiz-adv-x="222" 
d="M65 0q-10 0 -10 11v633q0 11 10 11h92q10 0 10 -11v-633q0 -11 -10 -11h-92z" />
    <glyph glyph-name="uni0407" unicode="&#x407;" horiz-adv-x="222" 
d="M65 0q-10 0 -10 11v633q0 11 10 11h92q10 0 10 -11v-633q0 -11 -10 -11h-92zM34 714q-28 0 -43.5 14.5t-15.5 40.5v13q0 27 15.5 41.5t43.5 14.5t43 -14.5t15 -41.5v-13q0 -26 -15 -40.5t-43 -14.5zM192 714q-28 0 -43.5 14.5t-15.5 40.5v13q0 27 15.5 41.5t43.5 14.5
q29 0 43.5 -14.5t14.5 -41.5v-13q0 -26 -14.5 -40.5t-43.5 -14.5z" />
    <glyph glyph-name="uni0408" unicode="&#x408;" horiz-adv-x="225" 
d="M28 -151q-13 -3 -16 8l-23 76q-2 6 0.5 10.5t8.5 5.5q20 6 33 20.5t20 42.5t7 71v561q0 11 10 11h93q9 0 9 -11v-556q0 -74 -15.5 -123.5t-47 -77.5t-79.5 -38z" />
    <glyph glyph-name="uni0409" unicode="&#x409;" horiz-adv-x="711" 
d="M8 0q-11 0 -8 12l162 635q3 8 12 8h122q8 0 12 -8l57 -224h99q111 0 165.5 -52t54.5 -155q0 -104 -49.5 -159.5t-155.5 -56.5h-118q-8 0 -11 8l-89 407q-7 33 -13.5 66.5t-12.5 66.5h-2q-7 -33 -12.5 -66.5t-13.5 -66.5l-89 -406q-2 -9 -12 -9h-98zM447 100h26
q50 0 74 28t24 88t-26.5 85.5t-84.5 25.5h-71z" />
    <glyph glyph-name="uni040A" unicode="&#x40a;" horiz-adv-x="772" 
d="M65 0q-10 0 -10 11v633q0 11 10 11h92q10 0 10 -11v-238h198v238q0 11 11 11h91q11 0 11 -11v-238h56q105 0 158 -50.5t53 -145.5q0 -101 -51.5 -155.5t-161.5 -54.5h-156q-11 0 -11 11v298h-198v-298q0 -11 -10 -11h-92zM478 100h52q53 0 78 27t24 82q0 52 -25 76
t-76 24h-53v-209z" />
    <glyph glyph-name="uni040B" unicode="&#x40b;" horiz-adv-x="581" 
d="M172 0q-11 0 -11 11v543h-131q-10 0 -10 11v79q0 11 10 11h388q10 0 10 -11v-79q0 -11 -10 -11h-144v-177q29 25 64.5 42t78.5 17q59 0 88 -36.5t29 -105.5v-283q0 -11 -10 -11h-91q-11 0 -11 11v259q0 33 -13 49t-40 16q-24 0 -48 -12t-47 -35v-277q0 -11 -10 -11h-92z
" />
    <glyph glyph-name="uni040C" unicode="&#x40c;" horiz-adv-x="487" 
d="M65 0q-10 0 -10 11v633q0 11 10 11h92q10 0 10 -11v-266h47l136 270q2 4 5.5 5.5t7.5 1.5h98q6 0 7 -4t-2 -10l-154 -299l173 -328q3 -6 1 -10t-8 -4h-106q-3 0 -6.5 1t-5.5 6l-144 272h-49v-268q0 -11 -10 -11h-92zM185 710q-5 0 -7 3.5t0 8.5l57 108q5 8 14 8h81
q6 0 7.5 -4t-2.5 -10l-71 -106q-5 -8 -15 -8h-64z" />
    <glyph glyph-name="uni040D" unicode="&#x40d;" horiz-adv-x="531" 
d="M65 0q-10 0 -10 11v633q0 11 10 11h88q10 0 10 -11v-261q0 -35 -2 -77.5t-4.5 -82t-4.5 -67.5h2q9 27 20.5 59t27.5 74t38 94l112 265q2 7 11 7h102q12 0 12 -11v-633q0 -11 -12 -11h-87q-11 0 -11 11l2 246q0 36 1.5 80t4 87t5.5 72h-3q-9 -28 -21.5 -61.5t-29.5 -76.5
t-42 -101l-106 -250q-2 -7 -11 -7h-102zM258 710q-9 0 -15 8l-72 106q-3 6 -1.5 10t7.5 4h82q8 0 12 -8l57 -108q6 -12 -7 -12h-63z" />
    <glyph glyph-name="uni040E" unicode="&#x40e;" horiz-adv-x="470" 
d="M102 0q-5 0 -7.5 3.5t0.5 10.5l82 210l-164 417q-2 7 0.5 10.5t7.5 3.5h106q8 0 10 -7l67 -195q9 -28 17 -54.5t15 -55.5h2q8 29 16.5 56t16.5 54l68 195q1 7 11 7h105q6 0 7.5 -3.5t-0.5 -9.5l-249 -635q-3 -7 -12 -7h-99zM238 709q-38 0 -66.5 13t-42.5 24q-5 5 -5 13
v57q0 15 11 7q19 -12 45 -23t58 -11t58 11t44 23q11 8 11 -7v-57q0 -8 -4 -13q-14 -12 -42.5 -24.5t-66.5 -12.5z" />
    <glyph glyph-name="uni040F" unicode="&#x40f;" horiz-adv-x="531" 
d="M221 -137q-10 0 -10 11v126h-146q-10 0 -10 11v633q0 11 10 11h92q10 0 10 -11v-542h197v542q0 11 11 11h91q10 0 10 -11v-633q0 -5 -2.5 -8t-7.5 -3h-145v-126q0 -11 -11 -11h-89z" />
    <glyph glyph-name="uni0410" unicode="&#x410;" horiz-adv-x="476" 
d="M8 0q-11 0 -8 12l165 635q3 8 12 8h121q9 0 13 -8l166 -635q2 -12 -9 -12h-101q-8 0 -12 8l-90 406q-8 34 -14.5 67.5t-12.5 66.5h-2q-7 -33 -13.5 -66.5t-13.5 -67.5l-91 -405q-1 -9 -11 -9h-99zM130 140l19 94h174l20 -94h-213z" />
    <glyph glyph-name="uni0411" unicode="&#x411;" horiz-adv-x="469" 
d="M65 0q-10 0 -10 11v633q0 11 11 11h308q10 0 10 -11v-79q0 -11 -11 -11h-206v-146h60q110 0 161 -49.5t51 -146.5q0 -105 -51.5 -158.5t-164.5 -53.5h-158zM167 95h57q53 0 77.5 27.5t24.5 87.5q0 58 -24 82.5t-77 24.5h-58v-222z" />
    <glyph glyph-name="uni0412" unicode="&#x412;" horiz-adv-x="475" 
d="M66 0q-11 0 -11 11v633q0 11 11 11h157q100 0 149.5 -40.5t49.5 -121.5q0 -54 -21.5 -89t-67.5 -57v-2q55 -14 83.5 -53.5t28.5 -104.5q0 -96 -52.5 -141.5t-164.5 -45.5h-162zM167 95h63q53 0 78 24t25 76q0 49 -25 73.5t-78 24.5h-63v-198zM167 380h56q45 0 66.5 23.5
t21.5 69.5t-22 66.5t-71 20.5h-51v-180z" />
    <glyph glyph-name="uni0413" unicode="&#x413;" horiz-adv-x="379" 
d="M65 0q-10 0 -10 11v633q0 11 9 11h287q10 0 10 -11v-79q0 -11 -10 -11h-184v-543q0 -11 -10 -11h-92z" />
    <glyph glyph-name="uni0414" unicode="&#x414;" horiz-adv-x="523" 
d="M154 32l-116 1l151 614q4 8 12 8h122q9 0 11 -8l152 -614l-120 -1l-75 369q-8 37 -15 74t-14 73h-2q-7 -37 -14.5 -74t-15.5 -74zM17 -137q-10 0 -10 11v216q0 12 10 12h489q11 0 11 -12v-216q0 -5 -3 -8t-8 -3h-89q-10 0 -10 11v126h-290v-126q0 -11 -11 -11h-89z" />
    <glyph glyph-name="uni0415" unicode="&#x415;" horiz-adv-x="434" 
d="M65 0q-10 0 -10 11v633q0 11 10 11h313q10 0 10 -11v-79q0 -11 -10 -11h-211v-174h193q10 0 10 -11v-74q0 -11 -10 -11h-193v-183h211q10 0 10 -11v-79q0 -11 -10 -11h-313z" />
    <glyph glyph-name="uni0416" unicode="&#x416;" horiz-adv-x="713" 
d="M24 0q-13 0 -8 14l135 325l-121 302q-4 14 8 14h101q9 0 11 -7l98 -271h55v267q0 11 10 11h87q11 0 11 -11v-267h55l97 271q3 7 13 7h100q6 0 7.5 -3.5t-1.5 -10.5l-120 -302l134 -325q3 -6 1 -10t-8 -4h-107q-4 0 -7 1.5t-5 6.5l-103 273h-56v-270q0 -11 -11 -11h-87
q-10 0 -10 11v270h-58l-105 -273q-2 -5 -5 -6.5t-7 -1.5h-104z" />
    <glyph glyph-name="uni0417" unicode="&#x417;" horiz-adv-x="469" 
d="M222 -8q-102 0 -148.5 47t-39.5 134q0 8 3.5 11t7.5 3h84q10 0 9 -11q-1 -44 19.5 -65.5t65.5 -21.5q54 0 77.5 23.5t23.5 78.5q0 49 -23 71t-79 22h-65q-9 0 -9 11v71q0 11 9 11h51q52 0 74.5 24.5t22.5 74.5q0 48 -19.5 69.5t-66.5 21.5q-44 0 -62 -20.5t-17 -63.5
q1 -12 -8 -12h-85q-5 0 -8 2.5t-3 10.5q-5 86 42.5 132.5t147.5 46.5q190 0 190 -168q0 -56 -22.5 -96.5t-62.5 -59.5v-1q51 -14 77.5 -52t26.5 -98q0 -97 -53.5 -146.5t-159.5 -49.5z" />
    <glyph glyph-name="uni0418" unicode="&#x418;" horiz-adv-x="531" 
d="M65 0q-10 0 -10 11v633q0 11 10 11h88q10 0 10 -11v-261q0 -35 -2 -77.5t-4.5 -82t-4.5 -67.5h2q9 27 20.5 59t27.5 74t38 94l112 265q2 7 11 7h102q12 0 12 -11v-633q0 -11 -12 -11h-87q-11 0 -11 11l2 246q0 36 1.5 80t4 87t5.5 72h-3q-9 -28 -21.5 -61.5t-29.5 -76.5
t-42 -101l-106 -250q-2 -7 -11 -7h-102z" />
    <glyph glyph-name="uni0419" unicode="&#x419;" horiz-adv-x="531" 
d="M65 0q-10 0 -10 11v633q0 11 10 11h88q10 0 10 -11v-261q0 -35 -2 -77.5t-4.5 -82t-4.5 -67.5h2q9 27 20.5 59t27.5 74t38 94l112 265q2 7 11 7h102q12 0 12 -11v-633q0 -11 -12 -11h-87q-11 0 -11 11l2 246q0 36 1.5 80t4 87t5.5 72h-3q-9 -28 -21.5 -61.5t-29.5 -76.5
t-42 -101l-106 -250q-2 -7 -11 -7h-102zM265 709q-38 0 -66.5 13t-42.5 24q-5 5 -5 13v57q0 15 11 7q19 -12 45 -23t58 -11t58 11t44 23q11 8 11 -7v-57q0 -8 -4 -13q-14 -12 -42.5 -24.5t-66.5 -12.5z" />
    <glyph glyph-name="uni041A" unicode="&#x41a;" horiz-adv-x="487" 
d="M65 0q-10 0 -10 11v633q0 11 10 11h92q10 0 10 -11v-266h47l136 270q2 4 5.5 5.5t7.5 1.5h98q6 0 7 -4t-2 -10l-154 -299l173 -328q3 -6 1 -10t-8 -4h-106q-3 0 -6.5 1t-5.5 6l-144 272h-49v-268q0 -11 -10 -11h-92z" />
    <glyph glyph-name="uni041B" unicode="&#x41b;" horiz-adv-x="470" 
d="M8 0q-11 0 -8 12l162 635q3 8 12 8h121q9 0 13 -8l163 -635q2 -12 -9 -12h-101q-8 0 -11 8l-89 404q-7 34 -13.5 68.5t-12.5 67.5h-2q-7 -33 -13 -67t-13 -68l-89 -404q-2 -9 -12 -9h-98z" />
    <glyph glyph-name="uni041C" unicode="&#x41c;" horiz-adv-x="632" 
d="M55 0q-11 0 -11 11l11 633q0 11 10 11h119q9 0 12 -8l121 -353l119 353q4 8 12 8h119q10 0 10 -11l11 -633q0 -11 -11 -11h-90q-10 0 -10 11l-5 319q-1 43 0.5 82.5t4.5 76.5h-3q-10 -34 -22 -69t-25 -68l-98 -265q-3 -8 -11 -8h-5q-8 0 -10 8l-99 267q-13 33 -24.5 67.5
t-21.5 67.5h-2q2 -36 3.5 -75.5t0.5 -82.5l-5 -320q0 -11 -10 -11h-90z" />
    <glyph glyph-name="uni041D" unicode="&#x41d;" horiz-adv-x="533" 
d="M65 0q-10 0 -10 11v633q0 11 10 11h92q10 0 10 -11v-259h198v259q0 11 11 11h91q11 0 11 -11v-633q0 -11 -11 -11h-91q-11 0 -11 11v273h-198v-273q0 -11 -10 -11h-92z" />
    <glyph glyph-name="uni041E" unicode="&#x41e;" horiz-adv-x="520" 
d="M259 -8q-105 0 -160 57t-55 166v224q0 110 55 167t160 57q107 0 162 -57t55 -167v-224q0 -109 -55 -166t-162 -57zM259 93q52 0 78 31t26 96v214q0 66 -26 97t-78 31q-50 0 -76 -31t-26 -97v-214q0 -65 26 -96t76 -31z" />
    <glyph glyph-name="uni041F" unicode="&#x41f;" horiz-adv-x="531" 
d="M65 0q-10 0 -10 11v633q0 11 10 11h400q11 0 11 -11v-633q0 -11 -10 -11h-92q-11 0 -11 11v543h-196v-542q0 -12 -10 -12h-92z" />
    <glyph glyph-name="uni0420" unicode="&#x420;" horiz-adv-x="452" 
d="M65 0q-10 0 -10 11v633q0 11 10 11h149q107 0 158.5 -53t51.5 -159q0 -102 -52 -156.5t-156 -54.5h-49v-221q0 -11 -10 -11h-92zM167 331h46q51 0 75 27t24 83q0 61 -24 87.5t-74 26.5h-47v-224z" />
    <glyph glyph-name="uni0421" unicode="&#x421;" horiz-adv-x="513" 
d="M259 -8q-104 0 -159.5 56.5t-55.5 171.5v214q0 114 55.5 171.5t159.5 57.5q72 0 122 -28t73 -79.5t14 -121.5q0 -12 -10 -12h-92q-10 0 -10 12q5 62 -19 95t-77 33q-51 0 -77 -31.5t-26 -99.5v-206q0 -69 26.5 -100.5t76.5 -31.5q55 0 78 35t20 93q-2 12 9 12h91
q10 0 11 -12q9 -106 -46 -167.5t-164 -61.5z" />
    <glyph glyph-name="uni0422" unicode="&#x422;" horiz-adv-x="435" 
d="M172 0q-11 0 -11 11v543h-131q-10 0 -10 11v79q0 11 10 11h375q10 0 10 -11v-79q0 -11 -10 -11h-131v-543q0 -11 -10 -11h-92z" />
    <glyph glyph-name="uni0423" unicode="&#x423;" horiz-adv-x="470" 
d="M102 0q-5 0 -7.5 3.5t0.5 10.5l82 210l-164 417q-2 7 0.5 10.5t7.5 3.5h106q8 0 10 -7l67 -195q9 -28 17 -54.5t15 -55.5h2q8 29 16.5 56t16.5 54l68 195q1 7 11 7h105q6 0 7.5 -3.5t-0.5 -9.5l-249 -635q-3 -7 -12 -7h-99z" />
    <glyph glyph-name="uni0424" unicode="&#x424;" horiz-adv-x="670" 
d="M299 -8q-81 0 -137.5 25t-87 78t-30.5 137v193q0 82 30.5 134.5t88 78t138.5 25.5h67q81 0 138.5 -25t88 -78t30.5 -135v-193q0 -84 -30.5 -137.5t-87.5 -78t-138 -24.5h-70zM295 90h79q48 0 79.5 13.5t46.5 46t15 88.5v181q0 54 -15 86t-46 46t-80 14h-79
q-48 0 -79.5 -14t-46.5 -46t-15 -86v-181q0 -56 15 -88.5t47 -46t79 -13.5zM289 -76q-11 0 -11 12v101l5 28v525l-5 28v101q0 12 11 12h92q10 0 10 -12v-101l-5 -28v-525l5 -28v-101q0 -12 -10 -12h-92z" />
    <glyph glyph-name="uni0425" unicode="&#x425;" horiz-adv-x="466" 
d="M10 0q-13 0 -6 14l163 323l-154 304q-2 7 -0.5 10.5t7.5 3.5h109q8 0 10 -6l60 -132q9 -23 18 -46.5t17 -46.5h2q8 23 17.5 47.5t18.5 47.5l57 129q3 7 11 7h107q13 0 6 -14l-153 -305l162 -322q3 -6 1.5 -10t-8.5 -4h-110q-7 0 -11 7l-63 143q-10 24 -19.5 49t-18.5 49
h-2q-8 -24 -18 -49t-19 -48l-65 -143q-3 -8 -12 -8h-107z" />
    <glyph glyph-name="uni0426" unicode="&#x426;" horiz-adv-x="544" 
d="M428 -137q-11 0 -11 11v126h-352q-10 0 -10 11v633q0 11 10 11h92q10 0 10 -11v-542h192v542q0 11 10 11h92q10 0 10 -11v-542h46q10 0 10 -12v-216q0 -11 -10 -11h-89z" />
    <glyph glyph-name="uni0427" unicode="&#x427;" horiz-adv-x="510" 
d="M192 201q-69 0 -106 40t-37 130v273q0 11 10 11h91q11 0 11 -11v-256q0 -47 16.5 -66.5t53.5 -19.5q32 0 64.5 15t59.5 39v-95q-32 -24 -73.5 -42t-89.5 -18zM354 0q-11 0 -11 11v633q0 11 11 11h91q11 0 11 -11v-633q0 -11 -11 -11h-91z" />
    <glyph glyph-name="uni0428" unicode="&#x428;" horiz-adv-x="718" 
d="M65 0q-10 0 -10 11v633q0 11 10 11h92q10 0 10 -11v-542h136v542q0 11 10 11h91q11 0 11 -11v-542h136v542q0 11 10 11h91q11 0 11 -11v-633q0 -11 -11 -11h-587z" />
    <glyph glyph-name="uni0429" unicode="&#x429;" horiz-adv-x="735" 
d="M620 -137q-5 0 -8 3t-3 8v126h-544q-10 0 -10 11v633q0 11 10 11h92q10 0 10 -11v-542h136v542q0 11 10 11h91q11 0 11 -11v-542h136v542q0 11 10 11h91q11 0 11 -11v-542h45q4 0 7.5 -3.5t3.5 -8.5v-216q0 -5 -3.5 -8t-7.5 -3h-88z" />
    <glyph glyph-name="uni042A" unicode="&#x42a;" horiz-adv-x="538" 
d="M140 0q-11 0 -11 11v543h-99q-10 0 -10 11v79q0 11 10 11h201q11 0 11 -11v-221h54q108 0 161.5 -52t53.5 -153q0 -107 -52 -162.5t-165 -55.5h-154zM242 100h51q55 0 80.5 28.5t25.5 89.5q-1 59 -26.5 84t-79.5 25h-51v-227z" />
    <glyph glyph-name="uni042B" unicode="&#x42b;" horiz-adv-x="685" 
d="M65 0q-10 0 -10 11v633q0 11 10 11h92q10 0 10 -11v-221h54q108 0 161 -52t53 -153q0 -107 -51.5 -162.5t-164.5 -55.5h-154zM167 100h51q56 0 81 28.5t24 89.5q0 59 -25 84t-80 25h-51v-227zM528 0q-10 0 -10 11v633q0 11 10 11h92q10 0 10 -11v-633q0 -11 -10 -11h-92z
" />
    <glyph glyph-name="uni042C" unicode="&#x42c;" horiz-adv-x="463" 
d="M65 0q-10 0 -10 11v633q0 11 10 11h92q10 0 10 -11v-221h54q108 0 161 -52t53 -153q0 -107 -51.5 -162.5t-164.5 -55.5h-154zM167 100h51q56 0 81 28.5t24 89.5q0 59 -25 84t-80 25h-51v-227z" />
    <glyph glyph-name="uni042D" unicode="&#x42d;" horiz-adv-x="495" 
d="M241 -8q-69 0 -114 22t-66 64t-19 100q1 16 11 16h90q11 0 10 -14q0 -28 9 -47t29.5 -29.5t53.5 -10.5q49 0 71 23.5t22 81.5v85h-150q-10 0 -10 11v76q0 10 10 10h150v78q0 59 -21.5 81.5t-70.5 22.5q-31 0 -51.5 -9.5t-30 -28.5t-9.5 -47q0 -16 -9 -16h-92q-8 0 -10 15
q-4 59 19.5 100.5t71 64t115.5 22.5q103 0 151.5 -51t48.5 -163v-245q0 -110 -50.5 -161t-158.5 -51z" />
    <glyph glyph-name="uni042E" unicode="&#x42e;" horiz-adv-x="715" 
d="M463 -8q-99 0 -152.5 56.5t-53.5 166.5v225q0 110 53.5 166.5t152.5 56.5q100 0 153.5 -56.5t53.5 -165.5v-226q0 -110 -53.5 -166.5t-153.5 -56.5zM64 0q-9 0 -9 11v633q0 11 9 11h93q10 0 10 -11v-259h131v-101h-131v-273q0 -11 -10 -11h-93zM463 93q47 0 71 29.5
t24 96.5v217q0 67 -24 96.5t-71 29.5t-70.5 -29.5t-23.5 -96.5v-217q0 -66 23.5 -96t70.5 -30z" />
    <glyph glyph-name="uni042F" unicode="&#x42f;" horiz-adv-x="486" 
d="M23 0q-13 0 -7 14l82 180q10 22 21 45.5t22 44.5v2q-46 22 -70 63t-24 104q0 65 22.5 110t68.5 68.5t118 23.5h165q11 0 11 -11v-633q0 -11 -11 -11h-91q-10 0 -10 11v253h-75l-110 -257q-1 -3 -4.5 -5t-7.5 -2h-100zM260 355h60v201h-62q-51 0 -74.5 -25.5t-23.5 -79.5
q0 -51 23.5 -73.5t76.5 -22.5z" />
    <glyph glyph-name="uni0430" unicode="&#x430;" horiz-adv-x="409" 
d="M280 0q-8 0 -11 11q-2 14 -4.5 39.5t-3.5 46.5l-8 22v229q0 37 -11 50.5t-41 13.5q-54 0 -50 -57q1 -11 -11 -11h-80q-11 0 -12 15q-6 68 35 105t122 37q83 0 120.5 -36.5t37.5 -117.5v-222q0 -40 1 -67t3 -46q2 -12 -10 -12h-77zM133 -8q-49 0 -76 35t-27 99
q0 72 37 111t125 48l72 8l-1 -68l-54 -6q-39 -5 -55.5 -23.5t-16.5 -55.5q0 -30 9 -45t28 -15q21 0 42.5 15t51.5 53l7 -71q-38 -43 -70 -64t-72 -21z" />
    <glyph glyph-name="uni0431" unicode="&#x431;" horiz-adv-x="436" 
d="M220 -8q-88 0 -132.5 45.5t-44.5 138.5v253q0 78 20.5 122t61.5 70q21 14 47 23t53.5 17t54 18.5t47.5 26.5q4 3 8 1.5t5 -7.5l21 -76q1 -5 1 -9t-4 -6q-22 -18 -50.5 -26.5t-57 -15.5t-51.5 -19q-27 -14 -37 -40t-10 -65v-264q0 -47 16 -68.5t52 -21.5t51.5 22t15.5 68
v120q0 36 -12 50.5t-37 14.5q-24 0 -48.5 -16t-45.5 -44l-2 86q28 31 63.5 51.5t75.5 20.5q55 0 85.5 -36.5t30.5 -112.5l-1 -137q0 -91 -46 -137.5t-130 -46.5z" />
    <glyph glyph-name="uni0432" unicode="&#x432;" horiz-adv-x="436" 
d="M217 -8q-88 0 -131 45t-43 136v345q0 85 42.5 129t128.5 44q80 0 120 -37.5t40 -110.5q0 -55 -18 -93t-51 -58v-1q45 -8 68 -41t23 -92v-81q0 -89 -46 -137t-133 -48zM218 89q36 0 52.5 22.5t16.5 67.5v85q0 37 -13.5 52.5t-43.5 15.5q-17 0 -37 -5t-41 -13v-137
q0 -46 14.5 -67t51.5 -21zM152 393l42 11q34 10 53 39t19 77q0 40 -12.5 58t-42.5 18q-29 0 -44 -17.5t-15 -53.5v-132z" />
    <glyph glyph-name="uni0433" unicode="&#x433;" horiz-adv-x="393" 
d="M192 -8q-81 0 -120.5 30t-39.5 96q0 48 18.5 82t58.5 57l89 50q25 14 34.5 29t9.5 35q0 43 -49 43q-28 0 -40.5 -13t-11.5 -38q0 -14 -11 -14h-81q-9 0 -11 14q-6 64 35 101t124 37q76 0 115.5 -31.5t39.5 -95.5q0 -48 -19.5 -79.5t-60.5 -54.5l-83 -45q-25 -15 -36 -31
t-11 -40q0 -26 14.5 -36t41.5 -10q32 1 46 15.5t13 45.5q-1 13 9 13h82q10 0 11 -13q6 -72 -35 -109.5t-132 -37.5z" />
    <glyph glyph-name="uni0434" unicode="&#x434;" horiz-adv-x="433" 
d="M211 -193q-86 0 -125.5 36t-34.5 99q1 8 4.5 11t8.5 3h80q5 0 8 -2.5t3 -10.5q-1 -24 13 -36t44 -12q36 0 50.5 19t14.5 60v45v27.5v24.5l-1 1q-30 -28 -61 -42t-64 -14q-57 0 -85 35t-28 108v166q0 91 41.5 133.5t124.5 42.5q51 0 93.5 -9t89.5 -12v-496q0 -60 -20 -99
t-59 -58.5t-97 -19.5zM195 113q20 0 39.5 11t42.5 33v242q-15 3 -31.5 5.5t-30.5 2.5q-36 0 -51.5 -20.5t-15.5 -65.5v-145q0 -33 11.5 -48t35.5 -15z" />
    <glyph glyph-name="uni0435" unicode="&#x435;" horiz-adv-x="427" 
d="M216 -8q-89 0 -133.5 44t-44.5 135v147q0 91 44.5 137t131.5 46q88 0 131.5 -46t43.5 -137v-87q0 -11 -10 -11h-232v-49q0 -47 16.5 -68t53.5 -21q30 0 45 13t14 41q0 11 10 11h86q8 0 10 -11q1 -71 -40.5 -107.5t-125.5 -36.5zM147 295h134v31q0 44 -16 64.5t-49 20.5
q-36 0 -52.5 -20.5t-16.5 -64.5v-31z" />
    <glyph glyph-name="uni0436" unicode="&#x436;" horiz-adv-x="606" 
d="M17 0q-6 0 -7.5 4t0.5 10l106 253l-94 212q-6 13 6 13h97q9 0 11 -7l73 -181h40v368q0 11 10 11h88q10 0 10 -11v-368h40l74 181q2 7 12 7h95q13 0 6 -13l-94 -212l106 -253q7 -14 -6 -14h-100q-4 0 -7 1.5t-5 5.5l-82 207h-39v-203q0 -11 -10 -11h-88q-10 0 -10 11v203
h-41l-83 -207q-3 -7 -12 -7h-96z" />
    <glyph glyph-name="uni0437" unicode="&#x437;" horiz-adv-x="387" 
d="M180 -193q-86 0 -126 41t-32 116q2 14 11 14h81q12 0 11 -13q-2 -35 11.5 -53.5t44.5 -18.5q33 0 49.5 20t16.5 67v62q0 42 -20 62t-66 20h-59q-4 0 -7 3t-3 8v70q0 4 3 7.5t7 3.5h53q40 0 60 23t20 67v40q0 36 -13 52t-42 16t-41.5 -15.5t-10.5 -42.5q0 -5 -2.5 -8.5
t-6.5 -3.5h-83q-10 0 -11 14q-6 65 35.5 104t123.5 39q80 0 120 -37t40 -109v-44q0 -46 -20 -81.5t-56 -52.5v-1q43 -11 65.5 -45t22.5 -85v-55q0 -88 -42 -136t-134 -48z" />
    <glyph glyph-name="uni0438" unicode="&#x438;" horiz-adv-x="437" 
d="M154 -8q-56 0 -81.5 34.5t-25.5 107.5v347q0 11 10 11h89q11 0 11 -11v-331q0 -33 10 -47t30 -14q25 0 48 16.5t49 47.5l10 -71q-31 -40 -69 -65t-81 -25zM309 0q-10 0 -12 10q-3 18 -5 42.5t-2 42.5l-10 31v355q0 11 11 11h88q11 0 11 -11v-356q0 -34 1 -62.5t3 -50.5
q2 -12 -10 -12h-75z" />
    <glyph glyph-name="uni0439" unicode="&#x439;" horiz-adv-x="437" 
d="M154 -8q-56 0 -81.5 34.5t-25.5 107.5v347q0 11 10 11h89q11 0 11 -11v-331q0 -33 10 -47t30 -14q25 0 48 16.5t49 47.5l10 -71q-31 -40 -69 -65t-81 -25zM309 0q-10 0 -12 10q-3 18 -5 42.5t-2 42.5l-10 31v355q0 11 11 11h88q11 0 11 -11v-356q0 -34 1 -62.5t3 -50.5
q2 -12 -10 -12h-75zM219 549q-37 0 -62.5 14t-39.5 25q-4 6 -4 13v59q0 7 3 8.5t8 -2.5q17 -13 41 -24.5t54 -11.5t53.5 11.5t40.5 24.5q4 4 7.5 2.5t3.5 -8.5v-59q0 -9 -4 -13q-15 -12 -39.5 -25.5t-61.5 -13.5z" />
    <glyph glyph-name="uni043A" unicode="&#x43a;" horiz-adv-x="420" 
d="M416 14q3 -6 1 -10t-8 -4h-102q-9 0 -12 8l-98 205h-40v-202q0 -11 -11 -11h-89q-10 0 -10 11v661q0 11 10 11h89q11 0 11 -11v-367h40l90 180q4 7 12 7h99q7 0 8 -4t-1 -9l-113 -211z" />
    <glyph glyph-name="uni043B" unicode="&#x43b;" horiz-adv-x="392" 
d="M12 0q-11 0 -8 13l127 467q3 12 13 12h104q11 0 14 -12l126 -467q3 -13 -7 -13h-97q-8 0 -11 9l-53 245q-5 31 -11.5 61.5t-11.5 63.5h-1q-5 -33 -11 -63.5t-14 -61.5l-53 -245q-2 -9 -11 -9h-95z" />
    <glyph glyph-name="uni043C" unicode="&#x43c;" horiz-adv-x="515" 
d="M53 0q-11 0 -11 11l8 470q0 11 10 11h93q8 0 12 -8l92 -258l93 258q4 8 11 8h94q10 0 10 -11l7 -470q0 -11 -10 -11h-81q-11 0 -11 11l-1 179q0 18 1 44t3 53.5t3 49.5h-2q-9 -31 -19 -59t-19 -50l-67 -164q-2 -8 -12 -8q-9 0 -12 8l-68 164q-8 21 -17.5 49.5t-18.5 59.5
h-3q2 -22 3.5 -49.5t2.5 -53.5t1 -44v-179q0 -11 -11 -11h-81z" />
    <glyph glyph-name="uni043D" unicode="&#x43d;" horiz-adv-x="437" 
d="M291 0q-11 0 -11 11v470q0 11 11 11h89q10 0 10 -11v-470q0 -11 -10 -11h-89zM57 0q-10 0 -10 11v470q0 11 10 11h89q11 0 11 -11v-470q0 -11 -11 -11h-89zM143 202v94h156v-94h-156z" />
    <glyph glyph-name="uni043E" unicode="&#x43e;" horiz-adv-x="436" 
d="M218 -8q-87 0 -133.5 46t-46.5 136v144q0 90 46.5 136.5t133.5 46.5q86 0 132.5 -46.5t46.5 -136.5v-144q0 -90 -46 -136t-133 -46zM218 89q36 0 52.5 21.5t16.5 68.5v134q0 48 -16.5 69t-52.5 21t-53 -21t-17 -69v-134q0 -47 17 -68.5t53 -21.5z" />
    <glyph glyph-name="uni043F" unicode="&#x43f;" horiz-adv-x="445" 
d="M299 0q-11 0 -11 11v332q0 32 -11 46t-36 14q-22 0 -44.5 -14.5t-49.5 -43.5l-11 68q33 40 70 64t82 24q55 0 82.5 -34.5t27.5 -107.5v-348q0 -11 -10 -11h-89zM57 0q-10 0 -10 11v356q0 35 -1 63.5t-3 48.5q-1 13 9 13h78q9 0 11 -10q2 -16 4.5 -43t3.5 -45l8 -28v-355
q0 -11 -11 -11h-89z" />
    <glyph glyph-name="uni0440" unicode="&#x440;" horiz-adv-x="433" 
d="M260 -8q-29 0 -61 8t-55 22l-1 87q18 -10 39.5 -17t40.5 -7q30 0 44.5 21.5t14.5 66.5v165q0 34 -10 49.5t-35 15.5q-22 0 -45 -15t-49 -44l-11 73q35 38 70.5 61t80.5 23q55 0 82 -35.5t27 -110.5v-188q0 -89 -33.5 -132t-98.5 -43zM57 -185q-10 0 -10 11v546
q0 32 -1 59t-3 48q-2 13 9 13h78q9 0 11 -10q2 -12 4 -33t3 -38l9 -41v-544q0 -11 -11 -11h-89z" />
    <glyph glyph-name="uni0441" unicode="&#x441;" horiz-adv-x="422" 
d="M218 -8q-89 0 -134.5 46.5t-45.5 138.5v140q0 90 46 137t133 47q55 0 93.5 -20.5t57.5 -58t15 -86.5q-1 -17 -11 -17h-81q-10 0 -10 13q2 36 -14.5 53.5t-47.5 17.5q-36 0 -53.5 -20.5t-17.5 -70.5v-130q0 -50 17 -71.5t53 -21.5q32 0 47.5 18t14.5 53q0 14 10 14h82
q11 0 11 -12q1 -83 -40.5 -126.5t-124.5 -43.5z" />
    <glyph glyph-name="uni0442" unicode="&#x442;" horiz-adv-x="663" 
d="M57 0q-10 0 -10 11v356q0 35 -1 63.5t-3 48.5q-1 13 10 13h78q8 0 10 -9q2 -13 3.5 -27.5t2.5 -30.5q30 35 62 55.5t74 20.5q37 0 60.5 -18t34.5 -55q31 34 63 53.5t70 19.5q52 0 79 -34.5t27 -103.5v-352q0 -11 -10 -11h-90q-10 0 -10 11v336q0 29 -10 42.5t-31 13.5
q-19 0 -38 -12t-41 -35v-345q0 -11 -10 -11h-90q-10 0 -10 11v336q0 29 -10 42.5t-31 13.5q-19 0 -38 -12t-41 -35v-345q0 -11 -11 -11h-89z" />
    <glyph glyph-name="uni0443" unicode="&#x443;" horiz-adv-x="416" 
d="M113 -185q-5 0 -7 4t0 9l51 175l-141 476q-4 13 8 13h98q8 0 11 -10l48 -200q8 -32 14.5 -68t11.5 -69h3q6 33 13 69t13 68l49 200q2 10 11 10h96q12 0 8 -13l-188 -656q-1 -8 -11 -8h-88z" />
    <glyph glyph-name="uni0444" unicode="&#x444;" horiz-adv-x="578" 
d="M227 -8q-89 0 -139 44t-50 135v150q0 92 50 136t139 44h123q89 0 139 -44t50 -136v-150q0 -91 -50 -135t-139 -44h-123zM227 84h123q38 0 59 21t21 69v145q0 48 -21 68.5t-59 20.5h-123q-39 0 -59.5 -20.5t-20.5 -68.5v-145q0 -48 20.5 -69t59.5 -21zM245 -185
q-12 0 -12 11v192l4 29v392l-4 36v198q0 10 12 10h87q11 0 11 -10v-199l-4 -35v-391l4 -30v-192q0 -11 -10 -11h-88z" />
    <glyph glyph-name="uni0445" unicode="&#x445;" horiz-adv-x="417" 
d="M18 0q-6 0 -7.5 4t1.5 10l130 239l-121 226q-4 6 -1.5 9.5t7.5 3.5h101q10 0 12 -7l38 -83q7 -19 15 -39.5t15 -45.5h1q8 25 15.5 46.5t15.5 39.5l36 81q3 8 12 8h100q6 0 8 -3.5t-1 -9.5l-121 -225l131 -240q3 -6 1 -10t-8 -4h-102q-9 0 -12 7l-39 88q-9 21 -18 43
t-18 49h-2q-8 -27 -17 -49.5t-19 -43.5l-40 -87q-2 -7 -12 -7h-101z" />
    <glyph glyph-name="uni0446" unicode="&#x446;" horiz-adv-x="457" 
d="M349 -124q-5 0 -8 3.5t-3 8.5v112h-24l73 95h46q10 0 10 -11v-196q0 -12 -10 -12h-84zM154 -8q-56 0 -81.5 34.5t-25.5 107.5v347q0 11 10 11h89q11 0 11 -11v-331q0 -33 10 -47t30 -14q25 0 48 16.5t49 47.5l10 -71q-31 -40 -69 -65t-81 -25zM309 0q-10 0 -12 10
q-3 18 -5 42.5t-2 42.5l-10 31v355q0 11 11 11h88q11 0 11 -11v-356q0 -34 1 -62.5t3 -50.5q2 -12 -10 -12h-75z" />
    <glyph glyph-name="uni0447" unicode="&#x447;" horiz-adv-x="424" 
d="M278 0q-11 0 -11 11v176q-26 -25 -57 -42t-70 -17q-52 0 -77 34.5t-25 101.5v217q0 11 10 11h90q10 0 10 -11v-195q0 -31 9 -46t31 -15t41.5 12.5t37.5 31.5v212q0 11 11 11h89q10 0 10 -11v-470q0 -11 -10 -11h-89z" />
    <glyph glyph-name="uni0448" unicode="&#x448;" horiz-adv-x="657" 
d="M151 -8q-53 0 -78.5 34t-25.5 103v352q0 11 10 11h89q11 0 11 -11v-336q0 -28 9.5 -42t29.5 -14q19 0 37 12t40 36v344q0 11 10 11h90q10 0 10 -11v-336q0 -28 9 -42t31 -14q17 0 36 12t40 36v344q0 11 11 11h89q10 0 10 -11v-356q0 -34 1.5 -62.5t3.5 -49.5
q2 -13 -10 -13h-78q-9 0 -10 9q-2 12 -3.5 27t-2.5 30q-31 -34 -62.5 -54t-70.5 -20t-61.5 17.5t-32.5 53.5q-31 -33 -62 -52t-70 -19z" />
    <glyph glyph-name="uni0449" unicode="&#x449;" horiz-adv-x="679" 
d="M570 -124q-4 0 -7 3.5t-3 8.5v112h-24l73 95h46q10 0 10 -11v-196q0 -12 -10 -12h-85zM151 -8q-53 0 -78.5 34t-25.5 103v352q0 11 10 11h89q11 0 11 -11v-336q0 -28 9.5 -42t29.5 -14q19 0 37 12t40 36v344q0 11 10 11h90q10 0 10 -11v-336q0 -28 9 -42t31 -14
q17 0 36 12t40 36v344q0 11 11 11h89q10 0 10 -11v-356q0 -34 1.5 -62.5t3.5 -49.5q2 -13 -10 -13h-78q-9 0 -10 9q-2 12 -3.5 27t-2.5 30q-31 -34 -62.5 -54t-70.5 -20t-61.5 17.5t-32.5 53.5q-31 -33 -62 -52t-70 -19z" />
    <glyph glyph-name="uni044A" unicode="&#x44a;" horiz-adv-x="470" 
d="M19 396q-11 0 -11 11v74q0 11 11 11h108v-96h-108zM264 -8q-84 0 -125.5 41.5t-41.5 127.5v320q0 11 11 11h89q10 0 10 -11v-327q0 -35 14.5 -52t44.5 -17t44.5 17.5t14.5 52.5v67q0 29 -11 42t-33 13q-25 0 -45.5 -15t-37.5 -38l-2 82q24 26 56 44.5t72 18.5
q52 0 82 -32.5t30 -104.5v-74q0 -82 -44 -124t-128 -42z" />
    <glyph glyph-name="uni044B" unicode="&#x44b;" horiz-adv-x="616" 
d="M215 -8q-85 0 -126.5 41.5t-41.5 127.5v320q0 11 10 11h89q11 0 11 -11v-327q0 -35 14 -52t45 -17q29 0 44 17.5t15 52.5v67q0 29 -11.5 42t-32.5 13q-24 0 -45 -15t-38 -38l-2 82q25 26 56.5 44.5t71.5 18.5q52 0 82 -32.5t30 -104.5v-74q0 -82 -44 -124t-127 -42z
M469 0q-10 0 -10 11v470q0 11 10 11h89q11 0 11 -11v-470q0 -11 -11 -11h-89z" />
    <glyph glyph-name="uni044C" unicode="&#x44c;" horiz-adv-x="421" 
d="M215 -8q-85 0 -126.5 41.5t-41.5 127.5v320q0 11 10 11h89q11 0 11 -11v-327q0 -35 14 -52t45 -17q29 0 44 17.5t15 52.5v67q0 29 -11.5 42t-32.5 13q-24 0 -45 -15t-38 -38l-2 82q25 26 56.5 44.5t71.5 18.5q52 0 82 -32.5t30 -104.5v-74q0 -82 -44 -124t-127 -42z" />
    <glyph glyph-name="uni044D" unicode="&#x44d;" horiz-adv-x="417" 
d="M205 -8q-86 0 -129.5 41t-39.5 110q1 14 12 14h83q10 0 10 -13q-1 -27 15 -41t47 -14q34 0 49.5 18t15.5 61v47h-111q-8 0 -8 9v48q0 9 8 9h111v45q0 41 -15.5 59t-48.5 18q-62 0 -61 -53q0 -13 -9 -13h-85q-4 0 -7 3t-4 11q-4 45 15 78.5t58.5 52.5t95.5 19
q86 0 128.5 -44t42.5 -126v-163q0 -89 -43 -132.5t-130 -43.5z" />
    <glyph glyph-name="uni044E" unicode="&#x44e;" horiz-adv-x="605" 
d="M47 408v264q0 11 10 11h89q11 0 11 -11v-264h-110zM391 -8q-83 0 -129 46t-46 134v149q0 88 46 134t129 46q84 0 129.5 -46t45.5 -134v-149q0 -88 -45.5 -134t-129.5 -46zM57 0q-10 0 -10 11v470q0 11 10 11h89q11 0 11 -11v-185h104v-93h-104v-192q0 -11 -11 -11h-89z
M391 89q34 0 49.5 21.5t15.5 65.5v140q0 45 -15.5 66t-49.5 21t-49.5 -21t-15.5 -66v-140q0 -44 15.5 -65.5t49.5 -21.5z" />
    <glyph glyph-name="uni044F" unicode="&#x44f;" horiz-adv-x="420" 
d="M27 0q-12 0 -6 14l53 110q9 18 18 36.5t19 36.5v2q-36 16 -56 47.5t-20 85.5q0 79 41.5 119.5t126.5 40.5h160q10 0 10 -11v-470q0 -11 -10 -11h-89q-11 0 -11 11v167h-50l-76 -169q-4 -9 -12 -9h-98zM210 260h53v144h-54q-35 0 -50 -19t-15 -55q0 -37 17 -53.5t49 -16.5
z" />
    <glyph glyph-name="uni0450" unicode="&#x450;" horiz-adv-x="427" 
d="M216 -8q-89 0 -133.5 44t-44.5 135v147q0 91 44.5 137t131.5 46q88 0 131.5 -46t43.5 -137v-87q0 -11 -10 -11h-232v-49q0 -47 16.5 -68t53.5 -21q30 0 45 13t14 41q0 11 10 11h86q8 0 10 -11q1 -71 -40.5 -107.5t-125.5 -36.5zM147 295h134v31q0 44 -16 64.5t-49 20.5
q-36 0 -52.5 -20.5t-16.5 -64.5v-31zM209 560q-9 0 -15 8l-82 124q-3 5 -1.5 9t7.5 4h81q8 0 13 -9l66 -124q6 -12 -6 -12h-63z" />
    <glyph glyph-name="uni0451" unicode="&#x451;" horiz-adv-x="427" 
d="M216 -8q-89 0 -133.5 44t-44.5 135v147q0 91 44.5 137t131.5 46q88 0 131.5 -46t43.5 -137v-87q0 -11 -10 -11h-232v-49q0 -47 16.5 -68t53.5 -21q30 0 45 13t14 41q0 11 10 11h86q8 0 10 -11q1 -71 -40.5 -107.5t-125.5 -36.5zM147 295h134v31q0 44 -16 64.5t-49 20.5
q-36 0 -52.5 -20.5t-16.5 -64.5v-31zM135 570q-28 0 -43.5 14.5t-15.5 40.5v14q0 27 15.5 41t43.5 14t43 -14t15 -41v-14q0 -26 -15 -40.5t-43 -14.5zM294 570q-29 0 -44 14.5t-15 40.5v14q0 27 15 41t44 14t43 -14t14 -41v-14q0 -26 -14 -40.5t-43 -14.5z" />
    <glyph glyph-name="uni0452" unicode="&#x452;" horiz-adv-x="448" 
d="M300 -188q-8 -5 -13 3l-53 63q-5 9 1 16q21 17 33.5 40.5t18 57.5t5.5 81v270q0 32 -11 46t-35 14q-20 0 -41 -12t-44 -36v-344q0 -11 -10 -11h-90q-10 0 -10 11v542h-44q-10 0 -10 11v56q0 10 10 10h44v42q0 11 10 11h90q10 0 10 -11v-42h71q9 0 9 -10v-56q0 -11 -9 -11
h-71v-116q30 31 62 47.5t69 16.5q55 0 82.5 -34.5t27.5 -107.5v-290q0 -64 -9 -112t-31.5 -83t-61.5 -62z" />
    <glyph glyph-name="uni0453" unicode="&#x453;" horiz-adv-x="393" 
d="M192 -8q-81 0 -120.5 30t-39.5 96q0 48 18.5 82t58.5 57l89 50q25 14 34.5 29t9.5 35q0 43 -49 43q-28 0 -40.5 -13t-11.5 -38q0 -14 -11 -14h-81q-9 0 -11 14q-6 64 35 101t124 37q76 0 115.5 -31.5t39.5 -95.5q0 -48 -19.5 -79.5t-60.5 -54.5l-83 -45q-25 -15 -36 -31
t-11 -40q0 -26 14.5 -36t41.5 -10q32 1 46 15.5t13 45.5q-1 13 9 13h82q10 0 11 -13q6 -72 -35 -109.5t-132 -37.5zM138 557q-12 0 -7 12l66 124q5 9 14 9h80q6 0 7.5 -4t-1.5 -9l-82 -124q-4 -8 -15 -8h-62z" />
    <glyph glyph-name="uni0454" unicode="&#x454;" horiz-adv-x="419" 
d="M213 -8q-87 0 -131 43.5t-44 132.5v159q0 86 44 130t129 44q56 0 95 -19t57.5 -52.5t14.5 -78.5q-1 -8 -4 -11t-7 -3h-83q-11 0 -11 13q1 26 -14 39.5t-45 13.5q-34 0 -50 -17.5t-16 -59.5v-45h111q8 0 8 -9v-48q0 -9 -8 -9h-111v-47q0 -43 16 -61t50 -18q31 0 46.5 14.5
t15.5 40.5q0 13 10 13h83q10 0 11 -14q5 -69 -38 -110t-129 -41z" />
    <glyph glyph-name="uni0455" unicode="&#x455;" horiz-adv-x="384" 
d="M190 -8q-84 0 -122 38.5t-33 116.5q1 12 11 12h83q9 0 9 -12q0 -36 11.5 -53t41.5 -17q27 0 40.5 13t13.5 39q0 21 -10.5 35.5t-33.5 28.5l-89 51q-38 23 -56.5 53t-18.5 75q0 63 38.5 96t114.5 33q81 0 119.5 -36t36.5 -102q-1 -11 -10 -11h-83q-5 0 -8 3t-2 10
q1 24 -11 37t-38 13q-24 0 -36 -10.5t-12 -30.5t9.5 -32.5t33.5 -26.5l85 -51q42 -25 61 -54.5t19 -76.5q0 -70 -41 -105.5t-123 -35.5z" />
    <glyph glyph-name="uni0456" unicode="&#x456;" horiz-adv-x="203" 
d="M57 0q-10 0 -10 11v470q0 11 10 11h89q11 0 11 -11v-470q0 -11 -11 -11h-89zM102 564q-31 0 -48 16t-17 44v14q0 28 17 44.5t48 16.5q32 0 48.5 -16.5t16.5 -44.5v-14q0 -28 -16.5 -44t-48.5 -16z" />
    <glyph glyph-name="uni0457" unicode="&#x457;" horiz-adv-x="203" 
d="M57 0q-10 0 -10 11v470q0 11 10 11h89q11 0 11 -11v-470q0 -11 -11 -11h-89zM24 567q-28 0 -43.5 14.5t-15.5 40.5v14q0 27 15.5 41t43.5 14t43 -14t15 -41v-14q0 -26 -15 -40.5t-43 -14.5zM183 567q-29 0 -44 14.5t-15 40.5v14q0 27 15 41t44 14t43 -14t14 -41v-14
q0 -26 -14 -40.5t-43 -14.5z" />
    <glyph glyph-name="uni0458" unicode="&#x458;" horiz-adv-x="200" 
d="M53 -189q-8 -5 -14 3l-51 63q-9 9 0 16q20 17 32.5 41t18.5 57.5t6 80.5v409q0 11 10 11h89q11 0 11 -11v-412q0 -64 -9.5 -112.5t-31.5 -83.5t-61 -62zM101 564q-31 0 -48 16t-17 44v14q0 28 17 44.5t48 16.5q32 0 48.5 -16.5t16.5 -44.5v-14q0 -28 -16.5 -44t-48.5 -16
z" />
    <glyph glyph-name="uni0459" unicode="&#x459;" horiz-adv-x="605" 
d="M403 -8q-48 0 -79.5 13.5t-49.5 44t-28 81.5l-28 126q-5 32 -11 61t-10 61h-1q-5 -31 -10 -60.5t-12 -62.5l-54 -247q-3 -9 -11 -9h-97q-11 0 -8 13l126 467q4 12 14 12h106q11 0 14 -12l49 -185q34 38 70.5 57t73.5 19q56 0 84.5 -34t28.5 -103v-75q0 -83 -43 -125
t-124 -42zM403 85q28 0 42.5 17t14.5 51v71q0 28 -11 41.5t-34 13.5q-20 0 -41 -14t-43 -41l19 -81q6 -23 13 -35.5t17 -17.5t23 -5z" />
    <glyph glyph-name="uni045A" unicode="&#x45a;" horiz-adv-x="656" 
d="M57 0q-10 0 -10 11v470q0 11 10 11h89q11 0 11 -11v-185h139v-94h-139v-191q0 -11 -11 -11h-89zM450 -8q-85 0 -126.5 41.5t-41.5 127.5v320q0 11 10 11h89q11 0 11 -11v-327q0 -35 14 -52t45 -17q29 0 44 17.5t15 52.5v67q0 29 -11.5 42t-32.5 13q-24 0 -45 -15t-38 -38
l-2 82q25 26 56.5 44.5t71.5 18.5q52 0 82 -32.5t30 -104.5v-74q0 -82 -44 -124t-127 -42z" />
    <glyph glyph-name="uni045B" unicode="&#x45b;" horiz-adv-x="449" 
d="M7 553q-10 0 -10 11v56q0 10 10 10h224q10 0 10 -10v-56q0 -11 -10 -11h-180h-44zM302 0q-10 0 -10 11v332q0 32 -11 46t-35 14q-23 0 -46 -15t-49 -43l-10 68q32 40 69.5 64t81.5 24q55 0 82.5 -34.5t27.5 -107.5v-348q0 -11 -10 -11h-90zM61 0q-10 0 -10 11v661
q0 11 10 11h90q10 0 10 -11v-661q0 -11 -10 -11h-90z" />
    <glyph glyph-name="uni045C" unicode="&#x45c;" horiz-adv-x="420" 
d="M416 14q3 -6 1 -10t-8 -4h-102q-9 0 -12 8l-98 205h-40v-202q0 -11 -11 -11h-89q-10 0 -10 11v661q0 11 10 11h89q11 0 11 -11v-367h40l90 180q4 7 12 7h99q7 0 8 -4t-1 -9l-113 -211zM202 557q-12 0 -7 12l66 124q5 9 14 9h80q6 0 7.5 -4t-1.5 -9l-82 -124q-4 -8 -15 -8
h-62z" />
    <glyph glyph-name="uni045D" unicode="&#x45d;" horiz-adv-x="437" 
d="M154 -8q-56 0 -81.5 34.5t-25.5 107.5v347q0 11 10 11h89q11 0 11 -11v-331q0 -33 10 -47t30 -14q25 0 48 16.5t49 47.5l10 -71q-31 -40 -69 -65t-81 -25zM309 0q-10 0 -12 10q-3 18 -5 42.5t-2 42.5l-10 31v355q0 11 11 11h88q11 0 11 -11v-356q0 -34 1 -62.5t3 -50.5
q2 -12 -10 -12h-75zM215 557q-9 0 -15 8l-82 124q-3 5 -1.5 9t7.5 4h81q8 0 13 -9l66 -124q6 -12 -6 -12h-63z" />
    <glyph glyph-name="uni045E" unicode="&#x45e;" horiz-adv-x="416" 
d="M113 -185q-5 0 -7 4t0 9l51 175l-141 476q-4 13 8 13h98q8 0 11 -10l48 -200q8 -32 14.5 -68t11.5 -69h3q6 33 13 69t13 68l49 200q2 10 11 10h96q12 0 8 -13l-188 -656q-1 -8 -11 -8h-88zM209 549q-37 0 -62.5 14t-39.5 25q-4 6 -4 13v59q0 7 3 8.5t8 -2.5
q17 -13 41 -24.5t54 -11.5t53.5 11.5t40.5 24.5q4 4 7.5 2.5t3.5 -8.5v-59q0 -9 -4 -13q-15 -12 -39.5 -25.5t-61.5 -13.5z" />
    <glyph glyph-name="uni045F" unicode="&#x45f;" horiz-adv-x="437" 
d="M143 -124q-10 0 -10 12v175l100 2v-177q0 -12 -9 -12h-81zM154 -8q-56 0 -81.5 34.5t-25.5 107.5v347q0 11 10 11h89q11 0 11 -11v-331q0 -33 10 -47t30 -14q25 0 48 16.5t49 47.5l10 -71q-31 -40 -69 -65t-81 -25zM309 0q-10 0 -12 10q-3 18 -5 42.5t-2 42.5l-10 31v355
q0 11 11 11h88q11 0 11 -11v-356q0 -34 1 -62.5t3 -50.5q2 -12 -10 -12h-75z" />
    <glyph glyph-name="uni0490" unicode="&#x490;" horiz-adv-x="379" 
d="M65 0q-10 0 -10 11v633q0 11 10 11h286q10 0 10 -11v-79q0 -11 -11 -11h-183v-543q0 -11 -10 -11h-92zM252 573v213q0 5 3 8.5t6 3.5h89q11 0 11 -12v-213h-109z" />
    <glyph glyph-name="uni0491" unicode="&#x491;" horiz-adv-x="370" 
d="M83 -12q-21 0 -37.5 2.5t-32.5 9.5q-7 3 -7 11l2 69q0 5 3 7.5t8 0.5q20 -9 36 -9q13 0 20 12.5t10 53.5l12 165q6 93 31.5 139t89.5 46q26 0 39 10t17 25q3 10 3.5 20.5t0.5 19.5t9 9h81q10 0 10 -14q0 -42 -4 -68.5t-15 -43.5q-12 -19 -30 -30.5t-58 -12.5
q-34 -1 -47 -27t-18 -89l-13 -156q-7 -81 -32.5 -115.5t-77.5 -34.5z" />
    <glyph glyph-name="uni04C0" unicode="&#x4c0;" horiz-adv-x="222" 
d="M65 0q-10 0 -10 11v633q0 11 10 11h92q10 0 10 -11v-633q0 -11 -10 -11h-92z" />
    <glyph glyph-name="uni04CF" unicode="&#x4cf;" horiz-adv-x="203" 
d="M57 0q-10 0 -10 11v661q0 11 10 11h89q11 0 11 -11v-661q0 -11 -11 -11h-89z" />
    <glyph glyph-name="uni04E2" unicode="&#x4e2;" horiz-adv-x="531" 
d="M65 0q-10 0 -10 11v633q0 11 10 11h88q10 0 10 -11v-261q0 -35 -2 -77.5t-4.5 -82t-4.5 -67.5h2q9 27 20.5 59t27.5 74t38 94l112 265q2 7 11 7h102q12 0 12 -11v-633q0 -11 -12 -11h-87q-11 0 -11 11l2 246q0 36 1.5 80t4 87t5.5 72h-3q-9 -28 -21.5 -61.5t-29.5 -76.5
t-42 -101l-106 -250q-2 -7 -11 -7h-102zM169 718q-11 0 -11 11v63q0 11 11 11h192q11 0 11 -11v-63q0 -11 -11 -11h-192z" />
    <glyph glyph-name="uni04E3" unicode="&#x4e3;" horiz-adv-x="437" 
d="M154 -8q-56 0 -81.5 34.5t-25.5 107.5v347q0 11 10 11h89q11 0 11 -11v-331q0 -33 10 -47t30 -14q25 0 48 16.5t49 47.5l10 -71q-31 -40 -69 -65t-81 -25zM309 0q-10 0 -12 10q-3 18 -5 42.5t-2 42.5l-10 31v355q0 11 11 11h88q11 0 11 -11v-356q0 -34 1 -62.5t3 -50.5
q2 -12 -10 -12h-75zM133 571q-11 0 -11 10v64q0 11 11 11h171q11 0 11 -11v-64q0 -10 -11 -10h-171z" />
    <glyph glyph-name="uni04EE" unicode="&#x4ee;" horiz-adv-x="470" 
d="M102 0q-5 0 -7.5 3.5t0.5 10.5l82 210l-164 417q-2 7 0.5 10.5t7.5 3.5h106q8 0 10 -7l67 -195q9 -28 17 -54.5t15 -55.5h2q8 29 16.5 56t16.5 54l68 195q1 7 11 7h105q6 0 7.5 -3.5t-0.5 -9.5l-249 -635q-3 -7 -12 -7h-99zM142 718q-11 0 -11 11v63q0 11 11 11h192
q11 0 11 -11v-63q0 -11 -11 -11h-192z" />
    <glyph glyph-name="uni04EF" unicode="&#x4ef;" horiz-adv-x="416" 
d="M113 -185q-5 0 -7 4t0 9l51 175l-141 476q-4 13 8 13h98q8 0 11 -10l48 -200q8 -32 14.5 -68t11.5 -69h3q6 33 13 69t13 68l49 200q2 10 11 10h96q12 0 8 -13l-188 -656q-1 -8 -11 -8h-88zM122 571q-11 0 -11 10v64q0 11 11 11h171q11 0 11 -11v-64q0 -10 -11 -10h-171z
" />
    <glyph glyph-name="Wgrave" unicode="&#x1e80;" horiz-adv-x="699" 
d="M157 0q-9 0 -11 9l-133 633q-3 13 9 13h93q9 0 11 -9l65 -319q9 -51 15 -103t9 -103h2q6 35 13.5 69.5t15.5 68.5l58 250l-28 120q-1 6 1.5 9.5t7.5 3.5h91q8 0 10 -9l75 -372q7 -35 12.5 -70t10.5 -70h1q5 51 10.5 103t14.5 106l62 316q2 9 11 9h94q11 0 8 -13
l-132 -633q-2 -9 -10 -9h-110q-9 0 -11 9l-43 218q-7 34 -13.5 66.5t-11.5 64.5h-3q-6 -32 -12.5 -64t-15.5 -66l-49 -219q-2 -9 -11 -9h-106zM342 710q-9 0 -15 8l-72 106q-3 6 -1.5 10t7.5 4h82q8 0 12 -8l57 -108q6 -12 -7 -12h-63z" />
    <glyph glyph-name="wgrave" unicode="&#x1e81;" horiz-adv-x="602" 
d="M142 0q-9 0 -12 9l-110 471q-3 12 8 12h94q10 0 11 -11l45 -239q7 -33 11.5 -66t8.5 -66h3q6 32 12.5 64.5t12.5 64.5l29 131l-18 99q-3 13 8 13h83q8 0 11 -10l42 -232q5 -33 10.5 -65.5t9.5 -64.5h3q4 33 9 66.5t11 65.5l45 239q2 11 11 11h95q11 0 8 -12l-111 -471
q-3 -9 -12 -9h-104q-9 0 -12 9l-19 92q-6 31 -11 64.5t-11 79.5h-3q-6 -46 -11.5 -79.5t-11.5 -64.5l-19 -92q-3 -9 -12 -9h-104zM298 557q-9 0 -15 8l-82 124q-3 5 -1.5 9t7.5 4h81q8 0 13 -9l66 -124q6 -12 -6 -12h-63z" />
    <glyph glyph-name="Wacute" unicode="&#x1e82;" horiz-adv-x="699" 
d="M157 0q-9 0 -11 9l-133 633q-3 13 9 13h93q9 0 11 -9l65 -319q9 -51 15 -103t9 -103h2q6 35 13.5 69.5t15.5 68.5l58 250l-28 120q-1 6 1.5 9.5t7.5 3.5h91q8 0 10 -9l75 -372q7 -35 12.5 -70t10.5 -70h1q5 51 10.5 103t14.5 106l62 316q2 9 11 9h94q11 0 8 -13
l-132 -633q-2 -9 -10 -9h-110q-9 0 -11 9l-43 218q-7 34 -13.5 66.5t-11.5 64.5h-3q-6 -32 -12.5 -64t-15.5 -66l-49 -219q-2 -9 -11 -9h-106zM288 710q-5 0 -7 3.5t0 8.5l57 108q5 8 14 8h81q6 0 7.5 -4t-2.5 -10l-71 -106q-5 -8 -15 -8h-64z" />
    <glyph glyph-name="wacute" unicode="&#x1e83;" horiz-adv-x="602" 
d="M142 0q-9 0 -12 9l-110 471q-3 12 8 12h94q10 0 11 -11l45 -239q7 -33 11.5 -66t8.5 -66h3q6 32 12.5 64.5t12.5 64.5l29 131l-18 99q-3 13 8 13h83q8 0 11 -10l42 -232q5 -33 10.5 -65.5t9.5 -64.5h3q4 33 9 66.5t11 65.5l45 239q2 11 11 11h95q11 0 8 -12l-111 -471
q-3 -9 -12 -9h-104q-9 0 -12 9l-19 92q-6 31 -11 64.5t-11 79.5h-3q-6 -46 -11.5 -79.5t-11.5 -64.5l-19 -92q-3 -9 -12 -9h-104zM242 557q-12 0 -7 12l66 124q5 9 14 9h80q6 0 7.5 -4t-1.5 -9l-82 -124q-4 -8 -15 -8h-62z" />
    <glyph glyph-name="Wdieresis" unicode="&#x1e84;" horiz-adv-x="699" 
d="M157 0q-9 0 -11 9l-133 633q-3 13 9 13h93q9 0 11 -9l65 -319q9 -51 15 -103t9 -103h2q6 35 13.5 69.5t15.5 68.5l58 250l-28 120q-1 6 1.5 9.5t7.5 3.5h91q8 0 10 -9l75 -372q7 -35 12.5 -70t10.5 -70h1q5 51 10.5 103t14.5 106l62 316q2 9 11 9h94q11 0 8 -13
l-132 -633q-2 -9 -10 -9h-110q-9 0 -11 9l-43 218q-7 34 -13.5 66.5t-11.5 64.5h-3q-6 -32 -12.5 -64t-15.5 -66l-49 -219q-2 -9 -11 -9h-106zM271 714q-28 0 -43.5 14.5t-15.5 40.5v13q0 27 15.5 41.5t43.5 14.5t43 -14.5t15 -41.5v-13q0 -26 -15 -40.5t-43 -14.5zM429 714
q-28 0 -43.5 14.5t-15.5 40.5v13q0 27 15.5 41.5t43.5 14.5q29 0 43.5 -14.5t14.5 -41.5v-13q0 -26 -14.5 -40.5t-43.5 -14.5z" />
    <glyph glyph-name="wdieresis" unicode="&#x1e85;" horiz-adv-x="602" 
d="M142 0q-9 0 -12 9l-110 471q-3 12 8 12h94q10 0 11 -11l45 -239q7 -33 11.5 -66t8.5 -66h3q6 32 12.5 64.5t12.5 64.5l29 131l-18 99q-3 13 8 13h83q8 0 11 -10l42 -232q5 -33 10.5 -65.5t9.5 -64.5h3q4 33 9 66.5t11 65.5l45 239q2 11 11 11h95q11 0 8 -12l-111 -471
q-3 -9 -12 -9h-104q-9 0 -12 9l-19 92q-6 31 -11 64.5t-11 79.5h-3q-6 -46 -11.5 -79.5t-11.5 -64.5l-19 -92q-3 -9 -12 -9h-104zM223 567q-28 0 -43.5 14.5t-15.5 40.5v14q0 27 15.5 41t43.5 14t43 -14t15 -41v-14q0 -26 -15 -40.5t-43 -14.5zM382 567q-29 0 -44 14.5
t-15 40.5v14q0 27 15 41t44 14t43 -14t14 -41v-14q0 -26 -14 -40.5t-43 -14.5z" />
    <glyph glyph-name="uni1E9E" unicode="&#x1e9e;" horiz-adv-x="544" 
d="M349 -8q-80 0 -115.5 39t-29.5 113q1 14 11 14l77 -2q11 0 10 -13q-3 -53 46 -53q30 0 44 24t14 82q0 60 -23 86t-76 26h-40q-11 0 -11 11v39q0 6 3 16l74 179h-166v-542q0 -11 -10 -11h-93q-9 0 -9 11v633q0 11 9 11h407q7 0 9.5 -7t-1.5 -16l-101 -242
q71 -11 106 -58.5t34 -135.5q0 -104 -42 -154t-127 -50z" />
    <glyph glyph-name="Ygrave" unicode="&#x1ef2;" horiz-adv-x="461" 
d="M184 0q-10 0 -10 11v214l-167 416q-2 7 0 10.5t7 3.5h104q10 0 11 -8l65 -192q10 -30 19 -59.5t18 -58.5h1q8 30 17.5 59.5t19.5 58.5l64 193q2 7 11 7h102q6 0 8 -3.5t0 -10.5l-167 -415v-215q0 -11 -10 -11h-93zM223 710q-9 0 -15 8l-72 106q-3 6 -1.5 10t7.5 4h82
q8 0 12 -8l57 -108q6 -12 -7 -12h-63z" />
    <glyph glyph-name="ygrave" unicode="&#x1ef3;" horiz-adv-x="416" 
d="M113 -185q-5 0 -7 4t0 9l51 175l-141 476q-4 13 8 13h98q8 0 11 -10l48 -200q8 -32 14.5 -68t11.5 -69h3q6 33 13 69t13 68l49 200q2 10 11 10h96q12 0 8 -13l-188 -656q-1 -8 -11 -8h-88zM205 557q-9 0 -15 8l-82 124q-3 5 -1.5 9t7.5 4h81q8 0 13 -9l66 -124
q6 -12 -6 -12h-63z" />
    <glyph glyph-name="uni2007" unicode="&#x2007;" horiz-adv-x="400" 
 />
    <glyph glyph-name="uni2008" unicode="&#x2008;" horiz-adv-x="171" 
 />
    <glyph glyph-name="uni200B" unicode="&#x200b;" horiz-adv-x="4" 
 />
    <glyph glyph-name="endash" unicode="&#x2013;" horiz-adv-x="581" 
d="M56 223q-12 0 -12 11v64q0 10 12 10h468q12 0 12 -10v-64q0 -11 -12 -11h-468z" />
    <glyph glyph-name="emdash" unicode="&#x2014;" horiz-adv-x="689" 
d="M56 223q-12 0 -12 11v64q0 10 12 10h577q12 0 12 -10v-64q0 -11 -12 -11h-577z" />
    <glyph glyph-name="quoteleft" unicode="&#x2018;" horiz-adv-x="231" 
d="M198 655q12 0 9 -12l-47 -252q-2 -11 -12 -11h-106q-14 0 -10 14l77 252q3 9 11 9h78z" />
    <glyph glyph-name="quoteright" unicode="&#x2019;" horiz-adv-x="236" 
d="M32 379q-12 0 -9 13l47 251q2 12 11 12h108q13 0 9 -15l-77 -252q-2 -9 -11 -9h-78z" />
    <glyph glyph-name="quotesinglbase" unicode="&#x201a;" horiz-adv-x="236" 
d="M32 -140q-12 0 -9 13l47 251q2 12 11 12h108q13 0 9 -15l-77 -252q-2 -9 -11 -9h-78z" />
    <glyph glyph-name="quotedblleft" unicode="&#x201c;" horiz-adv-x="405" 
d="M372 655q12 0 9 -12l-47 -252q-2 -11 -12 -11h-106q-14 0 -10 14l77 252q3 9 11 9h78zM198 655q12 0 9 -12l-47 -252q-2 -11 -12 -11h-106q-14 0 -10 14l77 252q3 9 11 9h78z" />
    <glyph glyph-name="quotedblright" unicode="&#x201d;" horiz-adv-x="410" 
d="M32 379q-12 0 -9 13l47 251q2 12 11 12h108q13 0 9 -15l-77 -252q-2 -9 -11 -9h-78zM206 379q-12 0 -9 13l47 251q2 12 11 12h108q13 0 9 -15l-77 -252q-2 -9 -11 -9h-78z" />
    <glyph glyph-name="quotedblbase" unicode="&#x201e;" horiz-adv-x="410" 
d="M32 -140q-12 0 -9 13l47 251q2 12 11 12h108q13 0 9 -15l-77 -252q-2 -9 -11 -9h-78zM206 -140q-12 0 -9 13l47 251q2 12 11 12h108q13 0 9 -15l-77 -252q-2 -9 -11 -9h-78z" />
    <glyph glyph-name="dagger" unicode="&#x2020;" horiz-adv-x="408" 
d="M165 0q-11 0 -11 11v381h-124q-11 0 -11 11v73q0 11 11 11h124v157q0 11 11 11h77q13 0 13 -11v-157h123q11 0 11 -11v-73q0 -11 -11 -11h-123v-381q0 -11 -13 -11h-77z" />
    <glyph glyph-name="daggerdbl" unicode="&#x2021;" horiz-adv-x="413" 
d="M167 0q-11 0 -11 11v143h-124q-11 0 -11 12v72q0 11 11 11h124v157h-124q-11 0 -11 11v72q0 12 11 12h124v143q0 11 11 11h78q12 0 12 -11v-143h124q10 0 10 -12v-72q0 -11 -10 -11h-124v-157h124q10 0 10 -11v-72q0 -12 -10 -12h-124v-143q0 -11 -12 -11h-78z" />
    <glyph glyph-name="bullet" unicode="&#x2022;" horiz-adv-x="278" 
d="M139 166q-42 0 -66.5 22.5t-24.5 60.5v38q0 39 24.5 60.5t66.5 21.5q44 0 68 -21.5t24 -60.5v-38q0 -38 -24 -60.5t-68 -22.5z" />
    <glyph glyph-name="ellipsis" unicode="&#x2026;" horiz-adv-x="657" 
d="M542 -8q-34 0 -52.5 17.5t-18.5 47.5v17q0 31 18.5 48t52.5 17q37 0 54.5 -17t17.5 -48v-17q0 -30 -17.5 -47.5t-54.5 -17.5zM114 -8q-34 0 -53 17.5t-19 47.5v17q0 31 19 48t53 17q72 0 72 -65v-17q0 -30 -18 -47.5t-54 -17.5zM328 -8q-34 0 -53 17.5t-19 47.5v17
q0 31 19 48t53 17q36 0 53.5 -17t17.5 -48v-17q0 -30 -17.5 -47.5t-53.5 -17.5z" />
    <glyph glyph-name="perthousand" unicode="&#x2030;" horiz-adv-x="1073" 
d="M893 -8q-69 0 -102.5 38t-33.5 100v72q0 62 33.5 101t102.5 39t102.5 -39t33.5 -101v-72q0 -62 -33.5 -100t-102.5 -38zM893 71q28 0 40 15t12 44v73q0 30 -12 44t-40 14q-27 0 -39.5 -14.5t-12.5 -43.5v-73q0 -29 12.5 -44t39.5 -15zM190 0q-14 0 -8 14l156 331l135 304
q3 7 12 7h80q7 0 8.5 -3.5t-1.5 -9.5l-148 -312l-144 -324q-3 -7 -11 -7h-79zM180 313q-68 0 -102 38.5t-34 100.5v72q0 62 34 100.5t102 38.5q69 0 102.5 -38.5t33.5 -100.5v-72q0 -62 -34 -100.5t-102 -38.5zM180 394q27 0 39.5 14.5t12.5 43.5v73q0 29 -12.5 44t-39.5 15
t-39.5 -15t-12.5 -44v-73q0 -29 12.5 -43.5t39.5 -14.5zM574 -8q-68 0 -102 38t-34 100v72q0 62 34 101t102 39q69 0 103 -39t34 -101v-72q0 -62 -34 -100t-103 -38zM574 71q28 0 40 15t12 44v73q0 29 -12 43.5t-40 14.5q-27 0 -39 -14.5t-12 -43.5v-73q0 -29 12 -44t39 -15
z" />
    <glyph glyph-name="guilsinglleft" unicode="&#x2039;" horiz-adv-x="271" 
d="M136 89q-7 0 -12 7l-84 160q-1 3 -1 7.5t1 7.5l84 159q5 8 12 8h86q6 0 7.5 -3.5t-0.5 -9.5l-80 -162l79 -160q3 -6 1 -10t-7 -4h-86z" />
    <glyph glyph-name="guilsinglright" unicode="&#x203a;" horiz-adv-x="266" 
d="M46 89q-5 0 -7.5 4t0.5 10l80 160l-81 162q-2 6 0 9.5t8 3.5h86q7 0 11 -8l84 -159q5 -7 0 -15l-84 -160q-5 -7 -11 -7h-86z" />
    <glyph glyph-name="fraction" unicode="&#x2044;" horiz-adv-x="156" 
d="M-103 -33q-4 0 -6 3.5t-1 8.5l146 368l131 334q3 7 10 7h82q5 0 7 -3t0 -8l-144 -354l-134 -349q-1 -7 -10 -7h-81z" />
    <glyph glyph-name="uni2070" unicode="&#x2070;" horiz-adv-x="360" 
d="M180 342q-68 0 -104 38t-36 110v138q0 72 36 109.5t104 37.5t103.5 -37.5t35.5 -109.5v-138q0 -72 -35.5 -110t-103.5 -38zM180 426q24 0 35.5 14.5t11.5 48.5v140q0 34 -11.5 49t-35.5 15q-25 0 -36.5 -15t-11.5 -49v-140q0 -34 11.5 -48.5t36.5 -14.5z" />
    <glyph glyph-name="uni2074" unicode="&#x2074;" horiz-adv-x="360" 
d="M223 348q-11 0 -11 11v61h-176q-12 0 -12 11v8q0 5 1.5 9.5t2.5 8.5l130 300q4 11 13 11h67q6 0 8.5 -3.5t-0.5 -10.5l-105 -255h73l7 123q0 12 11 12h55q12 0 12 -12v-122h25q10 0 10 -12v-57q0 -11 -10 -11h-25v-61q0 -11 -12 -11h-64z" />
    </font>
</defs>
</svg>
